/* XPM */
static char *result[] = {
/* columns rows colors chars-per-pixel */
"32 154 256 2 ",
"   c white",
".  c #A3802C",
"X  c #AF8E49",
"o  c #9E7B21",
"O  c #F9EDBF",
"+  c #E6C08F",
"@  c #EECB9C",
"#  c #EBCCAD",
"$  c #FEFEFE",
"%  c #EFD1A1",
"&  c #F0D4A3",
"*  c #EBC799",
"=  c #DDC9B4",
"-  c #FEEFD9",
";  c #874900",
":  c #AC8B45",
">  c #EFD1A9",
",  c #AA8941",
"<  c #F0F0EB",
"1  c #4B0300",
"2  c #EFCF9F",
"3  c #F4F1EF",
"4  c #FBECD4",
"5  c #D7C3B2",
"6  c #FAE3AF",
"7  c #EBCB9D",
"8  c #FEEFE0",
"9  c #946810",
"0  c #FCEEC3",
"q  c #A8863D",
"w  c #EFCA95",
"e  c #D0A96A",
"r  c #BD9B61",
"t  c #FCE7C5",
"y  c #ECCAA3",
"u  c #F0D7AA",
"i  c #A68436",
"p  c #F7EABC",
"a  c #F5E8B9",
"s  c #936502",
"d  c #D4B184",
"f  c #FCE9BA",
"g  c #240000",
"h  c #EFD2B2",
"j  c #9F7C34",
"k  c #F5E2BE",
"l  c #CCAD7E",
"z  c #F3DFB1",
"x  c #B3904D",
"c  c #641B00",
"v  c #D7AD6F",
"b  c #DDB584",
"n  c #EDCDA6",
"m  c #C29F67",
"M  c #B5935D",
"N  c #D3BCAB",
"B  c #DABA9D",
"V  c #E5C399",
"C  c #BA975E",
"Z  c #E2BA87",
"A  c #A27F3C",
"S  c #F8DEA9",
"D  c #FEEBBC",
"F  c #9C6401",
"G  c #A48130",
"H  c #F2EFE6",
"J  c #5F1300",
"K  c #895403",
"L  c #F0E9DE",
"P  c #7F4401",
"I  c #EED0B0",
"U  c #F4E2B3",
"Y  c #C7A56C",
"T  c #9B732F",
"R  c #F8E4B5",
"E  c #EED6C1",
"W  c #F0DAB6",
"Q  c #D8B07E",
"!  c #DFBD94",
"~  c #F1DBAD",
"^  c #9D771D",
"/  c #B08832",
"(  c #AF8C55",
")  c #B59255",
"_  c #CAA984",
"`  c #CDA975",
"'  c #FDFBF8",
"]  c #FBE7B8",
"[  c #C4B8AB",
"{  c #E4C7A9",
"}  c #D2AD7E",
"|  c #9E7831",
" . c #886346",
".. c #AF8C5E",
"X. c #B58D48",
"o. c #410000",
"O. c #DFB886",
"+. c #845C30",
"@. c #8B5C02",
"#. c #E4C0A7",
"$. c #CDA465",
"%. c #620E00",
"&. c #6A3001",
"*. c #93672A",
"=. c #B28C46",
"-. c #8C611C",
";. c #976A20",
":. c #9C6D28",
">. c #7F2E01",
",. c #FAD0B5",
"<. c #C1A590",
"1. c #E8C79D",
"2. c #9A7225",
"3. c #A58243",
"4. c #9F7C2B",
"5. c #F2DEB9",
"6. c #8D610B",
"7. c #EDCFB9",
"8. c #F0E3D4",
"9. c #FDDCBE",
"0. c #A26700",
"q. c #955E00",
"w. c #D5B58D",
"e. c #AB894D",
"r. c #835002",
"t. c #AA8D6C",
"y. c #EEDCCC",
"u. c #B28C3C",
"i. c #F7E6CC",
"p. c #9B7118",
"a. c #8B6034",
"s. c #FAF4F2",
"d. c #F9EFE0",
"f. c #5E0400",
"g. c #D1AC7A",
"h. c #F8E7C3",
"j. c #E3BD8C",
"k. c #B79565",
"l. c #A08260",
"z. c #0083DA",
"x. c #926942",
"c. c #EAA98E",
"v. c #795626",
"b. c #F4DBA6",
"n. c #FDF0E7",
"m. c #863701",
"M. c #AB8853",
"N. c #D0AE82",
"B. c #F0DCC3",
"V. c #C7A483",
"C. c #F1C6AD",
"Z. c #EAC28A",
"A. c #AD811D",
"S. c #BB9249",
"D. c #6C2400",
"F. c #F0BCA1",
"G. c #530700",
"H. c #E8C394",
"J. c #D6B496",
"K. c #DEBEA2",
"L. c #C39F73",
"P. c #E3CEBD",
"I. c #D1AC91",
"U. c #987648",
"Y. c #9A6D11",
"T. c #E4B79E",
"R. c #CCB19E",
"E. c #EFD5B4",
"W. c #EEB598",
"Q. c #330000",
"!. c #934A00",
"~. c #E0CCB9",
"^. c #946919",
"/. c #976735",
"(. c #CFAF89",
"). c #C8A675",
"_. c #C8AA95",
"`. c #DEAC8C",
"'. c #DFAD94",
"]. c #C4804F",
"[. c #A16C04",
"{. c #180000",
"}. c #C3A17F",
"|. c #DAB98E",
" X c #A0763F",
".X c #BB986B",
"XX c #A38766",
"oX c #9D7C4C",
"OX c #834A1F",
"+X c #AD852A",
"@X c #B79A86",
"#X c #070000",
"$X c #8B4200",
"%X c #006AE2",
"&X c #2D81C4",
"*X c #D0B7A4",
"=X c #E7CAAD",
"-X c #F0D8B0",
";X c #DEB47E",
":X c #D5AC6E",
">X c #9F6C3F",
",X c #DEA184",
"<X c #D89066",
"1X c #EFF3FC",
"2X c #3E2200",
"3X c #41A0EA",
"4X c #208FDA",
"5X c #0066CE",
"6X c #AAC2E9",
"7X c #0097ED",
"8X c #A77A0C",
"9X c #80571F",
"0X c #DFC8AF",
"qX c #A7845B",
"wX c #B99041",
"eX c #87B4E7",
"rX c #944D1F",
"tX c #C88759",
"yX c #682900",
"uX c #C36E38",
"iX c #6B4416",
"pX c #945225",
"aX c #7089B4",
"sX c #E5D7CB",
"dX c #A8784F",
"fX c #D9E6F3",
"gX c #CDBEB1",
"hX c #6F1200",
"jX c #AC6F4B",
"kX c #BFD5F0",
"lX c #704C1D",
"zX c #773A00",
"xX c #8F6E56",
"cX c #5091D9",
"vX c #EED2A5",
"bX c #D49877",
"nX c #B0823F",
"mX c #A39380",
"MX c #D49B7C",
"NX c #DBE7F4",
"BX c #689ED5",
"VX c #DBD2CF",
"CX c #89A2D1",
"ZX c #381A00",
"AX c #0050BD",
"SX c #4D749E",
"DX c #CCC8CB",
"FX c #AEB1C7",
"GX c #0045A2",
"HX c #450E00",
"JX c #A14E02",
"KX c #B45916",
"LX c #0096EC",
"PX c #B68E54",
"IX c #542C1E",
"UX c #B5B7CC",
/* pixels */
"                                                                ",
"                                                                ",
"                                $                               ",
"                              fX6XfX                            ",
"                            1XeXBXeX1X                          ",
"                          $ fX3X4X3XkX                          ",
"                          $ 6X7Xz.3XCX$                         ",
"                          1XeXz.LX7X&X1X                        ",
"                          fXcXz.7X7X&XkX                        ",
"                          6X4X%Xz.7X4XeX                        ",
"                        $ eXz.%X%X7X3X4X1X                      ",
"                      $ NXBXz.%X%Xz.3Xz.NX                      ",
"                        kXcX5X%X%XLX4Xz.6X$                     ",
"                      $ 6XcX5X%X5Xz.4Xz.BX$                     ",
"                      1XCXcXAX5X5Xz.3Xz.&X1X                    ",
"                    $ NXCX4XAXAX5X5X3X&X&XkX                    ",
"                      VXaX&XGXGXGX&X&XaXSX6X                    ",
"                      VXFXFXaXSXSXaXDXFXaXUX                    ",
"                    $ L H P.XXlX .DXL 8.DX[                     ",
"                    s.8 4 F.!.>.pX#.- 4 #.R.'                   ",
"                    n.- f j.$X>. .#.- - # R.L                   ",
"                    4 - 9.V.P >. .= d.H 5.<.VX                  ",
"                $ 3 - 4 k .X>.&. .N n.- i.I.#.'                 ",
"                $ L 8 t E.e.>.&. .N n.8 4 T.T.3                 ",
"                  L - t > >X>.>.xXN 8 d.4 C.T.8.                ",
"                $ d.8 9.y :.P >. .N n.8 - 7.T.E                 ",
"                ' d.- 9.F.K m.>. ._.8 8 - ,.c.{ '               ",
"                < 8 - 9.'.@.D.c  .R.8 8 - ,.c.#.'               ",
"                L n.- 9.'.r.D.D. .R.8 8 - 9.c.'.L               ",
"              $ L 4 t ,.MXOXc &.a.<.n.d.- ,.c.W.B.              ",
"              $ L 4 t ,.<X&.%.c v.@Xn.d.- 9.c.c.C.              ",
"              s.L 4 t ,.tXc J yX+.@Xn.d.8 t c.c.#.$             ",
"              H d.- k C.jXyX%.&. .@X8 8 n.4 F.,XT.'             ",
"            $ L 8 4 k C.>X%.%.&.v.@X8 8 d.4 C.,X'.H             ",
"              L - i.k y pXJ f.c v.@Xn.8 H - ,.bX'.8.            ",
"            ' L - t k #.; G.f.yXiXmXn.8 d.- ,.bX'.E             ",
"            3 8.4 9.W '.P 1 J c OXt.8 d.- 4 u <X,X7.$           ",
"            L 4 4 t ,.'.P J G.yXOXt.8 8 - - ~ <X,X#.'           ",
"            8.4 4 t > MX>.G.J &.+.t.- 8 8 - R bX<XT.s.          ",
"          $ L - 4 9.,.L.hX1 J &.OXXX4 8 8 - R c.<XT.n.          ",
"          $ 8.- t 9.C.tXhX1 J &.OXl.4 8 d.- ] W.<X'.8.          ",
"        $ $ 8.4 t 9.C.].>.c J &.+.l.i.d.H 8 ] W.tXMXE           ",
"$         s.y.4 9.,.F.jXhX&.J c a.l.B.8 4 - t F.].<XC.$         ",
"'         < y.t 9.,.F.>Xf.G.J yXpXqXB.- 4 - 0 F.].tXW.$         ",
"'         L i.t 9.,.W.pXf.1 f.&.m.dXB.- 4 - t W.uXuXW.'         ",
"$         y.4 k ,.F.c.rXf.G.f.P OXqXE.4 4 - 0 F.uXuX,X<         ",
"      $   sXi.h.,.F.c.rXc c c /.pX..h t 4 - k W.].KXL.L s.$     ",
"      $ $ ~.B.W C.C.c.rXhX%.>.jXrXdXn t i.4 W W.uXJXA 8.gX$     ",
"        s.N I { F.W.,X;.zXc >.>XrXjXT.k i.4 E.,XKXJXA [ [ $     ",
"        P.5 #.K.I.V..XoXa.OXa.x./.t.J.B.E B.B.#.tXnX3.mXgX      ",
"        N *XB I._.@Xt.x.+.a.x.x.U.t._.=X7.E W #.V. X6.xXgX      ",
"        N *XB B I.<.t.a.OXlXa.x.U.l.<.7.E B.7.{ V.U.K  .gX$     ",
"      $ N 5 K.K.R.<.XX-.9X9Xx.x.U.l._.E E E 7.{ <.oX-. .5 $     ",
"      $ [ N K.N B _.XX+.9X9X .x.U.XX_.E E B.E { <.U.-. .5 $     ",
"      $ [ 5 B *X*X_.t.a.v.+. .x.U.XX_.E y.y.y.0X<.oX+.+.5 $     ",
"      ' [ *XB B R.<.XXa.v.v.a.x.l.XXR.E y.8.y.= <.l.a.v.N       ",
"      $ N B J.B I.<.qXa.9X+. .oXl.t.R.E P.y.y.{ <.l.-.v.[       ",
"      $ N K.I.B I.I.t.*.-. .a.l.l.t.R.7.P.E E #._.l.*.v.[ $     ",
"      $ N #.B J.B I.../.*.+.x.U.l.t.R.=X7.E 7.#.V.oX-.+.[ $     ",
"        *XK.J.J.I.I.../.*.-././.U.t.<.{ 7.7.7.K.}.>X9 +.[ $     ",
"        *XJ.B J._ V.M.^.^.6.*././.qX}.=X=X7.h { (.:.9 +.[       ",
"      $ N B J.w._ }.3.9 6.-.*.:./...L.# # I E.# ).j K +.[       ",
"      $ N B J.w.V..XM.2.6.;.;.*. X( L.# I I E.C.).j K lX[ $     ",
"      $ N B B w.}..XM.A -.9 *.-.3.( L.n # h E.y _ 4.K lX[ $     ",
"        N B B w.V.m ( 3.-.-.^.;.T M.m y # I E.1._ j @.v.[       ",
"      ' N K.B w.(.L.dXT r.K 6.:.*.M.).# # # h ! _ | s v.[       ",
"      H 5 =X{ V w.V.dX6.K K K 9 *.M.(.h # # h ! N.| s v.[       ",
"      L P.h I { w.|.k.-.@.r.P K -.3._ n # h I V N.A s +.[ '     ",
"    $ sXy.5.W K.! T.). X@.r.r.; K T M } K.{ B w.k.j ;.+.mX3     ",
"    L sX8.B.-X{ 1.#._ ..T @.r.K P 6.A .X).w.L.L.q ;.9 r.xXsX'   ",
"  s.E B.i.B.~ > 1.V _ k.oX6.K r.r.@.^.( C ).r ) G p.s K -.@X8.' ",
"  L E k i.h.U vX@ ! N...T 6.@.r.@.6.T M ).|.d ).r X p.6.@. .@XH ",
"' sXi.k h.k ~ 2 * ` PX*.K K P P 6.| m |.1.u > vXV d r p.@.&.iX<.",
"s.~.B.5.5.h % H.b =.9 P P P r.r.2.( w.z R U ] ] z 7 |.q s zXHXIX",
"3 5 7.> n 1.H.;X` +Xs K @.r.^.T A k.(.z R R U R z 2 |.S.s ; G.#X",
"3 5 =X7 V ! j.v $.u.^ Y.Y.2.A 3.3.k._ n ~ u u ~ % * d wXF ; J #X",
"3 5 =X* 7 1.+ Q m ) q 4.4.3.M.e.e..X_ n 5.W u -X2 * N.u.F ; f.#X",
"< 5 # y y V + b m C : A j 3...M.( m _ I k k W -X> * Q X.[.; c #X",
"< 5 # n 1.! + b m ) q A j A ( ( ..m _ E.k W 5.z u * d S.[.K J {.",
"< 5 # n * ! + b Y =.i j j j e.( M k._ -X5.E.k R u * d S.[.@.G.g ",
"3 5 # > * ! j.b g.X., j j A e...M k._ u h.W h.f ~ @ d S.Y.K %.g ",
"3 ~.# > y V + O.g.=., T 2.j e.( ( k._ -Xh.5.0 0 z @ Q S.s ; G.g ",
"3 P.# > > y * Z ` X q :.2.T e.e.e.k._ -Xh.k t 0 U 2 } wXs ; 1 {.",
"3 ~.I > u 1.H.j.g.x 4.^.2.T ( : e.M (.-X0 5.O O f % Q / q.; 1 #X",
"< = h I > 1.+ + } X . ^.9 >X.., : ) (.W t 5.O p O & b / q.; 1 {.",
"< = h I > n H.+ g.X q :.^.>XM , , M _ W i.k h.O a u b +Xq.P G.g ",
"< = h > y y * + g.X q 2.2. XM , , ) V.W i.k h.p a % O.+Xq.zXJ g ",
"< = h > 1.1.@ + d X.A 2.|  X..: : ) }.W t k p 0 a vXb / F zXJ g ",
"< = h > > n @ j.d ) q | 2. X..x x C }.W 4 t h.O U vX} / F P c {.",
"< = h n > n @ O.N.) 3.| 2. X..X X r }.W i.0 4 O a % } u.9 ; %.{.",
"< = I n > > 2 Z } X.3.j |  Xk., , r }.W h.t 0 O U ~ Q X.F ; f.g ",
"< = I > > n * O.} x i j T j k.e.M.k.V.W O O 0 p z vXO.].0.; f.g ",
"< ~.h > > y H.b } ) . | | | ( e....X(.5.0 p 0 p z 2 Z ].F ; f.g ",
"3 P.h > n y * b } X G T | A e.( ( r (.k 0 a p p a 2 b ].0.; f.Q.",
"s.P.h > 7 y @ O.d X.A | j | e...M.M _ 5.0 k p p a % Q ].0.; %.Q.",
"3 P.I I n n @ Z } x A j T :.( ( ..k.(.z 0 O O p a 2 b ].0.; c Q.",
"3 P.# > > n * j.` x q 4.;.4.( : M.k.d k t p O p U 2 O./ 0.; %.Q.",
"3 ~.# > u y * + ` M , o 2.4.X , : r N.a t a 0 O z @ b / F ; %.o.",
"3 = h > vXy * + g.) i ^ ^ ^ , , X r l z h.k p a z @ Q u.F ; %.1 ",
"s.= h > 2 y V H.g.x 4.^ p.p., q : r l u k k a O R 2 Q X.F ; c 1 ",
"3 ~.h > y n * H.} r i 4.o ^ X q , r l u t O a 0 ] 2 Q S.F ; c 1 ",
"3 ~.h > % y * + ` r q o o ^ M , : C ` ~ t O O 0 ] @ Q u.F ; %.1 ",
"3 = I > > y V j.} ) i ^ ^ o ) , X C l u t t 0 p U @ :X/ F K %.1 ",
"< = # n n y H.Z } u.i Y.9 9 =., x C l 7 t p p p U @ e / F K %.Q.",
"H 0X# @ 7 7 H.Z g.u.. 9 ^.Y.x : : r l & O a ] f 6 w v / 0.!.J g ",
"H 0X# % 7 V H.j.:XwX. ^ T 4.) X.X C N.~ O a ] R S w Q =.0.!.J g ",
"H = # & & 1.@ O.g.u.G j j | X.=.=.r N.z O a U f 6 2 v u.0.!.J g ",
"H = # % % 1.* + e wX/ j | G S.: x r N.~ O a R D ] 2 v / 0.!.J {.",
"H 0X# & & 2 * j.:X/ +X4.| p.X.: ( C N.z p p D f 6 w v / 0.$XJ {.",
"H 0X# 2 2 7 * O.e / o ^ A :.S.q , r ).u a a f ] f w v A.F m.J {.",
"H 5 # 7 @ 7 * b e / . 2.4.2.C X.: r ).~ O U R R f w Q / F $X1 {.",
"< 5 I * 7 7 w Z $.X . . o o M =., C l z O a a O 6 w ;X+XF P 1 o.",
"H 5 # 7 @ 7 w Z e X G . 4.. ) q X C ).~ 0 p O O 6 w Q A.q.; 1 Q.",
"< 5 # % 2 7 + j.v x i o o . X.q ) r l U O a O O 6 @ v / F P 1 o.",
"< = # 2 % 7 + b g.) G G j . =.x X C l z D a p O 6 & v / q.P G.o.",
"< = # 2 % 7 + Q e X.q G 4.G : X , C ).~ O a a a b.& v +Xq.; 1 o.",
"H = # V @ 7 w Z v =.G o o i =., x m l z 0 O p U 6 2 :XA.q.P 1 1 ",
"H 5 # @ 2 7 + O.g.: q o o G X q x m l ~ O p a a ] 2 $.A.F P 1 HX",
"< = # 7 7 7 + b Y X . o o A x X wXm l W O U ] D S 2 e G F m.1 2X",
"3 = # 2 7 7 + Z e x G G j 3.M X u.r l W p a ] D S 2 v nXq.m.G.2X",
"3 = I 2 2 % w + ` X , q 4.A M =./ C l k p a ] D S 2 Q nX0.m.J 2X",
"H ~.{ @ % % * j.e , q G p.A M X u.C l 5.0 a ] f 6 2 :XX.0.$XJ 2X",
"H = # 2 % 1.+ Z :Xx o o o j ..X u.r l W 0 a f f S 2 e =.0.$X1 2X",
"< = h 7 * % + j.` : G ^ :.T X.: u.C l 5.O a f D 6 2 e . q.$X1 ZX",
"< 5 I 2 @ V + b v : o :.T | x X : m l -X0 a R D 6 w e +X!.m.o.g ",
"< 5 # % @ 2 w ;XQ X j j oXG , ) , m l ~ a a f f 6 w $.. !.m.o.ZX",
"< = # & @ 1.+ O.e X 3.*.U.o , , X C ` & O U R 6 & w :X. !.m.Q.g ",
"H = # % & & w Z.e X 3.T oXo i X : M d ~ p z U ] b.Z.$.. q.>.1 ZX",
"3 = I @ % 2 2 ;X} X.A T x.o G x : M d u a ~ R ] 6 w e . F m.Q.g ",
"3 = # 2 @ @ w ;Xg.=.A *.*.o , : q C l u O U ] 6 S Z.e . F !.o.2X",
"< 5 # 2 @ 7 Z.Z.$.: j 9 *.o X q i M ` ~ O a ] S b.Z.e o !.m.1 2X",
"< = I 2 2 * 2 O.e o p.;.^ Y.X G i X Y u D R ] ] S w $.8X; D.o.1 ",
"< = # * @ * + j.$., o 9 9 s q q q x m ~ ] U ] 6 S w v A.; D.o.1 ",
"3 = # 2 @ + + v e i o s s 9 . G . C Y & ] ~ ] 6 & w v 8X$XP 1 Q.",
"3 = # 2 2 7 + b m : Y.s 9 p.i : . x N.u R u ] ] b.w v A.$X>.J Q.",
"3 5 # @ @ * + Q e X p.s s ^ i . . X.m u D U z 6 S Z.v [.q.&.1 g ",
"3 5 # @ @ @ w b e X . 9 s s i o i M Y u ] R R 6 S w v [.; D.o.g ",
"3 5 # @ * @ @ Z e q . Y.s @.q o i M ` u f R 6 6 S w v A.; D.1 g ",
"3 = # y V V + O.e i o s s s i . o x Y 7 U R f 6 S Z.v [.q.D.1 g ",
"< 5 # > y y + ;X$.: o s s 9 i i i M Y & f R R 6 S Z.v 8X@.c 1 g ",
"< N # y * ! b O.e o o 9 9 Y.. . q r Y u U ~ ] 6 2 Z.e [.; c 1 g ",
"< 5 # V V y b Q $.=.o 9 ;.9 . q i M r u ] z 6 6 2 w v A.; c o.g ",
"< N { y * ! Z Z $.i p.s ^ Y.i . o M r u U & ] ] & w v A.@.D.o.g ",
"< N { y > V + Z e : o 9 6.9 , . . x m & z ~ z 6 & w Z S.q.c o.g ",
"< 5 # * 2 ! + Z e : Y.9 s 9 : . i x m 7 u 2 6 b.2 Z ;X+X; c g #X",
"3 N # * V ! + b r q s ;.;.o . . 9 C m 7 & % & & & Z e [.m.%.o.#X",
"3 N { y * + + d m . 9 ;.6.s o . p.: r 7 6 b.S S b.+ $.F m.c o.g ",
"3 5 { y @ 7 + d ` i :.:.9 9 , . . : r * b.& S 6 & w $.8X; c o.g ",
"< 5 # V 2 @ + d Y i T ;.:.p., : o X C 2 6 & S S b.+ $.8X; &.1 #X",
"' 5 # y @ V Z d Y : o ;.:.. : : . x m 2 S S S b.& Z.e A.@.P 1 g ",
"3 = # 2 * V + Z Y C , A ;.G X , X r Y 2 b.& 6 6 b.w b +Xs ; J iX",
"  = { V ! ! d + ! w.w.w.w.l d m l d Y d ` } v e $.S.8X; D.c iXL ",
"  3 = { B V ! ! w.d d l d d ` Y ` ` } } b d d Q ` S.[.; &.iX<.s.",
"    = 5 #.! ! ! ! l d d l Y Y Y Y Y Y d w.d Q $.r :.; >.c xXL s."
};
