/* XPM */
static char *result[] = {
/* columns rows colors chars-per-pixel */
"128 128 18 1 ",
"  c #C5AD5E",
". c #7A6419",
"X c #251508",
"o c #170A02",
"O c #A68E34",
"+ c #907B28",
"@ c #604D0B",
"# c black",
"$ c #423301",
"% c #BCA140",
"& c #32210E",
"* c #41311C",
"= c #877341",
"- c #BCA65C",
"; c #AD9856",
": c #57452D",
"> c #9B864D",
", c #6B5A3B",
/* pixels */
"################################################################################################################################",
"#                                                                                                                              #",
"#                                                                                                                              #",
"#                                                                                                                              #",
"#                                                                                                                              #",
"#                                                                                                                              #",
"#                                                                                                                              #",
"#                                                                                                                              #",
"#                                                                                                                              #",
"#                                                                                                                              #",
"#                                                                                                                              #",
"#                                                                                                                              #",
"#                                                                                                                              #",
"#                                                                                                                              #",
"#                                                                                                                              #",
"#                                                                                                                              #",
"#                                                                                                                              #",
"#                                                                                                                              #",
"#                                                                                                                              #",
"#                                                                                                                              #",
"#                                                                                                                              #",
"#                                                                                                                              #",
"#                                                                                                                              #",
"#                                                                                                                              #",
"#                                                                                                                              #",
"#                                                                                                                              #",
"#                                                                                                                              #",
"#                                                                                                                              #",
"#                                                                                                                              #",
"#                                                                                                                              #",
"################################################################################################################################",
"#$$$$$$$$$$$$$$$$$$$$$$$$$$$$$#$$$$$$$$$$$$$$$$$$$$$$$$$$$$$$$$$$$$$$$$$$$$$$$$$$$$$$$$$$$$$$$$$$#$$$$$$$$$$$$$$$$$$$$$$$$$$$$$#",
"#$$$$$$$$$$$$$$$$$$$$$$$$$$$$$#$$$$$$$$$$$$$$$$$$$$$$$$$$$$$$$$$$$$$$$$$$$$$$$$$$$$$$$$$$$$$$$$$$#$$$$$$$$$$$$$$$$$$$$$$$$$$$$$#",
"#@@@@@@@@@@@@@@@@@@@@@@@@@@@@@#$$$$$$$$$$$$$$$$$$$$$$$$$$$$$$$$$$$$$$$$$$$$$$$$$$$$$$$$$$$$$$$$$$#@@@@@@@@@@@@@@@@@@@@@@@@@@@@@#",
"#.............................#$$$$$$$$$$$$$$$$$$$$$$$$$$$$$$$$$$$$$$$$$$$$$$$$$$$$$$$$$$$$$$$$$$#.............................#",
"#+++++++++++++++++++++++++++++#$$$$$$$$$$$$$$$$$$$$$$$$$$$$$$$$$$$$$$$$$$$$$$$$$$$$$$$$$$$$$$$$$$#+++++++++++++++++++++++++++++#",
"#OOOOOOOOOOOOOOOOOOOOOOOOOOOOO#$$$$$$$$$$$$$$$$$$$$$$$$$$$$$$$$$$$$$$$$$$$$$$$$$$$$$$$$$$$$$$$$$$#OOOOOOOOOOOOOOOOOOOOOOOOOOOOO#",
"#%%%%%%%%%%%%%%%%%%%%%%%%%%%%%#$$$$$$$$$$$$$$$$$$$$$$$$$$$$$$$$$$$$$$$$$$$$$$$$$$$$$$$$$$$$$$$$$$#%%%%%%%%%%%%%%%%%%%%%%%%%%%%%#",
"#                             #$$$$$$$$$$$$$$$$$$$$$$$$$$$$$$$$$$$$$$$$$$$$$$$$$$$$$$$$$$$$$$$$$$#                             #",
"#                             #@@@@@@@@@@@@@@@@@@@@@@@@@@@@@@@@@@@@@@@@@@@@@@@@@@@@@@@@@@@@@@@@@@#                             #",
"#                             #..................................................................#                             #",
"#                             #++++++++++++++++++++++++++++++++++++++++++++++++++++++++++++++++++#                             #",
"#                             #OOOOOOOOOOOOOOOOOOOOOOOOOOOOOOOOOOOOOOOOOOOOOOOOOOOOOOOOOOOOOOOOOO#                             #",
"#                             #%%%%%%%%%%%%%%%%%%%%%%%%%%%%%%%%%%%%%%%%%%%%%%%%%%%%%%%%%%%%%%%%%%#                             #",
"#                             #                                                                  #                             #",
"#                             #                                                                  #                             #",
"#                             #                                  * &                             #                             #",
"#                             #                                 ;: :-                            #                             #",
"#                             #                                 ,, *,                            #                             #",
"#                             #                                ;&= :o>                           #                             #",
"#                             #                                :X= ,XX                           #                             #",
"#                             #                                :*==>:X-                          #                             #",
"#                             #                                &:== *:                           #                             #",
"#                             #                                X& : XX                           #                             #",
"#                             #                                #o>& o*;                          #                             #",
"#                             #                                ###&#*X                           #                             #",
"#                             #                                XX#&*&*                           #                             #",
"#                             #                                =#o,#o=                           #                             #",
"#                             #                             -,,X#X:##*=>                         #                             #",
"#                             #                              --Xo#*&, :*                         #                             #",
"#                             #                               ;#-#*o                             #                             #",
"#                             #                              ;oo ##X                             #                             #",
"#                             #                             ;XXX=oX*,                            #                             #",
"#                             #                             &*oX X&o                             #                             #",
"#                             #                           ;XX&oX &*#-                            #                             #",
"#                             #                          -&X*:oX:*Xo-                            #                             #",
"#                             #                         ;XXoooX& =##                             #                             #",
"#                             #                         X& *&oX&-*&X>                            #                             #",
"#                             #                       =X, *X-XXX >XX                             #                             #",
"#                             #                           Xo;oXX,XX#                             #                             #",
"#                             #                           X->*&o ,o&;                            #                             #",
"#                             #                           # ;:X* =*&                             #                             #",
"#                             #                           ;  -&= =X#                             #                             #",
"#                             #                               *; =o&                             #                             #",
"#                             #                               >  -&&                             #                             #",
"#                             #                                   X,                             #                             #",
"#                             #                                   *;                             #                             #",
"#                             #                                   X;                             #                             #",
"#                             #                                   X                              #                             #",
"#                             #                                   o                              #                             #",
"#                             #                                   *                              #                             #",
"#                             #                                   #                              #                             #",
"#                             #                                  -#                              #                             #",
"#                             #                                   &                              #                             #",
"#                             #                                   X                              #                             #",
"#                             #                                   &                              #                             #",
"#                             #                                   &                              #                             #",
"#                             #                                   &                              #                             #",
"#                             #                                   *                              #                             #",
"#                             #                                   #                              #                             #",
"#                             #                                   X                              #                             #",
"#                             #                                   &                              #                             #",
"#                             #                                   &                              #                             #",
"#                             #                                   &                              #                             #",
"#                             #                                  ;&                              #                             #",
"#                             #                                  >X                              #                             #",
"#                             #                                  =*                              #                             #",
"#                             #                                  =>                              #                             #",
"#                             #                                  *>                              #                             #",
"#                             #                                  X>                              #                             #",
"#                             #                                  o-                              #                             #",
"#                             #                                  o                               #                             #",
"#                             #                                  o                               #                             #",
"#                             #                                  o                               #                             #",
"#                             #                                  #                               #                             #",
"#                             #                                  X                               #                             #",
"#                             #                                  o                               #                             #",
"#                             #                                  o-                              #                             #",
"#                             #                                  o>                              #                             #",
"#                             #                                  *=                              #                             #",
"#                             #                                  =,                              #                             #",
"#                             #                                  =,                              #                             #",
"#                             #                                  =:                              #                             #",
"#                             #                                  >*                              #                             #",
"#                             #                                  ;&                              #                             #",
"#                             #                                  -o                              #                             #",
"#                             #                                  -X                              #                             #",
"#                             #                                  -X                              #                             #",
"#                             #                                  ;&                              #                             #",
"#                             #                                  =o                              #                             #",
"#                             #                                  oo&                             #                             #",
"#                             #                                 =#oX;                            #                             #",
"#                             #                                  >:                              #                             #",
"#                             #                                                                  #                             #",
"#                             #                                                                  #                             #",
"#                             #                                                                  #                             #",
"#                             #                                                                  #                             #",
"################################################################################################################################"
};
