/* XPM */
static char *result[] = {
/* columns rows colors chars-per-pixel */
"128 128 65 1 ",
"  c #367232",
". c #2B6A28",
"X c #235F1F",
"o c #31692C",
"O c #1A4F18",
"+ c #195313",
"@ c #326D2E",
"# c #286025",
"$ c #134911",
"% c #1B5419",
"& c #3A7936",
"* c #134F11",
"= c #3F793C",
"- c #1F541D",
"; c #286724",
": c #32732E",
"> c #357733",
", c #246421",
"< c #3C7537",
"1 c #366C33",
"2 c #30632D",
"3 c #2B6328",
"4 c #215B1D",
"5 c #194B14",
"6 c #134211",
"7 c #336831",
"8 c #286323",
"9 c #2E6729",
"0 c #427E3F",
"q c #235B21",
"w c #0A4408",
"e c #0E4C0A",
"r c #1C5C19",
"t c #1F501B",
"y c #2D602A",
"u c #073805",
"i c #0B3E08",
"p c #043103",
"a c #23551F",
"s c #1E5F1B",
"d c #10420B",
"f c #265524",
"g c #275C24",
"h c #3E7E3A",
"j c #103B0F",
"k c #1D4A1B",
"l c #043E03",
"z c #135410",
"x c #0B3309",
"c c #194416",
"v c #2B5C28",
"b c #43833F",
"n c #4D8849",
"m c #032902",
"M c #478743",
"N c #224F20",
"B c #2D6E29",
"V c #20631D",
"C c #508D4D",
"Z c #3D6F39",
"A c #195A13",
"S c #488144",
"D c #011F00",
"F c #569453",
"G c #65A261",
/* pixels */
"CDDjN#.1vwedcc*agg#371>=SnZhn=;@>hh0.g$O7hS&&M=#mi6kv=0nv;y;@12=0nhCFGG#8w6+k77::zpudc$qqM54#o:Zbbh&hpz*O%Nsg@SV33%29>bn&>0<1Sn&",
"=DD$55VX2$yidcggXv327123  B8..B@h0B:#Nc@ n>&CoXimm$-4a3:3gy##83:<9 CFh8,<t$-.1><@$d-y >gvSnnrXBbnC0@%6k%t42. 0&=q<<bb= 0boo@ =&=",
"sDedkt4#y;5Oq#;#a81*kN%qg,3;qXXo&,.B@ha770MM>6mj6-**Ng2,%4aq;yg@a*t,:Zh,:=OO.@<:O6$tg.Z< h0f,.9hFFG5xd$c*%7=@>>8@ o  =h2=b&3;o@@",
"&D6c$-aq##: g83@#X8a37Oq$O5VXX2oXO3.;g97bMh0M7Dx6OANq3.,q#v@2qO*kOX,@&.33@@&fy;1w6ON27=go721V&nFGN5uj6de*%#270g8,3S8;21 <&<9.&;8",
">x$c$t..agNX,2@<fNOfa2dc4q=-rqsq99#&hM0 332k.mpuxiuujd$+dzrcO#@@@7293;b&B1V:s@o :5v.,*6$kkfg77 ,3>:MFF$6--g= gf3&q1$%4VXB@>>9#.o",
"hlx5O+86k*fXX; 7dfue<5Nv&=z%-**r-fgyoo>:h<@4V.z43pmpliAss23>@:23@&&02.agX#;v7o 37746$ty22jXqo2:0nMCxi0+g@7Z=nni$-4q5Xg>G@ +zXM b",
"Cuuxid6**ke*O4;8;fee*$+kOt1Z9r448=<s%X#;2@<>0 <O%:0BX#%A. >o#321q;y3>..-raag#3999n-=u6v13wa.9:&SMMMC:h=43921<0nie5%4%s8SCGG <0bC",
"<XBiVppuccf,.#oiie*z+O+AAX9221ZsVr+%r;;o>ho7@&>@>=nXX,2:n>&Xvgg#+%4,392rsa4fgv#3S&>x$-ga3&s@o:<&00bM0nMC$*kCg27==<$O-#.0bFCzB=&h",
"v+@=,mg8.qMN2xxiw$$c%X2y&r327$zz$5+%,X,..B7:&0to:=nM8k::>0SqfXf-83g#0%+qt-q,v1 Z<uudjt%rq4CFX;2B :=&h=0SbnnCaZS=0icv=0FStsV#B >0",
";6zo=od*tV;,&,3;..:=hn=<o3h0lez+%%-Vaf,,;y;..o@ <<0<<BB@ =8f#iij664X##10b%-7y9N;7bnOOXg#;;CC:: &0n=0C.&$c0SZ11&<05%f137@ =9foo 0",
"<pu.&>$VgV,B ><&&SSZh>>&<8e1>z+NAV%489.717=v>V;<<&3;%g2%-=sz%w+4X#  MxdOrv@@@@0n3OkX#,810MCh;;:> >=CbBBf42So@ 1< 7 ;1>Z3: %N329h",
">%&7esV3#@1h7@>&S>;2@0q#71 uie;Ve%g.o:g,>@2ooXy3>C@ sj$-;o1a-$+ogrv1SS$+-v#3=h&M#qgo>==0=0r,;;B &F,#8y.11>Z=#y <02B@:h0=2ok91=3-",
"Xjw3@kA-q,:XV#;9o>@:S8y37o<.:.. <h .ZVX,v:<9X#:>bnZ.+$%tt4nre7ezO-2a1S=%Naqy-fo4qso>bM<&8<@hr8.Z=0-v.,>o0C:10=ayy7  n<X8ogh543<=",
"5py9zuieA-sX2@ 99S-Xy3B:Or-1qXX.2o0&Z7s#3o@swA=ZF3.@>>+++SN$6$$*Z5Otr811 <b5a*->n<3sv#&&y@@=+NX7hM*5O%rh;o <&0Z>rXqo20@q,;:<&= $",
"umpw#gped6+k-,-4V3g;0e3gygaB$d%-X32.7&.973@%r#829o.n@hu,3keliw6z%@d$O+g##27S5O%1 bS <&&5O#>41>*43<<d##:.@h&<0>6*%-ro & a8,.<< &4",
"Appqfxw6z-3Xgv ,9 w581gc6k%34XvoB:k3#N%##rO+,#@y.:7@::+4ssz+V9=ajide66c#o10$ca+q9h8Z=0h c%@ >8=O@ 9%Or,o:2 <@oM@k4#:<&b: 8309B@C",
";pj+%xw%t%%%g@##7 hbq7767*+ec5kq,#27AV,%%$O%fg9X28;.oB h;&=fa;10<icvv7=jwd$cOzt4=%,o001==S :2=qgbg8<M238B>:Voo= z-,8o1:&h:o;7nh@",
"Cj-fmiiiw*kO+ANVg&2;&&&&f7f16#9&8-,+qqiiiije$d5qqVg;,B:8.9o#g71 ZnnZ<0<<$ed*%X#7@:F>=h=21&549.<3201..:.MB%q.2 Mdc13;. hAa#;=80MC",
"C00jmmllzO5.gqk*+O4N,8o@@ 10XX3 >MAs6puipuwed6k%k%%4q.#8yB788@nn1qf11<=C# f8;@: =MCZ==b@fd$+4%ro0>&43:>>hOa3::hOr8 3<<8@a*#8@0nG",
"<pxg<=.lxcX248c%%4Vg# ,27-#0 -hsw+rAs++8DxudjddcOOO%X.Vgg;.2,ggv7Z<2:Z< C7vvo7<FZZ1&<: o#r5%Aa3 &o::>;>6%tsg3;.79o> <hnn9dX3197n",
"Gxs Z<re-0ai66*kOt.a-.3g279=hSz$z*>z.+OXGxuxui6wcc5kt@10-qsfX#,#aVXfy&o<0F-.Ok+on29<2@:hS91*4g;3 ;@ b@@ d6AAt=gyy2o&Mn: 2.a8,32 ",
"Gmxxiwd6dA@1 , t-fX;dcc$OzOaq8#8o 9&Mo-><z%gX.kFCOA#30h,%qV@+*zNy=&.0bFarrde*+Na3<9Z2@F&# :-fX#;;:>bSb>9u6+-Xg<8o@@0C:;,3OAqX8X=",
"Gmm6tg1zx$OO%%rV,r3;91#--sg3Z<=<bnV *OO%%XfMnFy7C< kzr,2ixwtX#:b=hCC$wOOxl<d$5cXy ZvoMCB>7OkqV,vB1 <0b;=c#5Naf#83b=#y;9Bod*tqr9n",
"Gxw57@ii5e$ct$rX;: 0>v5tt#sXfhb=0&Fs7: zzsCF01f2&C1@5OyNg >hr9&nCnC$e**kr10C2of<#f;o hS>#kwijcc%,#ob,oh<9,8 +%NaX&=agy;.gi*AtvyF",
"G32iiiduiuu6ee6z-fs#> =q&SV>&b3@ 1CFr10#o0bF3t;@hbSV>iefsg; h.>.>h0nbc6z7nF1Bza3fVg>8;:<hMMji$*aV:=0#39 1X.ry55Oao7&qSq2Xx5%-qnC",
"Fjddvy37$liw6$aX,;=::=e*%4v:0h97@<Fnh=N1bn=g8o =nqs16$X*Ot##.@oo0h=05*1<Fyo<jOkf1X8S<Cs4=mx6r,==9;aVs8:BXgqv$-Xg2##oS=8$xu6a4FnC",
"Fpud+21o28iwddk+s;o=:0*-;2o1 >=nC7$O:=O#;32&7@B&0N4#7e$*%r:,V;.ooh@7o>>>=Czvo1ry@.g:&C$luO%-X7931 >1.Xs9qg;j6jyr*O4q 0SXjeAF$1bM",
"CulOyBhyzxui*Cgz;8ocxw5-33.@<11&CM6*OO*k3@a;:z8yO-sf: <=Vf2oVo1.. v3.><3BV:C7X*-Nf7h0>buiezXgCC7o<2ay.1$*qX#w6+%yr-g9=0=pO M6:0n",
"hDlwv&>-;lwj$$N#ZC0g6era##9  =ZMn2c*c8o*%%-sX+OVB<<<q22;N4q8;n.B0o87fso>5g*$*391&0>&=Mppd6ctq<#vnn7-8vy9z5t-taqAXg,#22&=0.:nhC0S",
"=udec54 09y311 <nqvmi6rsf:>vy&7bnn6$$gc+zOOANraf48327:>Atq@bMB<V,.q#-X;aeOc5O##:>=&hMM61+2b<ka4g#8AV*%&%7q$jtXggv7 <><+rg,:><bhn",
"<5;hBN#uwi  =Sfq$N%Aa=hag;::=hMC>i6ae$+zkq9qar97@OOOXv-AN;=00M,; fvO+qfwdedkl6*k+-f88331:>0&0bhb@Orf4ec+t-y>+a4,#2277&1&A21 :>h<",
",i65g1v37%Xvo1=06$$O nt3:bS-:>0bnluwwe8ew6++# -.o7$z*k5OV%kav=Mo=v7f#vraid6du6*cO-f21:&n<h&aXX8=*.oO%$+>=01X, t-XX8;;;77q;B@ hX,",
"5plucaafqv##q21-s$ww657=5=:&SzB: MF:>=OkOS#<X-g9.i+Ayxje66k-21  S&#k%<#swjwdj$$5O,3.Z<b12$5k&z4@1.a$$5+a;bM02qg8y;0.3o4r4a8ohv9X",
"3mpk5Oay2M-N-43 2uldd2#*-S:  .&bM,3B@<X;0#1%A4a,:+6O5O<%V#3=S@X,:@j6$os.+iilwiddOVgg8B@@:=-7@dc5%4V138+ta4 =00.aX,Z 8&M*t-v8y. y",
"@m65O+NqvS+q3N-vpuuidccOc+-v 0n;&Mo4#88.>@ 0CC%%X@=wwr8Z==n1&ba.Bf31 *X 8Bpl5w*O%%--ag3.:=<;s@&##>Z AX9 &0M179@t7nCCCFdOag#.#2tw",
"9jd$kO-<X++tAtfmmS6c w5Aghnb4#.@&#3>>=bCFGO-;:  pxu%rf0#Z>V.hh: raBo-:,Bnpie66r4&ago>;OV8<,#;3  c%c+Oa3:#.B=bg<n=bMnnu5qX;#3Nf5l",
".ppjjdc+k-4y*4,%%pj6O=*+As:g;>hCor33o>&MnnFFO81>@e+%=g7.o1&; #c422#o*hX9Mlwjee*tf2Z0@g+e$XfX, &=2rOie*+-vo:@=vk%%4B00=&MhOOX.Xdl",
",plxdcrkt O5gZluicO+6<65A#B>M&hso%O%vvo0=F1nFZ$-fg  =>;;y9o@B:; *k3@1#;@.;0Swcwjw+%baX2@:0e5%2o:1rrV2wz2X#h t+l6+8;&=>0h.$Og;X34",
"5puuise$55t4Cgok1$-=j%4,;3 <MCw+z--2h1==F1Zplpe+r4#7@  <n@;#.:8f.@.@>>%2>%:><0lj5>%%4fv2Bb17@+$*+Af8w+rrf,1tcuidw$+-49.149:&7XX8",
"Xmpm6z@<0C$ayw5r2f*1Zmd8V::&Mn+wdew-a7oZ<SFG4Xg;@rq:n@4,,3.#Oro8y;o &..;9& d xu ez.3bV@5<=.$zAzX ejid+ONks4qp*s8C4;;3B wirsqecO%",
"6pplwiwii5kAO-o<bnnff8o314 Z*OVbbS8:re6*c5-#277nFG333X#@hB4q4s;9A-vq#y :>M;9:#=,@<nogr.<&MdyCM<0Muuw$+$t4#5mie%-X;3C#;3:.;y1$z+4",
"$pppiwrV;>ZbSM-f221<SZ=MS5%Aa3B@&bbbwe6t%qg#2 MG3#qX9.@&sV-X,e$+t-482BhbOAVy:;;o01Z<=&b897:Mz#nn1<hl$jdka$5ua-q#0 #X#..B7Z1&u,4e",
"ippudzzOzAs>V,8&=Ss1hCC211S=0gy>&hM.8h++-a31ZF3g4qs4gv @s,#3wx*oOg:OqX,83;>ho8g7=0&nb:A%q;; =hnhMo9owe$lw6Ot*t%q1>nV;.B71Z=;.B M",
"pm6$$eBzzO10&Fzzz+y9<nC0Z1>Z#g;>>bbAF9O4fB<Cg74z-sfg.9g*,;$$5zO;94O-rqv,B::+2&h0=b8Og4V#9>00M&#X#M6dwuiwAd**%%rfXV2@n1&1@ 02.90s",
"bxuwdee*52#.7=C*q#3bhy@1Z7 >Z@:.<7e*$hFe; n+<SrXe65+A4r2 -zr, qezO-+g;7q;;gt*A4sXZy :< g..#; 000MCG3wjuuxdrrs9>00@f.X83Byoa;;:>4",
"bpllxiere*afX8hn4,.&3,#9o77B7 ;:;7eeee3oCF 0%%89Mle6$ekz*tg.z*c*5O%,,3kNfV9;@%tX3<  @ >%.z-Vg =hnFs>t,xx-AieO%#3>0&o2Ag,;qXOs ::",
"hpxl6A+sv1&hXov,@7<S=7v8317o283.<+iiid$z8#hnFbB3103d$$r2f-;B4X*5t86$$5-q;3Bo,;33@@;5>%3e*Oa:=>&MMs,-Xxxlj$Nrg7>1h=t%%q,3.,g;.;;r",
"&u%-4V1=.1<&qX#883@7102.B@1@B::=uww+@hSn=Xgv99<gZ-te$-v3Xrkiie$%add$  ;2$**+@8r#2oa#yrg8v.o7&: &=Stuxx***+A%kO4v;2&M7=&Xau6X;#oo",
":ppuc%3:=3 1 *O+;332&9y=2.294,,y >%4 ==0b%+a@ f12xzOi$cc%AfX6#Ofd$+f;=-g9jqr;7ocdA-49w+X2B&9@  SF=-duul$5z+rrX%g8>hMZZ:>r*dXV8yM",
"BDl*cf &v :=O+t4gqv1Sfg87 .>**:1gwjwwd;<=0hr%a&.:Za@fieec2c5O+rs6%f5hb3-.3tii6$$-r89=2O;kOA#X89oB n@CX7Ae**ss4 1Z==04g;,O6d4;#s3",
"Fxi+N&A5@@=$*ckO*aa3=okq1<,BO8#:@xj*c,ZB &=&-.Borfiid$$csf*z.t66$6$$ckO&=M=a %t#2 .>-a;v224v;nq,b 6D6ks&C.+e+tf&B1>==-qV#,;+s,,V",
"npuid$6cA:#:.$$5+-gX8:-;.XX,,y39B=je%-41#7&;9V4.,j6w$OOa8v6wc7ddw6$555t% =0 <&3+@oyX;ot+r92sb%A%@$+oj*.o&M$j5zr=9@@<=:1++;4#ssq-",
"qppxij6e;eta3>r*%N42-4Xv sqXX#Cr9 &X:%rX,=19h0aX#,7t%3Xsa$6eONulwec5%+7=7&g>qOd6O3o=t2,-.@N;6*A%4ez$fg3<= r4$55-v=2o7.10z%+XB;r4",
"Vxuxi6+kOa8b%*A3:aw$+%ar:<a4XnA-39 <.q0 o7hdrg*+fwc5+q@:Ow$kxeev13.h-fX*chui$k4>.gwe5z-gy.kt*+a$wlw$ .OONa2@&*X>yo772&t*A,>ho430",
"cpp$z>&q2b$6-Nf, NfVy< s@5+rV;hM<8iwd%ro1gB&#w6k$k4fv:hddd*ftpllwjidd$-#=0bv%9b5. $tw*65*f#yFO%1-rwecc7s$*+2 <+%322 9o.X$+r;9:@&",
">Dliid%sa3&=0*kONr;:oqy X*oso-=0Mr>Zqwdd65t%#91@O+e7Z0@-a.&M%pxxd+%4>>&y2wi691 <#$uulw$*N#CF7t+%tld66d+t5O,X32 ;@1.3>2.a$erfX.92",
":mui6d*,@><5O:cO%s9o,#<#d*s,,3->MM%1b%%X; .7ezd$kO-32<MN+f1M&5*O+g#o Z&hu8pu-g#o=*$d$$O9CC$zyO4o$*%%9:4-g 8y32.BohV0a<isf;,89BBV",
"lw6;B8:-lje<$+aq2&>M;r%X,B10StX&ehmu6$eeO+qy;9.>%+gg8y1=C3.@S7>Ng13@ ho,uOv2$Oqv9mxeeee55.nnzO%y.9q%y:5Ozay@V#3oqX770bM0 =XV8b2r",
"&iis382d$ *20b#ttdzg*O+%OsX;;@==;:pilw+g9@01d66&c4g#.o=0Sn.@bn-8.ZZy5OV#we-qfgv33vX9$6s.=>e$Nz,3.o-5kas#y.@n39%ss4V#v21&bM= ==,V",
"&xc+Aa#pwwjO4oVv9&<j$r*+B-g>&<&<q;2wj*kraX120.8>Fhg 1Z00tZ4XoSNAf@17dOzttfVybv<afsqV:<=<&d4dd$#qyod*OkN;21<0;7<-r.20b7-8=sqg;&;3",
"V*+A6c1plijiw$#gyo2o &hto$dz5ssg2;:0ZZMZ3@ns;@@>bCC*f#3212,A88be$c*+O-2:<tv9Z0C3#5j8y3o7&:jddq*orze*aq,3 =Zt,#@O-ag>hh,3ta3XaVtr",
"suede6O3-r4h91#oO1Z-=mpux4a;B7 >0 M4<b977.oo:Mnnd*#Xo9.-.5q#hpp6$$Ot77<N2;7&ZMAq$Okv. b;1ilwdj*Ov.zA37B7ZeO-#o5+zNat&=&-q984gskt",
">mudec++a+7>>8oX2 =d*:pm--7Xg3;39=h@n%a39 99h00pd65f#3tg@Zz%.o6e32Zc64SnSZZsON%4f7&&0=V1wpmw6*a#8e:rv7 Z0j*cg7-$*-q@M1;f44qgvN32",
" uerdwd5ff83.>o<v6id;ujj%-%a1#X; 092Z7M ,<#>>C&0= rXqr,# 5=8mj66Ot#B a30n:&72kA483 >&bC=lmxw$fXr7g#;B1 hbj$$XvoOOtf87@MA-4X339q2",
",pjjwAiwdecs#9@h,332g:ic+stN-r0#7BsX&y2-X@73oF.>0   +k+NXg $Zfy++%aq87.Bo:1<SZ@1%,X8X   <bM--aV@qijw5OaX,#9:012goO%#9;7COfs#%X--",
"2ppdzxii$2@&32< 1w5%y;B4g@<hA%8X-fs1#g.-qX;.7:&C1h:d$* kycjt#q<.$$kzX3 2.77b1b Nssv,XV;B@<hM=3%tf34.3Bo  Vy.0ff#*NX0baqa-q4aal+f",
"3pxuiui$Oq.vXv3@;,e6c*%#y48@<===AsXf7fNs;9o:&9nhCo@=21@t <gvfgSi$*ckk5s;@83o=11Z2NAf: hh0hb0o#2+*N3SNg3..@0Xoyzffy.=&SaN-4a- sO4",
"&uujid*+f3sVo-rfggg&X;0g>0>*r%+rf=c**+#..@<r#,831=0n=B9:2tX >>sfs48;.S9B97&1ny+A@ >Sb=hM3Nafe$OOa-73013@C00fvbsaqo;q8=*z+O Ma %,",
"Cmxjw-V2&9*5z+Ot-a g @14#&& **% 0jje*zztN;;b&-r@3 =Mo#v; @y.91Z<=-B>XqX83oh7;Scztfggy1>&7:@=M#NnF,3-48MM@&X08y7.4<&=Oi65kqa,o0.@",
"n6Dxwd$<NNX3 *.%zzkaX-8:1&0 ,e***+9o:+O%t%-s4&&>88=h1#;9Sn#.971Xbrq,>ZofX.. 1%f8baafq.1oo:>@<  aqynF#8v9=C@&=MS3y@@2N++c4v#yM;yi",
"0=Dpxj6c@*54,0#*$A;5q=F5r82Vse#o@+Ndde6*58.&:%NfVX9<0s#SSaXyy;Z#0FcA4a##BV,.7%qq78;@=1.y ;:F--42Z=%$tN#,h:.o&=bs1<#qgg@$$r%g#yb$",
"FiwdcO<r = 2e6e$fz$$+a#;Mb*r.3V8g,$c$$*%Vy8;z4kt3&ay41<%taX;y3<&ng$zaXrf,,y.:&:hoOtsV1>vq.C;*%10 +ct-s39 sXyy2.<=<t4aXO36-rr#oqu",
"GlwtZ<n<y.9de$kade*ttq8;<&bS.rrrXxjdde$5%X,3s,y$+kt2-v2AgX#73<0F-rOV;9:>>=$$*O329Af2Bq%A,.bC++-aS3%o;;*ktt8871<83N;&4gNyy-v@1#62",
"FuiejOn&1=rX4xjd$%-sX@bF&n,+%r3u6dN$6$-s##id6e5cfqkOXOtt%4q#BvhF- ***rv3.: @kz@%a34dd6*k;8hF.%Oh#; 3hcOtr88f7-8,>%qccXv1*NVo31fv",
"=pxuN10@Ze*-jxxxOOO8&F&b 4ce+X5ujde6N76$ctVrr5%-5i*caV>vf7 0N1wO-sv1.ogAl$e$svgo$*lwdsX; &n$$5+B1o%f&V*k-gr%tNgX:A-cOt-g#1gb-Zaq",
"yupe527=2k%ipxpuwie*kkz.>MZfgae5Oxt3dOzaAdpwwidw*ONe*z;t%tfgSs91=3ON,4#BXlwwcNv7=dwe66%r-8onrs4X@1=.X#65+aAt41+.hO9*%Ng#77910X,o",
"+mplllwet8;yyy6zOsA%:1h0=5$wezdxeck&zgNpplw6wd%3$e+;.zO% C7a 1;v%ckNB<f$:d6ty1&iCjplw6e*+N9%=%aXvv@MXxzA6%O-@ a>&S6$tf#X2@71M1q;",
"Oxwwavgyqvnww$66$czOs21.71b0Oewk%9 e1ad**2ppulw6OO*rV#yragy@oCo@>@Xxxkco1rw,3;14==nie,*O3Or$+++-r,hsXld+%r <<k=0:>j-s443#g2qSq,#",
"9pucf89obMl6-ag&n1%-4v8yMn99-wluxc#v&f62<cf=Sij6$,:@*%21N@&66c2.Sn%l66N%##rfoV@7&=ud dta,; w$$zXX,s*zV$$kO#@1 hOBZ=. .2t-%g3Zfgr",
"Xpmpucqaf1hCxw. <0z4Xq7=S#vqa##3xxdckvtb4a1<=00w*a;;>7Vfy77eOg.>ZMhil-37 dkr,obZX>pldO.>-B,w6$c+-q#-.3obB7h&@6$Os:&1kO% ;2-k%@OA",
"qDlui$e$$5tqN5gC=M 3=%+%%NNt4f7><0t--aa4vf:7<793=aV;.fX#nx5Z,=0&=upuxd$c*NV27==cv7 y.w$+Oaq=B@:q*e>deNB:h0b>7$ecz%2o<-X;;<tOv555",
"+mijdjt;j$*z$-a80bnv@;OOt1%-o: Zq#qv:ko1@gt =q*%V;.5f#Mxxj28<&<Cu66-tfo:7Otq><#y08+4pl6e%8& 3;@+4o$3Mk;<&=#20$$t,8;2o 755da$iw$$",
"cxu+xdO@=00%O#B;42;BZ&ij48uuu$wOsXVy&#v2%37<<*83sxOr,bkm4,8 =Muxjii6tytcOt.o:o@:@4sq1h B7>&h;>$O-9c6c5;h-f@:&1&b6$;;2B Vs;2*%xi*",
"3ui$$+X.&>Z%kqrXO.><<mDu64#pursqlN;>1t+*ra,3111huuidw6NtXV&gt,>g1S6OfX28.@ 3o*wjdw6$e%Z<@>bZZ:b1B;=%$N3#... 1=0crt8y3o3 >S 5uxit",
"&Dmmpx*jk-q <,4atr*Oi*@1<<tafumml++s.n1N$*w3o71&%atuxwe54X <Oy%%a&a4q=Z=ggb2gg9S$*Xy;2:>nh;:&&#h>$c$*N<h32 076jeck+ra3qAg<.o >x@",
"App$$Ok%%N42.3%+**$ttN. :Z7Dpmudd6*n99%ec*-=0o:*spl$5OAf49B2:+q7 Z4=C85%OXv&6dqfg&,,9. <:&: y lxulxdOs>0a8;o1@e#:#@Oezsfy<.@@mpX",
"8DmmpOy*Okv;.w6$g#u$6$32@<NkN9<uliie5%-#&43a;9. =drdiw6*OqF#b54&7Xgo1<n@nZw6$N>>k+XsXg < y..h@:.0u$: kNg:9z%xxpe*>B33rzzkX,2@7oc",
" mp6O#74f+O%*-4glxd6k%f7773r=dliwe6t%4X,;29:q-.>4kBe%#F=tt><yyB1 <&bn@$dz,3@:+xe:43;..1&<:&;qBBpjc$q,3o:2OO%m6*%%,,#.B:4,2@1=jwt",
".Dp66+tCnO5ni++&pxxxjeON77#fj+z-sv:8;.==S@5++r4&h&@Aiwjw5k%Ff3f8y><9oo hF ::3*ss%-s,,828yo0:>44999<vB-qiw*1g5c*O+asg.B 9q#r:S<=u",
"vppi+fSM*d#Si*$M$k+;27q5*zAf@11=0>>8Vpi+-O9>>.+r#ulxd$5*Xv29@:M0SNg2oZ=M5o:oX.<t%t4qq;3..Bo@@qs3; -;-.-61-6$+s,.4N#2@$$%#877SSZm",
"#xd$hM0;:e$nh0MDmulx6cf.&5rsAa:4;9<h0,bGw-2zks0.:;9.uw%330bCb0n4dt4813>j*$%s.>.g=Ss##3;2=b3.&tAN Vo4.65gv#2w%g8asqV5ko$O2dzr#21Z",
"0ul6$A1 &&Aq@<0#=1bg%f.:h;>0*4sXy&>:&&Cw7z,X;.=;XX<tNt9B>F=h=oxie2+rsqzX>%$ts>=taA-r2==gyh:b@:13%ij%76*A3aaec+-.f%4Of>;. z%81&fm",
"cmuiafV2  b#<=h=ZM0f,97:F70%$+;10.q;zCvCad$+AV7:=s; >Z>=F5591:&e+4cf-zi**+@183:y-s4,X <@=b&y@>&alwj6Ot.r< ti6-cNf-kg 366a75Ofq;o",
"<p%%Xv3@>bb39oFbO4;y9MnVv&e*ta97 07 &3Fni6e<<$*t%oXo <bSC:vX >pxlwea$d$6*$cO4+-07n82hvayh4f@&h1X5 M0zved655zk71 k+9%5*fogVg*N Zp",
"bmxlie4VX,@ =@89bCrj$c3:MnCX.dec%#v =; b.Gnjec:==#t+5f93 Z==0 S,wlxdw66zf-Os890SMX#;ZO,1%--q#3@Z8:M@4jw8323fiejcz,+e-fa;3i5*$O <",
">puliuww65aV.o==X,7.o:hhh,nhb5-4cksgXg2ZSS.:nsX1. >h99= #.&j*r.&00+aieoBob=*CNo7-5-@#4g#gO1;y..0Vztdduijdckfg4X7ckttd4zsg@ijiOsv",
"omuulijjw4q@03,::AX.@0>>&&CC=6c$*3+ v1=N-#;7&=9o0-r 4 <ogvy33>= &=7&0$**c*ay1&hM.221nn5%71aaqX,@@n>@;5O$*kg<:vt+v+%ikq4cs>oi$2.&",
"rmpwj5t-%r;o BVXXXoBB#gv>=SnC82o@<n<gZ:a=830hZZ1>396cy327&,>rX3o10812cOtk#g2&Bh8ZC,y%4y34%X,2B9 >S,z+%&12<6+N zAju$10cA7b7uuq97p",
"Axl665-Vo  2.;.%%-;832o@hC232@0fg2Ogf8+%X,v71@Zh712c$O%2Ngvh1Ayy=r.1vt-# <0sgS81g65gh+y7tXXvB#8@h,eOk.7q et-r7ks$z-2&0hs42qX1:xd",
"cmjwddd+o@1%4r3;$+5agvy1&.32.=F3af5O-#+V..7oBg89tO#Of3%fX371:h.oy<=66$t-2@.44qf:06kOONa<g; VXq@ b&=4w6a8@#6y@*2ce-g;7  =N. &k%fv",
"3pf9.33Ost<idw6c*%3V711Vg##C8@oaOk,O, V,So-+%#radOONNf8#32o&3.&nNM6N;2@6*-rt.a=a1=gg*-4qVv,0;B=;&wm$O83tlN@:,6%*522o10=g;2&zNN-X",
"yml4,B#>ez+:Slwc5N-Nb@ NXq-yC;92$6d-crV=V<<w***Ogtfv.h+;3< %3O>MMF2d6+kO3-y ,Z-X#g3Z-ttfqsa..97:&@iuj5y&*k.@1de$%A--Aa;80o <Xa9X",
".mixwjd#,..<e11>rXbyN%tj*tg9BS@566id66**A.a@=70qkOA&;3.@0b>cc$8O3=FM354+2czOt- #9ffXyS4-%sa,8.2>=>puuwO4#>d68;v*+%%s1qX#o=tsAtt%",
";pjwjqq92Bwy1&:zj+<#4,+to=f,Xpuvud8kt4fo1hwj6e$$**c5%ag3.:&:b:gX v9<C5N%%a4q.@qfg80$O%>*+##. =sXnppuwS>>w6sXX8%B#sg9gS%6z8z*++O+",
"7plw+:1=4i9<=3xiz%ya@%uij*OkZ%-Xrkts&rtf3o7i$$zkkVBo1>X.Xcro*%f@>0;66$**ONaX>h>7sfb4ZN%*-X9X99:&0MDiij6*5++31h<4-+gqX.Osq#bw$c$$",
".pid& FrlOy3>uxxi$kO-yckixii %%5tOwjec5kNA-42:OXy*Ot-q#g9h@@X2gvzco7 16$krX% >b9O=k-fzO%d46e*r8;@.B>=0:>39e$*OVf$$OarX, cagiwj:7",
"@pppuxlii68: >C6$$3@9$-kte*dw6AyOdeezk#8.0j*k5Ov2wd$d5t0V;ssf..f1e,;oZrw#+kX3 >Sw$$k*kqd5wew5$a#3.##.b72:SM-avf$6efs;e%-4gqui 3o",
"hmo:1 &uid#o;,giOi6ty$6Og91iDuuwcO4#92&xwjw*$ct;dd6OOa-9 >fg337$ek$$fXg#;y:1o 5,#.<N&+6lf@l$*-4,@X3bF0n F%*Nv%6ej6*as,5sg1pm5t@y",
"=pppxxuij7=y:&g##;f.Ok86$N3%@xOc*921 &xiww6k6N%6$6O@1#%>$ta4fv#34 a#;8a846:@&pxidf61*jug0.udk%a,.3CVk9 &n5+kt*ddwdO%afNn5i$z%8n;",
"<mppu651@=SgtfV;15; xe6+4qdta39O$33@B@hmpxuxtdc--d$a9=;f>&+4fvtqjcO%%s%fgy%q#wOqZ<Mj6*kf2+%rX.>B2.nt+o&bni6c5Xj$*N%811-C#5%3o=2:",
"CDDmmw66tgoyZo<Nssof21O4aadtOq;f25-9< 31m6-qj66**kOA%4g#7=&.fyjO+rON5XOO5=xww-1>0;t9p6xi+a4@;bO9<&$$+y==MC65Xmj*Oa=oCFF$377@=3;n",
"Fpxxza,71 =+r%%a7N-gX.;#ie55+5OkOavqg3>&gBOqxiiw666$*afqq71<96$5Off*55**9A*:iO#31=<9ixxi$ta#y1,&MF *eO1 MMc$x6j*l*a#21nFS3o1 ,SC",
"%uwc6zFfq,1<*%+t;9>&+XX++*idOtgXfo:@-av6c5jd$zNv9q-43od66$eNde$$5tzX*O;iuxA:>0#ue6g37d41Z=,;%0M;u64ZSZxmuj5cO$xl$$-f,Xo#oBMC2@10",
"CmpifsCX7o$*XOXi555s#:>#,aj66-qf3=o>&%4#tmpulxxjjwjt*Otvq%+aq2d9$eN6ieA7N5gldzs71b ko<<S3o<49@3>Mmmmp4gv Zlijc$$net4,.7b=>-g10S>",
" pmupxi0AN,8; S6$rO-q@1<rsyc6a#<r831&fa4Vupxnliw$*%#54g9ueOji6O Ok60qnl$**5t9Z0 f, bbg3#rXo@h8nu$Ns73X2Dppj5*zbl$**-aq8>=&<&1<n<",
"hpx k-yS@; d$$+gk#.21ANa>uOX =%X;:v-q2ymppu.0djef8*a91xuuivw6doo0k7Snxj$*ek*ON#fh778=0q+-%a8o&-=-X7.v9O4muidde$zh1ta#t2 <b3.12@S",
":Dm6$#*gv;B=1*+t-tf#yo:% 4r&ytr-.1d7af1mppxj*cN%#0nq#o<-pxopx64#<0<igoSujd$5O+a;3222S9 ;4r9$*>+%-1Z3.%89<ud**=SCuO%AXy321CitXBCX",
"Bj6ac6$go7Z11Nryg#3*8;$=mmmpxdA32O%4B7*-a<=$ck-2B7b@c@Ot5Cpu7>00hjO71nwmie*c%q,2 s;y1f$*e5*+2+tf,2X&n4q,1&3=c9 bM=OO43$8S1t4s73S",
"sp6N$Ng327:=eqXB;rfc#7<9<p53k$*s39x6$$N-7=$5tg.oh1qO+Dppplu65N%#bo&=M+-fSd$kAX1<ngqZ66j6cX@wdc**+%asf.33@CC O&bbX=bM5+XfgZ#2yg7<",
"zppulj66t34Xg@Z6kA4g0,c$traV&0+%jc,y;+g kwij-#.@gi6O2O,xkg>7-4f;2b&%a@Ci*w6O6Ott1 >=1uuwjw@1je*5+%#hnC>;1Bdd.nM, =&55-dwXq# 3g33",
"1mumpux6jjO*O8fyZcAq9= $jwe6-a=04O+O+a#s86pxidt.oXj*a#o*Xy;<<>>0>Bicc%N1Sruluiddko1OqX1t%wd0yB6e$X>&0n+a ,@q839=0:*jc*wj+tN1-aX4",
"ymDpplliwO6d%4;=z$$A-2ZsX6kAo7t8i5d%z8xzOaeluwA%#;j@j6ec*g4O%Vf;:0b> &:,#58hcwkOag771%w;70ww2$++r-V8o@ &=S@hh+8:,,uux65ik%VfaN-a",
"cmuluw$jij**r3Aew$c%Nv4,5Ok*7.V*w5*-4*rDmlupxliq#dw6y6Nd$.hbvt-r:1MBc*-g id6ll55ofa6+X+1%;q2ed$q5Og@& @@$%%B9,2 w58V>ld$*5+Oa#9-",
"xDmmpupxuil6*;de6qAiwj$dt6$+*y;**ic+4x5cgppuuiq&waliiwd$Ot<he&MO%11i6j6+$s;uui6c%a8wc5rqv33Sdt>4382,#$2$zg1gBldrae@lxwd66$kttrgm",
"uDDmmpl*5wii6Ozujpue-xlij+uaax$x5mux-epxd-umpppulxuX.xwj6uxxdw66*$>F<%o:$$Ow%Xuded+%5uxd405%ulxO5Of@>Xdlidev$-&3h+V889$uidw$*-+6",
"Dlpuxlujudummpuu6pupuxlO5Nc$puxuw-ppxzDDDDDDDpmuulixululii b6&l5lpmuxuOuw5wzzuxwwi6puuixdw<6ww%Bmumppxicd6i#xO-lx*&j1fjulldd66kj",
"DDDDmpppuullulDDpmpipppej6mluuDmDmpulmpxOmDmppmujpupiuuiaxuu5wlmpDpuiiwmmmDDDpmpu6ippmmpmpllil6uuuwmjimpdmxjsdDpp.l$7uipuxuujcj6",
"DDDDmmppmmlpplDDmDmmmp$pDmplmmmumDDmDjDmDDDDmmmlmpDmpmmpmup5xiwpDDDDmDDDmDmppwpDDpmDDmpmppulmDmllupuuimmmuDpuuipmpp*lwppplpDDppx"
};
