/* XPM */
static char *result[] = {
/* columns rows colors chars-per-pixel */
"128 96 51 1 ",
"  c white",
". c #939597",
"X c #A3A4A7",
"o c #7E522D",
"O c #8E9093",
"+ c #A7A9AB",
"@ c #9B9D9F",
"# c #825430",
"$ c #855631",
"% c #9FA1A4",
"& c #818285",
"* c #ABADB0",
"= c #7C7D80",
"- c #8A8C8E",
"; c #7D4F28",
": c #797A7C",
"> c #97999C",
", c #794B21",
"< c #6D4117",
"1 c #B4B5B8",
"2 c #AFB1B3",
"3 c #666769",
"4 c #885A32",
"5 c #86878A",
"6 c #626264",
"7 c #6B6C6F",
"8 c #727376",
"9 c #B9BABC",
"0 c #6E6F73",
"q c #757679",
"w c #663D16",
"e c #525355",
"r c #74451B",
"t c #603710",
"y c #774D29",
"u c #5D5E5F",
"i c #694221",
"p c #C5C4C4",
"a c #4A4A4B",
"s c #724825",
"d c #CAC9C9",
"f c #58595A",
"g c #8B5D35",
"h c #1E1F1F",
"j c #110A07",
"k c #BEBEBF",
"l c #2B1605",
"z c #424140",
"x c #333334",
"c c #542E0A",
"v c #2A2B2C",
/* pixels */
"                                                                                                                                ",
"                                                                                                                                ",
"                                                                                                                                ",
"                                                                                                                                ",
"                                                                                                                                ",
"                                                                                                                                ",
"                                                                                                                                ",
"                                                                                                                                ",
"                                                                                                                                ",
"                                                                                                                                ",
"                                                                                                                                ",
"                                                     %   d@x        2+@  aX                                                     ",
"                                                    %*+-99*@+      9k+2%@X1                                                     ",
"                                                    +292*X5@X      p9>X12%@%                                                    ",
"                                                   O%%+*2X+%%      @*2192+@@                                                    ",
"                                                   :>>@@X+*+X-O xX*1k1X*%OO=e                                                   ",
"                                                  a6uqO.@%X**+@>%@222XX%>q7a6                                                   ",
"                                                  =:76e7&>@%+>.%2.@>>..=6ue76z                                                  ",
"                                                  v=:q76e3=>%%%*2@+*+.eu38::=                                                   ",
"                                                     =:873f3:>@.X+*192*%3qf                                                     ",
"                                                     vx::q87u6:5.@+219k2+X                                                      ",
"                                                   OO5qfzq&=:86f05@X+21991*Xv                                                   ",
"                                                 @%+**XO8exe&=:76f85@X++*1k1*X7                                                 ",
"                                              hX*212*XX%Oqevhh=:q03u0&@@%+*199*%.                                               ",
"                                           a-@X2992+%>.&0euufax &=:8763=.@@X2192+%>5                                            ",
"                                        h>O--O12**%@.:7e678==     8&=:06uq->X*2***--O>>                                         ",
"                                      -@O@.O-O*+%%.q3f308q=         z&&:83fq5@%%XO-O..>@%j                                      ",
"                                    2*+@52k.O..%.=6u38:=8             j&&=q3f0=.>OO.>p2.%%X7                                    ",
"                                 hk91@Xddk95.O.:u678:=a                  5&:86e3-O.>XpkppOX212                                  ",
"                               e*19>+ppp%O%.-O.O7q:=j                      ::q73-...%%@9pdd@+1**                                ",
"                             3-++@@ddp%XO%O%-&-&:=                           a:&OOOX++%%@*pd@@>*%@                              ",
"                           z.>%@%%%%X%+**5.O+&-.e                              -OOO**2+%%%XX%%@>>@>-                            ",
"                         38O.=%@%@@%%X*2*2X@p5>.-                              &-OXk.1*****++X%@>O>--e                          ",
"                         f5-q&@X%%X++*22%@1p2--.h                              :&.dppdO111122*X@@&:.&ee                         ",
"                        xe5:q&-XX+*211+k9pdd+>>O                               e=.+pdddd@9912*+X%5=8=8a                         ",
"                 30     ee57q&5++2199.ddpp+XX@>O                               e=>>>X2ddddk1122*-&0387zu    z=                  ",
"                  ::&=q7e=&0q=5O219919p1+X%%.&OO                               --OOOO>X+kp111112-&:0u:ee63=&&xv                 ",
"                    &=q3e:=38:5O99112+++X@>@.q9&h                              -2-O.O->%XX*2221.-&:00=fa38q8                    ",
"                     f83e8837q&->22*+X%@@>..p129x                              -1@2@q-->@%+***2O5=077=uz67                      ",
"                        e8:7u3:5O+++%>.O5&p9dX5@                               .-3+%Xk-->@%X++>-&q733=6a                        ",
"                        e00uuf0&5>%@@>.Opp1..%>h                                OO.=+pp@O.>@%%O5=033q0aa                        ",
"                        ee83f66q=->..OO=@0@%XX                                   3.+>O5*--..>.5&:073:qa                         ",
"                         e66e6u0:&--555&9.X.-                                      +X%k155-OO-&=877:qez                         ",
"                          66q067q:&&&O%2@+-                                         @1k912&55=q077&q8a                          ",
"                         u63q=0=:=O.@X*+*+                                           6912*%@>&:&5&=:80                          ",
"                         u70q:=&5OOO>%X+ee                                           a3+2+X@.-55&=:q87e                         ",
"                         3300::=5-OO.@>66u                                           e633+%..5-5&=:q677                         ",
"                        lr,708q=55-O.uah66z                                          66av3O&O&-5&:q0r<r                         ",
"                       <r,,;30q:&&5-v     u                                         ju     u=&&&=q87;s,<<                       ",
"                     wrr,,;o338:=&6       j                                         6       e::=:00$;s,<<r                      ",
"                    tr,,s;o#o378:8h        f                                        f        a0:873#yoisr<<j                    ",
"                   wt<w,;$$##3370eh        6                                        a        h8807$##iyw,w<wj                   ",
"                  wwt<is#$4o##370vh                                                 6       h 6873$###o;;i,ww                   ",
"                  <twwiis#yooiu6au h      f                                          u     h  ue7g$#$soo;s;,wt                  ",
"                 t<<twwos$o#;izxau      ea                                            u   h  6fexg#$#$$4$;;,wt                  ",
"                 <<<ss;y;##oyl    ff  zu                                               a6   u     oy#$##4#,i<tt                 ",
"                t<<riiooi#yoj       hx                                                   jz        o$yo#4$o,<<<                 ",
"                twwi;##o####                                                                        ;ys$4$o;,r<l                ",
"                ww,,o$$$$##j                                                                        soyy$y#;;,w<                ",
"                tw,;#$#$$##                                                                         si#s#g4#;,r<                ",
"               lww,;#$$$$##                                                                         l#oy44o#;<rw                ",
"               cw<;o#$$$$$4                                                                         lo#y$44$orw<                ",
"               ct,io####$$4                                                                         w##o444;ywww                ",
"               cw,;;#####$$                                                                         $y$##$$$;twt                ",
"               tt,,;##$#$$$y                                                                        oyy#$$o$sitt                ",
"               ctr,;#44$44$#                                                                       lsyoy##4oss<<                ",
"               lttsy#4g$$###j                                                                      iyiosy$4$iw<<                ",
"               jt<iso4$###$$$                                                                      oooos##oo,,,r                ",
"                trs#4$###$gy4j                                                                    osoooy##$o;,r<                ",
"                <<,o$$###4g$4y                                                                   lo##$#oo#$#;,r<                ",
"                <rr;$4$$$4$4syi                                                                  i#$$o#$###o;,r<                ",
"                r,;;$ggg$4g4ooyl                                                                yysoyo#4##o;,,rr                ",
"                <r,s;$gggg$##ys4                                                                ios###$4##o;,r<<                ",
"                <r,;;#gggggg#;                                                                   jy$$o$4$#o;,r<w                ",
"                <r,,;$gggggj                                                                        o444$$o;,r<t                ",
"                t<r,;#4g$                                                                             jg4$;,,rwc                ",
"                ct<,,;l                                                                                  ;;rr<tl                ",
"                tcw<                                                                                       c<wtl                ",
"                lc                                                                                           jt                 ",
"                                                                                                                                ",
"                                                                                                                                ",
"                                                                                                                                ",
"                                                                                                                                ",
"                                                                                                                                ",
"                                                                                                                                ",
"                                                                                                                                ",
"                                                                                                                                ",
"                                                                                                                                ",
"                                                                                                                                ",
"                                                                                                                                ",
"                                                                                                                                ",
"                                                                                                                                ",
"                                                                                                                                ",
"                                                                                                                                ",
"                                                                                                                                ",
"                                                                                                                                "
};
