/* XPM */
static char *result[] = {
/* columns rows colors chars-per-pixel */
"64 67 182 2 ",
"   c white",
".  c #FFF69A",
"X  c #ECCB20",
"o  c #FFF5A3",
"O  c #965F29",
"+  c #7A3F2B",
"@  c #FFED00",
"#  c #6E2D2A",
"$  c #9E2A3C",
"%  c #844B29",
"&  c #7E422A",
"*  c #874E27",
"=  c #C29A15",
"-  c #6A3D29",
";  c #A47229",
":  c #BF9315",
">  c #FFF6B6",
",  c #DCBD02",
"<  c #EED700",
"1  c #915B29",
"2  c #A1711B",
"3  c #814729",
"4  c #E1C202",
"5  c #F7D600",
"6  c #FFE400",
"7  c #A42640",
"8  c #94621F",
"9  c #814B29",
"0  c #BA8819",
"q  c #8A502A",
"w  c #FCF4BE",
"e  c #AD8315",
"r  c #E7BB10",
"t  c #F9EB8D",
"y  c #E6B812",
"u  c #F5E168",
"i  c #FFEF5E",
"p  c #CAAA05",
"a  c #E2C601",
"s  c #D2AD06",
"d  c #DFBB22",
"f  c #F2D401",
"g  c #A92346",
"h  c #D2036E",
"j  c #F5E576",
"k  c #885622",
"l  c #A27619",
"z  c #FDF0A7",
"x  c #8D5A23",
"c  c #D8A027",
"v  c #98681D",
"b  c #8C562A",
"n  c #F9E983",
"m  c #F1D201",
"M  c #99652A",
"N  c #FFF48F",
"B  c #C79E10",
"V  c #AA7A25",
"C  c #A06929",
"Z  c #D9B523",
"A  c #F1D635",
"S  c #FFF9CA",
"D  c #F0D225",
"F  c #FDF9E3",
"G  c #C09A0A",
"H  c #573425",
"J  c #E7C521",
"K  c #E6CB01",
"L  c #DBB304",
"P  c #CC0967",
"I  c #DD0178",
"U  c #DAB947",
"Y  c #673629",
"T  c #986229",
"R  c #A4741E",
"E  c #F3DC4F",
"W  c #A87F14",
"Q  c #AF8712",
"!  c #B68D0F",
"~  c #B7920F",
"^  c #C5A308",
"/  c #ECC508",
"(  c #462525",
")  c #4F2C25",
"_  c #FFE50C",
"`  c #F3DA41",
"'  c #D4B304",
"]  c #8D5E25",
"[  c #FEDE07",
"{  c #9C6B28",
"}  c #F4E100",
"|  c #EBD100",
" . c #CBA208",
".. c #FFF794",
"X. c #AE8428",
"o. c #F9E500",
"O. c #B38928",
"+. c #B98F25",
"@. c #F0CF00",
"#. c #C40F60",
"$. c #FFF9C1",
"%. c #EFCB03",
"&. c #F0DE00",
"*. c #B21C4F",
"=. c #AD1F4B",
"-. c #D0A611",
";. c #E1AC26",
":. c #F6E46E",
">. c #E9BD0C",
",. c #BC970B",
"<. c #783A2C",
"1. c #2F131F",
"2. c #FFE83E",
"3. c #FFF337",
"4. c #DAA523",
"5. c #E2B318",
"6. c #F2DA47",
"7. c #A16D26",
"8. c #FEE422",
"9. c #C09628",
"0. c #FEF07D",
"q. c #FFF387",
"w. c #1F0A09",
"e. c #CEA824",
"r. c #FFF370",
"t. c #BA1656",
"y. c #FFFF97",
"u. c #6E2E2A",
"i. c #FAEE96",
"p. c #B48520",
"a. c #D6B704",
"s. c #74312C",
"d. c #E0AF00",
"f. c #724328",
"g. c #BEA12B",
"h. c #F4DF5F",
"j. c #B5891B",
"k. c #FFE616",
"l. c #FCED83",
"z. c #F8DE00",
"x. c #EAD15B",
"c. c #FFEF51",
"v. c #E0BD22",
"b. c #0C0704",
"n. c #F3D801",
"m. c #FEE633",
"M. c #FFF566",
"N. c #EFE9B3",
"B. c #D0A707",
"V. c #FEF9D5",
"C. c #E3C652",
"Z. c #FFFEF9",
"A. c #A6781F",
"S. c #FFFDAF",
"D. c #5C1432",
"F. c #5E2423",
"G. c #E8BB36",
"H. c #9E8014",
"J. c #5F192A",
"K. c #372309",
"L. c #5F3627",
"P. c #FFF810",
"I. c #6D2922",
"U. c #F4DE5D",
"Y. c #9B203F",
"T. c #D9C534",
"R. c #FFF600",
"E. c #95751A",
"W. c #F3E665",
"Q. c #3E1528",
"!. c #BCAD7F",
"~. c #D4991E",
"^. c #7C571E",
"/. c #7F6F68",
"(. c #FFF34D",
"). c #EECD32",
"_. c #B8244F",
"`. c #FFF986",
"'. c #78522D",
"]. c #BA6531",
"[. c #412C11",
"{. c #D75B45",
/* pixels */
"                                                                                                                                ",
"                                                                                                                                ",
"                                                                                                                                ",
"                                                                                                                                ",
"                                                                                                                                ",
"                                                                                                                                ",
"                                                                                                                                ",
"                                                                                                                                ",
"                                                                                                                                ",
"                                                                                                                                ",
"                                                                                                                                ",
"                                                                                                                                ",
"                                                              o.                                                                ",
"                                                              s   q                                                             ",
"                                                          : < C + f.                                                            ",
"                                                              3   w.                                                            ",
"                                                            1 O                                                                 ",
"                                                              ).                                                                ",
"                                                            [.'.                                                                ",
"                                                    N.$.b.  Z.S     N.$.                                                        ",
"                                                      . . . F o . . . .                                                         ",
"                                                        j j V.G j j j                                                           ",
"                                                        U U $.C.U U U                                                           ",
"                                    $.> o +.X.        w.{.-.S.A.-.-.=.          s ^ x.C.                                        ",
"                                  L Z Z q.o j.X.  h I I I f . %.f f =.7 $     a . 0.- ~ W -                                     ",
"                                D X J v.Z F . +.h h I I h L ..@.L , =.7 $ $ < W.Z.E.p ,.Q l 8                                   ",
"                              E E 6.A X J Z B 6 O.P h h P = ..+.= ].g 7 $ $ o.3.3., p G Q l 8 *                                 ",
"                            u j :.u E A X d o L +.#.P P P < . K < =.g $ $ | &.s K , p G Q l 8 *                                 ",
"                            t i.i.n :.E D J Z , 9.X.#.#.#.&.. < | g 7 $ $ a 6 6 4 ' ^ ,.e 2 8 % &                               ",
"                            z w w z n h.A X d x.t O.t.t.t._.`.B : 7 $ $ Y.a.@.) ' p G ! W v x 3 3                               ",
"                            w F F w t u ` X d N 0.O.*.*.*.*.r.y.C $ $ $ ^ p , p ^ G ~ e 2 8 k + %                               ",
"                            w F V.> t u ` X d e.8.O.V g g g < a s $ $ $ ~ :  .,.~ ! e l v x 3 & q                               ",
"                            z w > z n U.A X d e.@.X.; 7 7 ..8. ., $ $ $ W e : Q e W l v ] * + % 1                               ",
"                            n t t n u 6.D m.%.e. .! ; S.$ H } K ^.s.M.v 2 v ) 3.R.f.8 x % + 9 b                                 ",
"                              :.u h.6.D X s 7.H > ~.{ [ n.$ o.< H ' 2.= ] V H M B q * 3 + % b O                                 ",
"                              g.` A D J v.Q.m 9.5.] ] b m o.@ < K , s & - ( ; T.O ) + & % b O                                   ",
"                                X X J d q.@ 5 / y 4.M d.%.z.@ } | 4 ' I.c.p.V C M b % q 1 T K.                                  ",
"                              o ..1.i (.( 6 5 %.y ;.4.5./ n.@ } | a a.-.= j.V 7.T 1 L.+ M & 3 w.                                ",
"                                7.q.r.g.9.6 z.2.>.5.` ! / m 2.L < K , 8.= 0 V 9.M O { P.H + e                                   ",
"                                  /.r.c.m._ 6 4 / y 4.1.r @.z.@ } | , H.B : p.: C O * % + 1.                                    ",
"                                    0.i { k.6 ) [ 5 r c r f @ 4 : ; 1 & q O 9 ( C T { * 3                                       ",
"                                    A.M.!.o N i _ 5 r c r f @ 4 = ; 1 & * O 9 Y - k ( q  .                                      ",
"                                      S > o N i _ 5 r c y f @ 4 = ; 1 & * O 9 Y - k 2 0                                         ",
"                                      S > o N i _ 5 >.c y m @ 4 = ; 1 & % O 9 Y - k 2 0                                         ",
"                                      S > o N i k.5 >.c y m @ 4 = ; 1 & % T 9 Y - k 2 0                                         ",
"                                      S > o ..G.;.;.J.u.# # # # # # # s.D.[ d.: - k 2 0                                         ",
"                                      z # # # # # # # # # # # # # # # # # # # # # # u.0                                         ",
"                                      # # # # # # # # # # # # # # # # # # # # # # # # #                                         ",
"                                            F.# # # # # # # # # # # # # # # # # b.                                              ",
"                                                                                                                                ",
"                                                                                                                                ",
"                                                                                                                                ",
"                                                                                                                                ",
"                                                                                                                                ",
"                                                                                                                                ",
"                                                                                                                                ",
"                                                                                                                                ",
"                                                                                                                                ",
"                                                                                                                                ",
"                                                                                                                                ",
"                                                                                                                                ",
"                                                                                                                                ",
"                                                                                                                                ",
"                                                                                                                                ",
"                                                                                                                                ",
"                                                                                                                                ",
"                                                                                                                                "
};
