/* XPM */
static char *result[] = {
/* columns rows colors chars-per-pixel */
"127 135 69 1 ",
"  c #010100",
". c #555401",
"X c #605F03",
"o c #414002",
"O c #4F4D01",
"+ c #5D5C01",
"@ c #454402",
"# c #515001",
"$ c #4C4A01",
"% c #535201",
"& c #5B5802",
"* c #121202",
"= c #3D3C02",
"- c #585601",
"; c #383702",
": c #232205",
"> c #1F1F04",
", c #333202",
"< c #2B2A06",
"1 c #494702",
"2 c #050500",
"3 c #7D7A22",
"4 c #646206",
"5 c #7A761B",
"6 c #817E27",
"7 c #282706",
"8 c #1B1A04",
"9 c #6E6B14",
"0 c #171703",
"q c #74711B",
"w c #090901",
"e c #868331",
"r c #4C4B0C",
"t c #686613",
"y c #69670A",
"u c #514F14",
"i c #2F2D04",
"p c #0C0C02",
"a c #777522",
"s c #6B681E",
"d c #817E2E",
"f c #37360D",
"g c #63610E",
"h c #32310D",
"j c #52510B",
"k c #5D5B0F",
"l c #4C4A16",
"z c #726F24",
"x c #575512",
"c c #7A772A",
"v c #62601A",
"b c #41400B",
"n c #5C591C",
"m c #8C893B",
"M c #757112",
"N c #939249",
"B c #444215",
"V c #46440C",
"C c #3D3C11",
"Z c #9D9B54",
"A c #535220",
"S c #A6A460",
"D c #626025",
"F c #6B692C",
"G c #AFAE6D",
"H c #7F7D3B",
"J c #878546",
"K c #747235",
"L c #B8B77E",
/* pixels */
"  p    f:  7hCw 2whcC  h55fpnvlcfijwhv=@=:g69=<<g:hV<o1w2>fh$8p;+,>>br188O+.#ufBxih:7.uur=>>&#gstg$963cctt&9.4d+$=4oi#;*=&+t%%%",
" 2     *  wf8fw   0kB :kCDw0z7>nB7>>#XrCCk6e9ff<qBC>w8$<f78p=;<o#oi,7>buo@.O1r>bu<bf8Oxrr<i1t.94%y4gM666A,OXV7aXkb#$;-+$%%4&#X&",
" 2        :0<B: w22u*2vb2* <58p28xxzj8uvfv6dauondCp22p;1op8pp,hl=8f0wp71,O.$.=8Vhh07:o1rA$@;4gz3&g4#%6dqk-&-;*s9O+;,:,+o>$9X4y-",
"     *7  *:2ffnlzi*fVip   >zd*pi<-c5lBarCcDke6$#MC2 2ii@4;8>:#>7;2p*2w71=Oobt<<f>h2::bruj%7l9tza3g+@+M3q.ya#>pgu+O@10:#:w14XyX+",
"    *=0  0*:lhs6sVf0ax  *bCDu2>@vAs5Ms639dnv3Mjsmxw 7<*;X-$%%,,7::oi20@lu$;,-:u>*,:ufb$O&$u99cgteq#@tkz69a3k78zCv4#$>;O>p$y44#9",
"   0,=* 28p=B:q6D,v:ss*Cn7pnt,,::>len8VjzdddM5aaK3:pBwp,%-&#.o;,;#+;>,=uu1>,Oh7pp<=rr1$#+Xqyaaggqe4Xa495554&<8Blhkq-<@ji2;+++aq",
"  *bff* p8*rB:ndF2>ldevhw2A3D0pp:8uMk*2w>vemd65;iVh7: 8#+-.+&---.OO1O:Cr%x*o=o* p;r#Orj.&ya4yqtss33ssyy533-o8 7h7$ty1o,fb&Xt3q+",
" *B2<1pp08iuFu0nd7lBcul:pAM3<  28i553lp0hKe3M33V7:<88*$y++&--X+++.+.O$$j%-@%7:#*:io%$$#&lqkgyc4sg65=:.933m3&o=kl,><&+#phe6634XX",
"p7wp8<p0BB=rF=>fshHenpVcdk@J8   0bzB6655cmH3d63n0i=i;1%4X+X$,XX1#+-%..O$:<.$.0<1r=;1x$+ttyikcq9&teg&b&tet#Mx<;<r;:>+&.nd5VV+&.X",
"02 w:7;88<,=>p<C9DFnsgddzuhdB08>*DtbtBnsBl6NmM6x*@sC1O+4X+X=<4y-.&.OO%O$;b#$%=i1O1$uAk+&-uka999yqq4.-+t39g6&<*ploi8$Xqcsf*7.oo&",
"p  2<>w88f=V::ix6nlnsv3cCHz5qjluuq5qzlhAzv3de6M9ukr:nO+yy&4rx&+t+%.+.$..$&+j$1$;o++rr%&.r;+q9yrs665qa5d3ysXk,p*f7;813q<=p2,.,@$",
"7*  i8 2pfxu78*73u:M<*txpfzcs2 pvrv565tf65633dFbri%8C;#&yX4qX+yqy4--#%1OO#-@11Vf$.Xu##%kyX9dqaz3ec9c995sg-#X7 2pw==55#@; *#.:*1",
"2<V>:2 2*bBrh2plssi;p>ss0A:V6B2V9>s3cMzBzeeeea>p=o$>7Ob=XkggX999X44+$-#4&$$1-oo#<$#rX&-g9449xqyqcssssaqX+t%=<20BBs66g%%80=1-*8X",
":z6@,2  <u0>Dl:zsqV*0@hcghw@tcu3lfesh:cBsan965<w0o%>0V$;@,r$y-%4&&X&+4-$##$$B$%r=1u#-##kk4Xt>Vgcqtzza6atXygO&ln56e5+%+O:@>2-=@+",
"gq3tv> 2r=*2>rne3sBCoi7c68200s66un69h7q:Ca>v53j:w>@,:%#7:-X+4+X.O+O,#+X%.++&B;%.ro#+#O1O1+44bVqedHazad4X-&44y335e5.O-+O&1i:+$%#",
"cqM3z70huCp8,;le59<<z:hqvl 22g3clxg<CqM>lDpk6d:;o*=.@.#f7+&XX++X#-=1%#+X11%@ho.$$$.+#.;:g4X+++369a9a9zt4v#1#,:z5g4&4##Xr0,@&O.#",
"6639q:fs8Ab@B<:Cvnf=3gcB2u22BgzhCsv*f3d:jB2i6q02<;@.O#-rj-.%+#$#.X+4+##O=@%1=$&$$.-#1., #+4-X&6dqadcttXy%>*170zHjaty+-+;  >X-X.",
"e5d65Dqgfgkb*0*>C1ass6Aw lhbvVznM39hCqB0382*aM: 2<Oii4&C$+-7$%.+OO%#1o1,$%+%.&&#X&%.j1@1X-&9.46t$zqccX4yO;o%$.6gk9yyqd-1,V#yX.#",
"emmed56Mksn<8wwV7,kzD9z: 8a-c6MM35< :5lfa8 2r6l 2wio;@1<=+1=O.+%%#OjVb$#=@%$b.&%-.+X##u&&=&9OsdX,tvs94yX1o,:@$9ytsXtycaq44q4y4X",
"Nme553c656kp*h<:*h;Cctnz**5tc35M3D2 8n5qD* 2reB  2>#@0o$,-O#.+X#@$##j$#-O@@-$#X-X+.#Oj1%O>xo-H3tamg+a9#y;ww*@ivvXXtzggza64X449y",
"Zddm33n533M< p,==sbiezf9*>eu>z6del  wu3qf  2:9q2  :-,hrj-&-#&#%o@#..$O%+.@jO@%++%+-.%.%.#$-$yeygqqq4a9++1* >;fl:+yqqztt9aq9yyy+",
"fDHee5g563MCB*2p7fuvMqCnvzdCldeev> 2l33M9x* 21v  2fV8<$o1%&#$%##$.#V#.#&-#=%$X+#O#--$%j$*>1y6e93Xbvaa4X&==0>>gb=9adcctzazcq9qk-",
"<KFs35Mdme6<>AippCkq5qnzemczst33q<*f3edMu:*p>rk 87;1p>$%.%krO.%C<&$jj.O%O$#%.&##-+#jj$u.<8uMX3mz&+gtgnz5#1;,:g>Oyyyqqzszsca9d9y",
"6D<s335meM6r>0V<pv366tAt336DF53m60fc65xlu  llbv2*;,O08.%%-##+#%#$4Og+4..$%-O.xr$X.V#xuOjbrtVO9akt4XgO:O9q9C1;z1+X%qt9cccazcaqcq",
"5nDm366nix3f<flzkq3xhk:z636Bhd5e6Dc5vcrBa82zAhu*w:8;8;#O%-%&4#j.%+@roO@$&.O#juurOO$$r;<.ag$1X6s&yX+%=>O.#+t&x3-49sddzadHzzqcHay",
"qadKnzFCl36eaa5dm56svFfd6eNtsaq55ees8jc95r7f*hAhw,00O%&##+$$#.ujO@0<:BooB$O#r@Ou#O$$@$jXk$%OXmg#-&X$O,>$O#:Vac+Xtq4qqaczzcqqd9q",
"x357p>AnKM6vua6ee6e5e6vCc6nDanC53des:x9MXvz:pVcp2;0>%X+O@.$%%1$11#>f;:lbo%..-f@@rj-+&kj1-+&&t3MXX.#>O#8:@%<Clu--vhkuc9ccddq994q",
"bVa8p>u,Bsexhx553e35cMr<z5<C7Fn3e6e5zaBvB:qhwu6*2<8=+&.+#OO%.OO$o17C@:BA#O%$@=o1rDvx=>*;-&%-t6344+.=$%@:@#$Db%++&,kfzz9aa9dad9q",
",u6vxttuuhVDuae6M3enbf*:9l*@:FaKmmeaCsvD<2fu2xx *1#%+O=.x%Oo.-<o;i;=,1=O+O$;;,@xru@@7:i%&.;#ac3X#y%<:#;=&%95-++j7#ysyt5e9acydad",
"9NK&Mfhpp**p8vee33eaax*:qBpC*Aqzee36C7Ms82AF*7b :%.XX$=$.-#jX$1;<8*Bf1b=X%=,o>h#$j#$*o@i+$>#F#5y@-.@@4&-&-9---yV*1&vszeH9dq4qqa",
"lH72flB* 2w76avAed3lA>>recBA:ree63mzs8kt:Bhw*<f8$o@Xtxk.=1+k.$$,78>ro1oju=177*b@#++bp=:=.O,si=+407+$&.$$$+y$&+X+1>=p1dccacMyc3B",
"vcnVA3ai08<cv<>lqnvul8*B3ea:i636ns3VuxVdz5>whvs=7oj-$#X;<$O%O@1::87@#&$Au$.ohhojk+X1>=;-$;.u:;%X8==p:###Od+O+&X+,p7pvDOtczugq4o",
"cA7:DeMqcc5up*:l3h7borBVq5np>m63rn6sxl0c5v:7A>t8i+4%i1$,o;O##o1=**@$.-1bxo@@r$-g4+-O$o-$-$+;8#%.x+;p2kX4aX7;X%$;o*w,ax+t9t>hy4x",
"t72207bBh36* 7<h6::7bnA>r6a0:v:ca7A56C2x6zbzs;kAo..o0OO$:o#=oO--Oo$1;#o<@o$O#;bOu#$O.#.%X.4@iX-#&#;p7..+3$;1-4O8;8>etXuty5B:4X4",
"s> 22*<pfdMu*r*0rC,88rfp:maB>u <502xeB x5ef:xtsc#%+O@=oi=1u@,=44X.==0iO,=r++$<ooVho&$#X4,iX&.%%%#%;o,;+z5b>@OO.>877t&+0#699.+X+",
"B:  2*7wn3hlvh2 28Mbfuhw*A7<7n8:snCx5z*76DpwlBtms$XO1oO@<:@#%1.&..18p;@rl$.gX@$f@;$X-%-o8>9+@O-O&+11,fve4o@$$;#;p;87.#;ne994q4-",
"h0   *876e80BC:2 pDl>Dfw*22w73v:=M6555b*5f28Fr-ex;..11<*8,1@O.-+$o$h;O@1#Xj1y+%=oo$X#$<*>=Xg+%$#OyX+$od5-.&.%;7o*i>84Vos6qqyy94",
"<2   2pgMe:pwwffppusiC<*w  2wvgts535z9q7Fh2h3&;9v@44#o8,<@&&&-o.<pOXOoo$Oxj$%-##;<$%-$<@&+#.$,.4.4#&4X5a+%%%-=8@<f,>%>,5at9yyt#",
"<2    <lAn> fp 8uw@l9><7    2kiB6q53xs3g5l*@&x,veX.-$7*0*;@u#o*;:7X&:27%uC@jk@,i@f##.&y%@4+$&$.XO#,;Vx54+-...-<$5b,,$8<6c949yaX",
"7    7lp>lb l7 2*Cq:l>0:   20ut<F3e6j:f5dg$=Cx,Fcc#1-=*p0@r$#$>>O+&%1=$rV7:rx@o1=1-+OnV*7y+-+XO;.&nj,-9=.#=>o@vs5B*.XiBe4V-q9yq",
"*   >u*2hhD2*;<u:neuhp<*  *i<*xtsAz6s*pv6go0fg,f+e4@$#o<:.$--;,:%$i1+4jrj7>@$+#O#-&.$AO,-44X.#O$#1C:=kah@%@><+D-yB ;.;KetAs49Xy",
"0  >B* 2>fgulnfCiV35ni$0 wrp2 :el2bDmr:n3zx7@1hr%43&o;@:o.$%r:@@#r:@%Xrbj1;jx.&X.%..%rgXyytX.#@O#of>oFbr#&-=,t8,t.:fyt9de5a49c9",
"D2>rw  2wiqd37w*0l3Ms<g*:zB8 *Vtn2f:a33zvM6c$Ord-=s=$o&>i-uO:p=.8=oX1$u,jjo$$$+.%O-Xxrv94qqy;@r1#1i;9a>:aX$kk-7fBo-n9a64tugaat9",
"3tr2    2hq5kp 22>36j,1BFazc:gnwjljgqy3x:cn5#OOa&,:x,@O##==%:>O$:*$ku;.=Br@&-O%--.tsjgyvs9X+r,++.@,$d6B:&a&17@1jf*oOOte+bCaa39d",
"9M:     7sbsqCp w<y3n,h8phhk5ev:x66366ez<nt&D#Oa.,>vhi@.X7;b;@$;@1%r1oo>b@@&.%.+XX&xvz4-j-9-+O$##1@laD.o%dd%7<7MBwp0@55aufse5aa",
">fv2   :ACiDs7l>pf96co8*2Bp:vx53666eev6dOXqx5y%kk;=#O;O+#i;;:#.@=-%rlC$r@r&&%&&%-%b.st44Xkg+.%@<-.1c3>b9tyxlg;*4l22*uee9Xr$33qq",
"22lr  :F*887shif2:q3q=<* 7f:>l3sv5555fj.#xety433&r7i;:.-%@bhi$i7=X#OAuvxfu#j#+XO+r8$y9yzsskX++=p$#$qe;k3%.$o%kfx,8*pva44;8;yd3a",
"  *d*:Dpp7wC5r*C b3dg=i* 2<j8k5x*i3353vf&sdq5nvq9kB:O-&;-O;*V.8*=&-%jl$$,V$#+r,$%-,oyg7k+t4x&&-1%,&M3&&4$+%O$%xc<$#vdtO4u<K9aee",
"  7mFs7 802whVuvBaxl:<8   >B75rkAu5FnzlDmq1gs:7r69h7=.;:-.;*f%o1+X@:,1V;#rOg@7;#%=$,#uujtg+tv+y4%>v5c$&4+r8i1##93&$t5&8$eeFztd3",
"22hmmb 8h2 2pzdccs<<>@w   :AleAx365svh>=CqyOgr@fn#;=O$,,@%$7@xO%X$<87oA@.ux&$$.+o7O+10o@9csg##g+.uzsc&#X4= :@$O43xb-do7szu<OX4v",
"2*lqnB*b2   <5gz5qhh8@    >9anlVg3arXVkr@e51V+iBl=+.%-#@;o$o1#1$4;p>h=111br%#O%+$,,.x=%999tty#%++svxh#&+9-:=+X#aqOsjqscdB0Vy+gs",
"  DhwC;0   itkvn6s:h*o    >3a*2phr6g4yb1Xq6sx+:sl,Xq#1,=@1o;O.V#+02<##o7:=uO+.O@+=iO$f,+94++X-$$Og9+@O$#54#%4+%tcg9t5ee-=*,Xq9%",
"*<z82ul  8V3h8BFenp:po*  2:dB  wV&6e5g%1%tda99-d;;$tM1:o@:#O-#o..>=$,$>7:o-#&4b:#X.#.=o#qX+&#%X$$nk4@o:oXr8O&-o$c99de99c+1##+Xt",
"=6D*:sA 20CA22h6mn8*;O8  2u60  w=4j63$#1Ox363y5ml7O%+#b#@0..1o%#+#f:0@>:7$+&O&<>O#Xo%.r%X#yX1=1;rx=kg$;@$s,o@4>74md449449yy.%#X",
"ben*;uv2 *lp  :aa>>88#, 2Csv7  *vcvyM-o-oBd3enxmA,O##%++@;%#o@-.+&;:*<8:@#-%O%i7oO#>oux+o;+X,,@,rshC9$7,O6+;@+$O5cxjOgy#&ul9q.,",
"Fel<blz0 hu   :axw<82>$8<sA:C pAhhd9tx;%>8gM3u=3M#OO#O.++$O$.+O&.@7<*7=@1%#$O#<=@8,iOBo$;@$<**==$z:pnX;<,s4@@#X3e4%xxgX4@>pfV#v",
"a66ejVfr2Bl   Ven8f22p;-rhh Afjb*pued3O82*vMy&$qu=XX@o.+-&-O%#1%$0p88@<:b=OO+,2o<p=7%ur$&o<:*w=%.s:w7y%#1g9=70ja44yyy&g.O8w,>;o",
"M35to=wrf0>C*<t5B07 2p,o&C>hzn*:*8gDz5; 8oq6g@#gn1Otnx#+@7.++oh%;2*b:l>;;rX.=*>OioO1u$$&#,0:*2<%VBppp1kb#-Mv**vl,9c9X.4%%<w18<@",
"359o1;p<xw <6663<>8  w,$D$gf<C2:*og=scV,OX35v,;-5X$.jx%O#h$.-<:O$*w,fb,=7$-X1===o%&+jOO4$,w:* :$@Vppp8%FcydO8CBlBa9y+Xy-O70;w81",
"55bCB:h7j2 <Md33v8   2,k7<6h2v807Xq9agM=;-55qO8;XX..Oj%OX4O$#<>O+,2i$+o8,-##.+o*;+jjx.=$#o*p2 7#9D:8w*;49+d3sn:,Vq5yXyX%%11$o,1",
"5z*h:2frC<<95n8xev*  2:=**A3jtk@O=qeX$c7:+56y3zgyXy9tk-$u+%Xo,<181<;.#,*o&-O$%>:Okllu-,$-%,w  :%qc,2 0$%#$tmm9#&-a3qeay%O#&0***",
"a:8o02CBle3edi2k<u< 2 >o**8svA5#--3a,8A,=M35g36#z69a33Mj7$%.=:b$*:&%1.--@,:@++,.#CVrj#O%#::%0 >19fp  ,;O$#4e4y:=&44@ldmq9oo,*20",
"zborh2C7bdsDkp2x*AA p :.8w*;rq5.@9tg,rv>1963eM$:x5gte6emc%%V-=#%0*o+O1frO,poXt4.f:;u%%%&$0 :@>i-s*  p,0iiOgn=g87$9V$%gaq33l28;=",
"5qsb88Bgrncx: *l2hB   ,+*2871#e944ojMfj;O.u+55=i-4333dMactCr.O%&7=O.o::@f>p1#4%Vf=rrO.&+#8  >1#+A   :=p><#vn>s@@@sh$&g&O.adn$@0",
"v1<**Vkr0rmv7 :n pi  2,.* :,O$Cem+;uvv9-$@>15mr<g5Mddeq#jHA=;CoOOu<$O0,Vi0:$O-rO=;rV7@%1o02228#9V   ,>w><%tfhx%1<nz-vkg&.+%M39u",
"u;p2p*>Bpi3:*<h: <l  2:$* *O-o@5q5M&o96j7i:35x*8s36nh$++;Cth7bo&&$7,O>bh7fO+.f:b<b@O,oo=172 p81M=  2@pp,okcDv++X$95$OyyX+-&.%jz",
"x8 2*8w*2<5f0VcBCdDp 2:O,>o%##qc+3k&+O&h8rBt@:hjg56sV$%.fBq,0$k@i@@o#=78hk+X&7>f7$k$i,;@k@p 81ck=  *i 8OO1Adv1.X#95i>X9X.X&%188",
"sw p082 px66u6u7csnu==o#&XO%..qmggoo$<<+,h&$:oq5%vtakO&Oinl*i$lVf8@O$@jo.&.#OC*f;OX>i<@1#;22bOs<$7:,* <#@zqg$#&%@x3ko9+V4.%%O:*",
"zh i=:: ud5n:tfC3s=<8hf+X.OO$t3k#$$;:*7to1#rB@qesxg3sV-#;gB7#@rVx:po+l.O.$o#=ifBnO$p,@##%@8iki@k-$,*  1oC63tOO-&>hXM4X4.4-4yOi*",
"7gx>rxvzx:<qsjkenC:wp2<X$@1O9ddr@Oy: 2pB,%&lur3339t3qV@op=+@=,1Du$:7-%%O.;7OV*llf@<i1$$o<7hO@@o:j=   0.fv5;8f.#-iB,ty4yX.Oo%;p>",
"pb3x<nkeB2>M3scF87:2w:X.ibX4M5q+$teFh>8ug.kn;$55evotc9$;w<X$=;;uu1l=$.X#%i8=+obl;;>@@.%>>:,-X$bp8g>  <#ldrpp*7.-+j:.9t4y+#0o;p7",
"*8c6s:*qApps35u:fB<i;O44yy9g+X%&+ea-X&@j699gy#.Mtvgjzq+1:%O=<o@rnnr$%-+%%8>;1O.V@=,>:%Oi*<&.o@=pw1r:>1q65; 227-o&%+taq9y++=<@*8",
"ppB6A*2nxw0q5x8pV%,@.%449&+4+#.$#3-o7;@$a9&g6#$9vs6v-3qOO#78;1o@uxu#.%=;18*<C$&1@,*p,-$#,%17*:,ww<,*>smKg,  w;08%4XX4yt%+X$@10<",
"B*85s>2>3CDevww>=xl1-4t+y9+%-+%&g..1,#..%3#ga$%t6dO+OvmO==*,uu@@@@A.%#88%0phr;%O#r1#.;,$.$8w:<, 28@0psafv=  >, w=yy4y9X$@%,:$>;",
"uxh5D08pc336:0=$$%X-gXs994yO#;b9%=&+.4&k#q94z=@n9e4OuoX.%0i,@@7C;f@O&u0,.*8nroO+.$#X&%%%%,221,,2 2,8pCD0.;  >* 2oyatt-X0*O$po=&",
"*De3z<>>DMcq1i*=&kX+X-&+y+o8uMB#;,+X#-a+#k55k:<$bKt.h:,fl;;<==8700@+&rbo@*:ru$%b#+u1$+.%o08w7=;p *;>wfn*k* 2,2woty4ytyy7pi#<@#9",
"w:A3fhqMMeDiOp*$zsat+..yMV**fb71O&&&O.eq#fzmbouO:Af$:8=,O$i,;<p**o1$-B-$i*;rA@$,i+V1-X%$o p<8@;w 8<;pn%:v2 2;7;%+tXXtm4#=@+;i+&",
"wppnuBa33xvA< ,#gna9X4+unw2pf0=##%:o@j45dxt6ss##:l<@,*o;#h==b0*0i%rhOrXb7<ruV,:=o&Orx$j-@p p71.op2>$0sO>n: *@@87yqX44ay$:@&$74#",
" 22r5533v*i6D*,-;hsy+rf0f  0$$-&@,oo$F.$s6566D,O$DCi@27:=ro@10>$Ox1,@$+1,orub,><.#xnrrAV$0 22:.+=*w=:v4;.&<$$*2i9cq44cy.0i%.&+o",
"2w2u65M3x*8jdB;%:=gq#7pw*>,@#@%.;7#-qa.%95d65B8#$k,7128i*fVO#O$1ol,@-+1o@11ruo@%krO.&#%Bo> h**70=#@@%cbOg@#@, 2$q+x+4a+@p7-&-O<",
">>*vecjMv7;,se99k#t4%4#ooOo$$8@#o=t4yt#kzedMmu>1ikh8: pi*0bjrk-.;,0;&+or$1@rf;#bCoo%-%X0>o  2>;p:i>1qH>o4O@7: *&y,w-++44oo#+-O@",
":l736sC99V,=$u6q4&sy%X+#-%%1<7@$;71+3y#qqde6dqus:h$:2 2:8<oiBA###O,@$%@kOr>ff,$><=@#&kg<8@p  :;>**p=X3C=+,;8* i4+8p-q44X..++O$#",
"7Oj5y##5F::@j,qeavt4##&#%o=1O-=8pp>q6+$qdd6alnuMn0;=   >$olhh@+X.+$7i#$xu10@i0$71#%.+x%o<,;  ,>w  p,4s-$4o=7pwO&#x$9y+=,$X=>#OO",
"*,939#$ez@@%-#t66tx4#-:,$>*;<.0 2p#6y$=Xmde5bCq.gs=1 8ol$<h<0<@uj&j:b-$rrrO:ppo#@-...OO-@:#**%>   2:tno$-++<po4.+-4eC*22@yO>-%O",
";935x:uq1:0OXgtsmck+%j7woO;:=:82w@k5y,8466eqknF-:lB=<<1:>b820;rAj+&@f%#o1#$*8io+%%XX$#.+.$1:o:,p  w,A5#Aj#@>,%..-&6.7*w7t&+&+-.",
"Maj9rrMhC0<.-gsvd6k-X+owiXxp=8w>;#h5$8=5ed9551bq87x;+=8**;72:Oh;&u$C,@+Oo$%=%ob&XyygXX+g==$@= <: 2*<xa$Vz3#o.-o@onk$77:=X+++.#O",
"tuV&Dd5=-$%-+++t3DxiOo#:8%FAvKAV#oty=*@3d5a54V,9C<y$@w22w*=h@;0<rr1;=:%%#r@<:=#4&49+9X&.=7$$$*>i *8iXt%$+q9M-7ppisi=22fi&+$;X.#",
"&V<+6MyO=$.X9yy3r0@j7-uX$zJNmNNb=oe4,8k5M955X;iOrx-0=0  >7f%%8p<rro,:=$+.r<C0,Xgs+xk+%&%#O,;+O;, 0<=94>;-#.9lDh<sl8= 8B7.4&w#O%",
";B=ge9<:0;+X-XMt8*;bxasseSSNNNK*;46O7u9a56vfM.#1%5Op,8  >rjO%=:;@br-V1%kxl<CV#+gz+o%-X4X%o7>$.+,w<-;ty1X-.#%1<8DZB;; C8$4-yb1+-",
"vg$9ea,ipoX+X.ko2p=>fa3deNZNNZB2=39=b9$vst5flyO;#6u**,  2>=b4#$$1@rx$.$=;iC:$OO&gg4g++-X$@1iO&4=,O@:z+%k+@:<$@phe&$,*i>XX1;-%.#",
"6dF,xz-k;O#ykf@=0;1iAN3M6eSSSSzCs3a1t9,bst3v<td17zu20o   ;b<##b#$Cl1$..@8>:;+kgg-.#rOO1@=o1$&.O.O#,bKi.1o*2w>@;D6r$8:=@X#8w#-O-",
"Jmi8&mK#.%k+##X#$1ccmNNd35NSZZSN4yc45%;76sc3+%36xxj2p;  2o<:o@C%;i1@%j#o0,j&g+X%=1Oo@rx@>=%&,$O-%%1tBo+op  2w;&3q8@f1.+&;22##+-",
"naf0+m7=.9gO.#OXFBZGNNZJeM3NSSmx$5e5M:,fcu155Xiueey=2,* p#,:@7oO:$OB$@;1%kvXX4.1o%OO$+g+@=%-k%#-+%$K,..0   <B<.eah@9&&+$02,$O#1",
"ACx=y3j#sd+&O-mNZmsmSZKzd53NSms,$qg5&*w<quj63qC>C3d$;$0 21@@1@=Oi1urj@==o&.@O4.O#kj.=O+$OOO.+%X--%kc$+xp   wppkmntqgO4X+=o$XX=p",
"u,=gq+M.z4tsgzNmNu>;HZZzqme33Nt$..t3;*0iqg&eq567:tMA8,;p ;k-xlb%1ulb.$O77$r0o+1O&--@*@-;:++X&#-++$gy@r-*  w,=<gt@gma.+&XX&%t&;2",
"u@O+#4atd=1&.&NNFl0uZZGJ96396Zdtttm+Oi<hzy#9M3688.=80lo,7;$$:>=%oj-@#:;i;.b8#.--4%.O7;X&@o+4.%11+gy-:7%*  28@OesOa3q3t--4+%X&, ",
"rogtOcDHm$oogKNNl9BJGZZKg5d6mNdcgze-.;oz69#s+y6Cr9xh:sz#Oj%;**=-fr+%O80,1OBV+##+$:o&-O#.o<+g-+#.gt4@<p=*  22>zmc$4dgc3XyXX.--, ",
".@As-aHZNB<KZJHB76A@eZm6aMem6q4zXc9%&-@dDz5Do46Nmemn,<Fe-%.iw0o1o@&O#h>=A1.X+V%-,pw$-X++--XX9+C<+q.,i-@*   2h53tgcdtz9e9#&47@, ",
"XjAzaDJSSJmGH8:8>3s;zZ3ame563Mttt5&##%X9vsksk6dzA&sd@8hd3kj,*>1j@<1%#$=jr++#1COO>*<&4X4XXX+4+-@;g9.@:l,<  p<v9+#se694X9k+$%1:@*",
"4Olsv>KGSZSmr2:C:ecrzesV.N3Me5qsXMy+Ot6y<fa5ky5u8$ng;7fj6jO@**=11o#-@#.%-X#$;>-$;@;%+%X+44$$y+=#qX%@Ol8=<<1.egoogtdt4z+-e$$%7o:",
"+govt,8ANSG6> :KDxze5Mz$gcd3deat93yg+gv9$+6VBxqC>%ub8p>,gtOopC$1.%,=<$-#&X#;h;--=0>%XX%4XX,:X-8<&%$<7g=$##8j9X-#&+yXyt%+9j.+$O$",
".vjjl@:2KSSZ: wFm$O5mJHDzgHdMMqsdmgtdeij43zhO1zarorf<p78bs+-;u$,i@>=1..O$oxo0@&O;<O7$X.+;O,7X$:=.%@;pi+oiO%6$80u4X44k.$b@4X%@#.",
"k1@$f;=BSZSGB*Cc3#r%CNH;o;FmMM59mmqg939&q6kf=;v3,8@7=><0ivy#%$$o7,oOO-&b%$l;i$f<@$&#&+X+1;$:+g=$O:i:oX%.%-q6i20k4t4g:i,w;j9#;,o",
"klAohf#&ZSZKJt56sjko0Vcb::dNd36q56tXgtqdda#.%$uM@>u8;700Cj9++%&o*iO.-#.OO&$o#<*8;O#OX%.X@;#*@X&%<<$o%%<78Bk&@i@-#4+o2<;*h7l,o80",
"VzlC;7JemSK=3653n;+=:7JNNJNZe33555t4tzcc3ygy-%9ni,f8i>*BAj9tXDk#;%+.&.=;@j+%,pwp<&o:;&+X#1.:1y..$%#O;p22pu,O$+v814X; 7;<;<7f=;7",
"ChnlOBNSZNedeme3<=@BNZZSGGSZeem5daq9gce3eqX3g%6F8Oo0*1@xujt4&&k%##+#%#*<$@.$8 p*>#$>:%i8;i-X&X&.O,<182 plc=;>:ar%4-o20OO#,:t$#X",
"b8<H@nZZKKemJz3z7$bFNZSSGSSZmmZ356qyscad639a&&cd###@Ojlou&%X##-.%%#C1=7#u$O.> *0>$#,o#o:1o.4+#.1o;@,2  >c+i08pfmXXXX1o%O#O$g#$4",
"f,0x:ANNc3emnV5u8aAnAGSNSGSNNSZeMe4Xgtc6356q1@.y+X4.j#$h#%$y+.-.%#%rr#&%O-+@82*>:h1&%$.oO&X&-.+O>28,   h5=w:0ph9kX#$&&#o=7:jy1&",
"7flnhicde5qcABmxbNZdCe#nLLGSSSZ5Mdav4Mt36kOah07o%g3Xj.$#-%%54&%.-%%.%rCo.b-O;,<><o---$Oo%++.$&1>: p12 2h902:w0Oi,#*<O%%$o;;&v78",
":hc:AcMeH7lNNesHNZF%ma,JLGSGGGeM3mSz4e3Mdcjq-,fbO+ttg4+-+#+d+##jr#O%.%O$k#%O,>:o#=,+n-.X.%.#-4$i, wo2 2bl p<wb$>7, *@@;#>p*=u0 ",
"oCFlc36mgBzmek:AZdddSN7DLGGGGS63dNZeda9eKVz6MuC6kk+#++yt++keg#%&++#.&@<&.1:=Oo%-.B=.%.X4XO+XX%#@,2w>  *.B :>hX;p,=*iu=*8,ww:V* ",
"$zus6qZN3NN69=>lZm35dZhBLSGLSS6353eemqtM6bV56Foyytg1o$&--kkdsg-&X-&&.r=-Xo:,#-.&.%j#y4944X$1#.=p  8>  <kF<,*1$8wo%,;:07>o82>X7 ",
"udk6znHNZdm6F,ovZZNNemAHGSGLH&q53mNm5M5qtAg56M4-tgyx<++#Oukdstyg.X+%##&.+O#$$$1O#xuoXtyXy&$@:@ow 2i* 8@f<qrp1o2*o$:,pw*<,=>>VC ",
"z55sbAHJHHe6NFo&NNNSJB,JLSLLSJHe3N3ngM5q-gl-y35qMXyzVt.-#nn9X%#%=$@oO#.#Of..$Xj%+X+r444gX.%@:1O7  iww@07<us:o, >,i,=22wpp===buw",
"36tlOnzJFF3eZxxxZSNJB*pDGGGGGGZHzmqhu35qyy$-&3md39asrX.#-xk9&$0>;:OoO#O%$;$-#+rr+4&+y449.@&<:@p=r:i i,2ht0pV9, >,>+*  2ww*,8Xt0",
"BaHuHmNJn36NZ47:ZGN72iCJSGGSGGNJdegV5d3X+y&C>xmdtqtzx&X++gqX@1,0:$#X-#.-O.#;:>>bO@jXty&&+-+80=22:O<7= puu2w0sl i,0$2    2w7$rB7",
"AsFlnJHJscmNNNA<NSH0w*VNSNLGGSNZm34t536a#3ti<xmdXzCvsnvs%az%,>%=o%.+%$+#=O1i<oobf<7x+qyyX-O<0i222=O@* *uA22*@s<@o,o      2p$1l*",
"Vk>,=DF5saNZNmSJZJ822p>JGGGGSSZJz533M69d-Xt4%qmq@kvt#k-ga91%$i,@o#+.O.-#$#O%1V1:*<iA.yaX+@<,=<*p28=$ip><F2 p,=bj=-,       28bB:",
"jxAl@ja3qNFKDfmNZKh2 *=HGLSLSSZKvNe36e+tcgy446ca=+3q=C%96X%-+%>>o+.#.&O#X.#;8:<pw8$nc94.X;pw=$;p ,O*8#@*l: 27$>k$$0       22=lp",
"kuADFc95MZBjB74mZNZJJk:KGSSH<DZAn665gqX#ac+-5s#9-o9D>it6u$&-+X@oOn&&%-#%.#822p2 2i1rsy9.Xo*28O$* 1<2 ir,lD  *oOqet>        2og>",
"9lpbdN655SFV:7ucNZdSZ1pFGZGZVDZfx6e3kq4=C6ynmtOyg$Xn>@es0;O&OXX@7bO-$%%O#%: 2   8#orqyX+$-,7<,=pp=2 pwp8;z:pp>O+6q;        27=o",
"ru>AJ6353ZGCp;Bzdm-DSh2KGZGGNSSAfce5MdXo>lecF9%rtX&s$z6fp,=#4X-@:b$&-+4-#@@:>  w,$1#99+$*@#1.1$7,,  222wpl7>i<;#3-#<*      2>8p",
"8DnDJ6M3vrHABqsd655CHJANGGHJSGSNHa6qk6X,>hen:u&8<-.9t56@<;$%X+$O1j.X###+%o.@7 w;O-r.+-%= >.O#b8$+7     2pfC2*i%yz>7#,       8* ",
"fcMq363M3zzdtC*heHlkZmNNSG7<SSZNe63eHMa>7rM1*h#70O#smev$%%&%O%&%#+X---&%&#rji >=.jr&&#-= 7#i<70o>,*   8=;.q-@O-+y:2O=p      p:p",
"Ha535qa3g<:o82w<ZJBnNHzZSLFFSZZZd353Je6B*Cyo8f<@8=%tdmg@%-O%.+X++#%+.+.@$$;#h*=$olrx4++&8o;2 ,;i  8:>:8*p0uk7@@%4##fii p****w=*",
"Ft335kBND8:0  2>JmAB6NZGSGZGLZNSJq65JZZzp<9,*i,O1$4ttda#+4%&.-X-Xkx@o+ji;1-rf;O%$ru%%+&%@O$**o:,2    2  2>qV<70;&-X,*8 p***pw;w",
"n5336kuNJbjf  2wKND,gcSSGLZSGGZSmdn6mZHA8<90p@@<oXO493edyO<,##%.XX&;C1@==>o#$o%XOX4%%+-j%.#80>*:>       2uijo<i;#%++<p      81p",
"qqyj53NNmzZZNZK*FFAV<y6GLSLLLLGSmMx5nAfxNFX8*r>2h1=kd3d&9g,;f7O#u%%@Vf###oxx$,.&#O%gkx%u,#%: 002=      0oq#qo1r;O##$@0p*2   <$p",
"j@zFcmNZNeZSNZSNNADZNKseSLLLGZSZ6M3FhAHNZzkK:79k>>;V34axoAD>p:#O@X.OxAX#17fj$$1Vul@krBul1%%%:80 :: w0=@=,ke6zh2p=$1,>.g:*2  ;-=",
"BrsJm5dcdvcNFDNNZNGZZAhd6ZSN5yeZe56vKGNmDCV**xv0p,@%3+c5#;rxfo-%$OjjO#.#==@.+$7fuAxXb8,@.$,$&$,>;-o,,<*p:ir6602p;#,;>-1,<i,<O&&",
"jj#%c5mJHvvbh:KZZZSZZBAm55MyemeNZ65eZZAHKBV >uA7oO@49rqeOO,,u4%rCBx#1,O$b%$.-;<Au$@oo:hBj#07@%.Ooo%h   2***l6u:pj6li:;>=*p@&+XO",
"sq;huHmNZNc>20FHzNSSLNd663eZNNNed5MmZl8cZF,7k=Bjv@=u91dmtip*,gAAB;@,@@X11X.#Oo=r1#j;$Af,l$;=+1$17281,2  22wpb3Kig4<p:i20;:$@+%#",
"ccbfDemmNNZAfANNmHJSZe6655dGm663M63md$zmNm;uzsFreq<fz;zzzh>bO$uV::o;$-X%+4V1#o<o%+.uVO$Ojn#O7ffj&: 0o+op  >2pKdOo<=2:7220@O%%.$",
"sfOV:@uAKmKAAAAJSGGNa555536eZmNNNm3ND8BNNF0fcn><FcDzD>Xlh&1o-$@;:joO%.%X%o;j#b:o.k@@$$b=O===ppwp>1=8pi1i:<02*z6k;0O:8p 2w@.+.$>",
"z88V:f0p7JFw*DunNNmNZZN5ZSN5mdNSSNeJ>whJcn:0>l*w0ideniXslVo$1b;<>kf1.%O&%1;$oloxDAC,OCB;<8;$ip222*:,oi;%$&O,=yml8i@%7w  p;-.-@8"
};
