/* XPM */
static char *result[] = {
/* columns rows colors chars-per-pixel */
"61 58 12 1 ",
"  c #2D3019",
". c white",
"X c #5F3C2E",
"o c #ACAE7B",
"O c #40443A",
"+ c #888747",
"@ c #191B00",
"# c #7E543D",
"$ c #F4F6F4",
"% c #F8BC79",
"& c #CC7C42",
"* c #A3757A",
/* pixels */
".............................................................",
".............................................................",
".............................................................",
"...................... ......   ...... ......................",
"..................... o .... +o+ .... o .....................",
"..................... +o .. Oo$oO .. o+ .....................",
"...................... $+  OOoooOO  +$ ......................",
".....................  $+ O+oo#oo+O +$  .....................",
"..................... O $o+ooo*ooo+o$ O .....................",
".................... O& o$++#o*o#++$o &O ....................",
".................... &%&ooo *ooo* ooo&%& ....................",
"..................... &% ooo+o+o+ooo %& .....................",
"..............     .   %% o+++++++o %%   ..    ..............",
"............  ++o+  +o+ O ++ + + ++ O +o+  +o++  ............",
"........... O+o%$o X  o+ +  oo oo  + +o  X o$%o+O ...........",
"........... O+o$$ XX & ++ +$o @ o$+ ++ & XX $$o+O ...........",
".......... OO+oo$o XX &   Ooo+ +ooO   & XX o$oo+OO ..........",
".......... OO++ooo+ X %&&Oo  oOo  oO&&% X +ooo++OO ..........",
"..........@O O+oO+ #XX OO @$#@o@#$@ OO XX# +Oo+O O@..........",
"..........@ Oooo+ O##XX@oO@%#@o@#%@Oo@XX##O +oooO @..........",
".......... OooOooO ##X X@+  OoooO  +@X X## OooOooO ..........",
".......... +$+O+o O## ++O ooooooooo O++ ##O o+O+$+ ..........",
".......... Oo+OOo XX ++oo$ o++o++o $oo++ XX oOO+oO ..........",
".......... O++ O+oX@+oo  o+   o   +o  oo+@Xo+O ++O ..........",
".......... +O @ OO @Oooo$ + +OoO+ + $oooO@ OO @ O+ ..........",
"......... O+ XXX   @Oo  o    o+o    o  oO@   XXX +O .........",
"......... OoO#XXXXX Ooo o o O@o@O o o ooO XXXXX#OoO .........",
"........ O+O####XXXXOoo  o  +o@o+  o  ooOXXXXX###O+O ........",
"........ O%O***##XX##O  + XX ooo XX +  O##XX##***O%O ........",
"........ O$O#XXXX###XO   ###X   X###   OX###XXXX#O$O ........",
"........ oO#XXXXXXX   ######XX XX######   XXXXXXX#Oo ........",
"........ OOX   XX  @XXX###  XX@XX  ###XXXX  XX   XOO ........",
".........   XX#  . XXXXX####  @  ####XXXXX .  #XX   .........",
"...........    .... XXXXX#XXX@&@X###XXXXX ....    ...........",
"....................  XX#**  &%&  **#XX  ....................",
".................... XX#**#XX@&@X##**#XX ....................",
".....................  XXXXXXX@XX# XXX  .....................",
"...................... XXX#   X   X @@ ......................",
".....................  XX###X@&@X#XXXX  .....................",
".....................XX XX#  &%&  X XXX    ..................",
"....................    XXXX @&@ XX      +O .................",
".................... @OO X  XX*XX X  OOo%$+O ................",
"................... OOOO X   X@X     +++o%+O ................",
".................. O+o+++ oo  @X oo +O+++O   ................",
".................. +%o+O++ooo   o%o+OOO++ %$  ...............",
".................. o$+OOO++oo $ $ooOO O++o+    ..............",
".................. +%+OO O++ooooo+OOO@@ooo o%$ ..............",
".................. +o+OO@   OO++OO  @@Oo$oo+O ...............",
"................... OOO @@@@       @@OOooooO O ..............",
"................... OO   @  OO+ooo+ @+oo++o %$ ..............",
".................... OOO @@ OO++o+O @+ooOO++   ..............",
"...................  +O+O@@@  O++  @@@++O@  .................",
".................. $@o@o@@@@@@   @@@@@@@@@...................",
".................. @$+@$@@@@@@@@@@@@@@@@@@@..................",
"...................@@@@@@@@@@@@@@.....@@@@...................",
".............................................................",
".............................................................",
"............................................................."
};
