/* XPM */
static char *result[] = {
/* columns rows colors chars-per-pixel */
"60 61 13 1 ",
"  c #2D3019",
". c white",
"X c #5F3C2E",
"o c #ACAE7B",
"O c #888747",
"+ c #40443A",
"@ c #191B00",
"# c #7E543D",
"$ c #F4F6F4",
"% c #4A4C40",
"& c #F8BC79",
"* c #CC7C42",
"= c #A3757A",
/* pixels */
"............................................................",
"............................................................",
"............................................................",
"............................................................",
"............................................................",
"............................................................",
"...................... ......   ...... .....................",
"..................... o .... OoO .... o ....................",
"..................... Oo .. +o$o+ .. oO ....................",
"...................... $O  ++ooo++  O$ .....................",
".....................  $O +Ooo#ooO+ O$  ....................",
"..................... + $oOooo=oooOo$ + ....................",
".................... +* o$OO#o=o#OO$o *+ ...................",
".................... *&*ooo =ooo= ooo*&* ...................",
"..................... *& oooOoOoOooo &* ....................",
"..............     .   && oOOOOOOOo &&   ..    .............",
"............  OOoO  OoO + OO O O OO + OoO  OoOO  ...........",
"........... %Oo&$o X  oO O  oo oo  O Oo  X o$&oO% ..........",
"........... %Oo$$ XX * OO O$o @ o$O OO * XX $$oO% ..........",
".......... %%Ooo$o XX *   +ooO Ooo+   * XX o$ooO%% .........",
".......... %%OOoooO X &**+o  o+o  o+**& X OoooOO%% .........",
"..........@% %Oo%O #XX ++ @$#@o@#$@ ++ XX# O%oO% %@.........",
"..........@ %oooO +##XX@o+@&#@o@#&@+o@XX##+ Oooo% @.........",
".......... %oo%oo% ##X X@O  +ooo+  O@X X## +oo%oo% .........",
".......... O$O+Oo +## OO+ ooooooooo +OO ##+ oO+O$O .........",
".......... +oO++o XX OOoo$ oOOoOOo $ooOO XX o++Oo+ .........",
".......... +OO +OoX@Ooo  oO   o   Oo  ooO@XoO+ OO+ .........",
".......... O+ @ ++ @+ooo$ O O+o+O O $ooo+@ ++ @ +O .........",
"......... +O XXX   @+o  o    oOo    o  o+@   XXX O+ ........",
"......... +o+#XXXXX +oo o o +@o@+ o o oo+ XXXXX#+o+ ........",
"........ +O+###XXXXX+oo  o  Oo@oO  o  oo+XXXXX###+O+ .......",
"........ +&+===##XX##+  O XX ooo XX O  +##XX##===+&+ .......",
"........ +$+#XXXX###X+   ###X   X###   +X###XXXX#+$+ .......",
"........ o+#XXXXXXX   ######XX XX######   XXXXXXX#+o .......",
"........ ++X   XX  @XXX###  XX@XX  ###XXXX  XX   X++ .......",
".........   XX#  . XXXXX####  @  ####XXXXX .  #XX   ........",
"...........    .... XXXXX#XXX@*@X###XXXXX ....    ..........",
"....................  XX#==  *&*  ==#XX  ...................",
".................... XX#==#XX@*@X##==#XX ...................",
".....................  XXXXXXX@XX# XXX  ....................",
"...................... XXX#   X   X @X .....................",
".....................  XX###X@*@X#XXXX  ....................",
"..................    X XX#  *&*  X X XX....................",
"................. +O      XX @*@ XXXX    ...................",
"................ +O$&o++    XX=XX XX ++@ ...................",
"................ +O&oOOO     X@X   X ++++ ..................",
"................   +OOO+O oo X@  oo OOOoO+ .................",
"...............  $& OO+++Oo&o   oooOO+Oo&O .................",
"..............    OoOO+ ++oo$ $ ooOO+++O$o .................",
".............. $&o ooo@@+++OoooooOO+ ++O&O .................",
"............... +Ooo$o+@@  ++OO++   @++OoO .................",
".............. + +oooo++@@       @@@@ +++ ..................",
".............. $& oOOooO@ OoooO++  @   ++ ..................",
"..............   OO++ooO@ +OoOO++ @@ +++ ...................",
".................  @+OO@@@  OO+  @@@+O+O  ..................",
"...................@@@@@@@@@   @@@@@@o@o@$ .................",
"..................@@@@@@@@@@@@@@@@@@@$@O$@ .................",
"...................@@@@.....@@@@@@@@@@@@@@..................",
"............................................................",
"............................................................",
"............................................................"
};
