/* XPM */
static char *result[] = {
/* columns rows colors chars-per-pixel */
"60 60 12 1 ",
"  c #2D3019",
". c #ACAE7B",
"X c #5F3C2E",
"o c white",
"O c #888747",
"+ c #40443A",
"@ c #7E543D",
"# c #191B00",
"$ c #F4F6F4",
"% c #A3757A",
"& c #F8BC79",
"* c #CC7C42",
/* pixels */
"oooooooooooooooooooooooooooooooooooooooooooooooooooooooooooo",
"oooooooooooooooooooooooooooooooooooooooooooooooooooooooooooo",
"oooooooooooooooooooooooooooooooooooooooooooooooooooooooooooo",
"oooooooooooooooooooooo oooooo   oooooo ooooooooooooooooooooo",
"ooooooooooooooooooooo . oooo O.O oooo . oooooooooooooooooooo",
"ooooooooooooooooooooo O. oo +.$.+ oo .O oooooooooooooooooooo",
"oooooooooooooooooooooo $O  ++...++  O$ ooooooooooooooooooooo",
"ooooooooooooooooooooo  $O +O..@..O+ O$  oooooooooooooooooooo",
"ooooooooooooooooooooo + $.O...%...O.$ + oooooooooooooooooooo",
"oooooooooooooooooooo +* .$OO@.%.@OO$. *+ ooooooooooooooooooo",
"oooooooooooooooooooo *&*... %...% ...*&* ooooooooooooooooooo",
"ooooooooooooooooooooo *& ...O.O.O... &* oooooooooooooooooooo",
"oooooooooooooo    oo   && .OOOOOOO. &&   oo    ooooooooooooo",
"oooooooooooo  O.OO  O.O + OO O O OO + O.O  OO.O  ooooooooooo",
"ooooooooooo +.&$.O X  .O O  .. ..  O O.  X O.$&.+ oooooooooo",
"ooooooooooo ..$$$ XX * OO O$. # .$O OO * XX $$$.. oooooooooo",
"oooooooooo +...$.. XX *   +..O O..+   * XX ..$...+ ooooooooo",
"oooooooooo  .OOO..O X &**+.  .+.  .+**& X O..OOO.  ooooooooo",
"oooooooooo +O++OO. @XX ++ #$@#.#@$# ++ XX@ .OO++O+ ooooooooo",
"ooooooooo ..O+ +.O @@XXO.+#&@#.#@&#+.OXX@@ O.+ +O.. oooooooo",
"oooooooo O..+....+ @@XX #O  +...+  O# XX@@ +....+..O ooooooo",
"oooooooo#+.+.$$.O +@@@XX*#.........#*XX@@@+ O.$$.+.+#ooooooo",
"ooooo  #++O+.$.OO XX@@@@ +O.OO.OO.O+ @@@@XX OO.$.+O++#  oooo",
"oooo . &.OO+...O +.X@@@@@ OO  .  OO @@@@@X.+ O...+OO.& . ooo",
"oooo  $+++++O..O O. X@@@@ O.O+.+O.O @@@@X .O O..O+++++$  ooo",
"oooo XXXXX  +OO+#O X @X@@@   .O.   @@@X@ X O#+OO+  XXXXX ooo",
"ooo  XX%XXX  ++ #O XX@X@@@ O+#.#+O @@@X@XX O# ++  XXX%XX  oo",
"ooo XXX%XXXX   o +XX X%%@@X O.#.O X@@%%X XX+ o   XXXX%XXX oo",
"ooo X@X@%XX ooooo XXX  %%@XX ... XX@%%  XXX ooooo XX%@X@X oo",
"ooo X@X@@XX#ooooo X X@@@@%@@X   X@@%@@@@X X ooooo#XX@@X@X oo",
"ooo XX@@@X+    ooo XXX@@@@@@XX XX@@@@@@XXX ooo    +X@@@XX oo",
"oooo  XXX+++O.O oo #XXX@@@  XX#XX  @@@XXXX oo O.O+++XXX  ooo",
"oooooo  +O...$.  o XXXXX@@@@  #  @@@@XXXXX o  .$...O+  ooooo",
"oooooooo ..+. ..+ o XXXXX@XXX#*#X@@@XXXXX o +.. .+.. ooooooo",
"oooooooo . ++.# . oo  XX@%%  *&*  %%@XX  oo . #.++ . ooooooo",
"ooooooo .O#  .# O oo XX@%%@XX#*#X@@%%@XX oo O #.  #O. oooooo",
"ooooooo . oo O O+ ooo  XXXXXXX#XX@ XXX  ooo +O O oo . oooooo",
"ooooooo O o O    ooooo XXX@   X   X ## ooooo    O o O oooooo",
"oooooooo  o  ooooooooo XX@@@X#*#X@XXXX ooooooooo  o  ooooooo",
"ooooooooooooooooooooo X XX@  *&*  X XXX oooooooooooooooooooo",
"oooooooooooooooooooo X  XXXX #*# XX   X  ooooooooooooooooooo",
"oooooooooooooooooo  ++ + X  XX%XX X  +  +  ooooooooooooooooo",
"ooooooooooooooooo OOOO++ X O X#X O   ++OOOO oooooooooooooooo",
"oooooooooooooooo OO.OOO+O O.O XX .O O+OOO.OO ooooooooooooooo",
"ooooooooooooooo +O&.OOOO+OO.&.  &.OO+OOOO.&O+ oooooooooooooo",
"ooooooooooooooo +O$..O++++O..$$ ..O++++O..$O+ oooooooooooooo",
"ooooooooooooooo +O.&.++# ++O.....O++ #++.&.O+ oooooooooooooo",
"oooooooooooooooo +OOO+++#  ++O.O++  #+++OOO+ ooooooooooooooo",
"oooooooooooooooo  +++++ ##         ## +++++  ooooooooooooooo",
"ooooooooooooooooo## ++   # O.OOO.O #   ++ ##oooooooooooooooo",
"oooooooooooooooo +.O++++ # +O...O+ # ++++O.+ ooooooooooooooo",
"ooooooooooooooo O.+..OO  ##  OOO  ##  OO..+.O oooooooooooooo",
"ooooooooooooooo $ &O &O #####   ##### O& O& $ oooooooooooooo",
"oooooooooooooooo  $  $ ############### $  $  ooooooooooooooo",
"ooooooooooooooooo      #ooooooooooooo#      oooooooooooooooo",
"oooooooooooooooooooooooooooooooooooooooooooooooooooooooooooo",
"oooooooooooooooooooooooooooooooooooooooooooooooooooooooooooo",
"oooooooooooooooooooooooooooooooooooooooooooooooooooooooooooo",
"oooooooooooooooooooooooooooooooooooooooooooooooooooooooooooo",
"oooooooooooooooooooooooooooooooooooooooooooooooooooooooooooo"
};
