/* XPM */
static char *result[] = {
/* columns rows colors chars-per-pixel */
"55 56 12 1 ",
"  c #40443A",
". c #888747",
"X c #ACAE7B",
"o c #2D3019",
"O c white",
"+ c #5F3C2E",
"@ c #191B00",
"# c #7E543D",
"$ c #F4F6F4",
"% c #F8BC79",
"& c #A3757A",
"* c #CC7C42",
/* pixels */
"OOOOOOOOOOOOOOOOOOOOOOOOOOOOOOOOOOOOOOOOOOOOOOOOOOOOOOO",
"OOOOOOOOOOOOOOOOOOOOOOOOOOOOOOOOOOOOOOOOOOOOOOOOOOOOOOO",
"OOOOOOOOOOOOOOOOOOOOOOOOOOOOOOOOOOOOOOOOOOOOOOOOOOOOOOO",
"OOOOOOOOOOOOOOOOOOOOOOOOOOOOOOOOOOOOOOOOOOOOOOOOOOOOOOO",
"OOOOOOOOOOOOOOOOOOOOoOOOOOOoooOOOOOOoOOOOOOOOOOOOOOOOOO",
"OOOOOOOOOOOOOOOOOOOoXoOOOOo.X.oOOOOoXoOOOOOOOOOOOOOOOOO",
"OOOOOOOOOOOOOOOOOOOo.XoOOo X$X oOOoX.oOOOOOOOOOOOOOOOOO",
"OOOOOOOOOOOOOOOOOOOOo$.oo  XXX  oo.$oOOOOOOOOOOOOOOOOOO",
"OOOOOOOOOOOOOOOOOOOoo$.o .XX#XX. o.$ooOOOOOOOOOOOOOOOOO",
"OOOOOOOOOOOOOOOOOOOo o$X.XXX&XXX.X$o oOOOOOOOOOOOOOOOOO",
"OOOOOOOOOOOOOOOOOOo *oX$..#X&X#..$Xo* oOOOOOOOOOOOOOOOO",
"OOOOOOOOOOOOOOOOOoo*%*XXXo&XXX&oXXX*%*ooOOOOOOOOOOOOOOO",
"OOOOOOOOOOOOOOOoo++o*%oXXX.X.X.XXXo%*o++ooOOOOOOOOOOOOO",
"OOOOOOOOOOOOOOo+++ooo%%oX.......Xo%%ooo+++oOOOOOOOOOOOO",
"OOOOOOOOOOOOooooo+.X.o o..o.o.o..o o.X.+oooooOOOOOOOOOO",
"OOOOOOOOOOoo .X o+ooX.o.ooXXoXXoo.o.Xoo+o X. ooOOOOOOOO",
"OOOOOOOOOo .$$%o++o*o..o.$Xo@oX$.o..o*o++o%$$. oOOOOOOO",
"OOOOOOOOOo.$$XXXo++o*ooo XX.o.XX ooo*o++oXXX$$.oOOOOOOO",
"OOOOOOOOo X%X....o+o%** X  X X  X **%o+o....X%X oOOOOOO",
"OOOOOOOOo.XX. ..o#++o  o@$#@X@#$@o  o++#o.. .XX.oOOOOOO",
"OOOOOOOOo .X  .X ##++.X . #@X@# . X.++## X.  X. oOOOOOO",
"OOOOOOOOoo..  X.o##+#o@.XX. o .XX.@o#+##o.X  ..ooOOOOOO",
"OOOOOOOo oX  XX. o####@ .X..X..X. @####o .XX  Xo oOOOOO",
"OOOOOOOo .  .X%X. o#+o.%X.ooXoo.X%.o+#o .X%X.  . oOOOOO",
"OOOOOOOo.X  .X$X. o#+oXoooX o XoooXo+#o .X$X.  X.oOOOOO",
"OOOOOOOo$X  .X%.. o+#o.o*%oX Xo%*o.o#+o ..%X.  X$oOOOOO",
"OOOOOOOo$X  o.X. @+++#oX.%$***$%.Xo#+++@ .X.o  X$oOOOOO",
"OOOOOOOo.X.  o@@o++&&#+oo..$$$..oo+#&&++o@@o  .X.oOOOOO",
"OOOOOOOo...oo+++@o+##&+ooo ... ooo+&##+o@+++oo...oOOOOO",
"OOOOOOOo .X +++++oo+#+oXXX ooo XXXo+#+oo+++++ X. oOOOOO",
"OOOOOOOOo X ###+++ooooXXX$Xo+oX$XXXoooo+++### X oOOOOOO",
"OOOOOOOOo  +#&##++++ .X.  XoooX  .X. ++++##&#+  oOOOOOO",
"OOOOOOOOoo ++#&##++ .XX. o XoX o .XX. ++##&#++ ooOOOOOO",
"OOOOOOOOO@ +#&&&### XX..$Xo.o.oX$..XX ###&&&#+ @OOOOOOO",
"OOOOOOOOOo+###++++# ..X  XXo#oXX  X.. #++++###+oOOOOOOO",
"OOOOOOOOOo ++++##++oo.XXoo.o#o.ooXX.oo++##++++ oOOOOOOO",
"OOOOOOOOOOoo@+++ooooooo Xoo@*@ooX ooooooo+++@ooOOOOOOOO",
"OOOOOOOOOOOO@@ooOOO++o+oooo*%*oooo+++oOOOoo@@OOOOOOOOOO",
"OOOOOOOOOOOOOOOOOOoooo++++o@*@o++ooooooOOOOOOOOOOOOOOOO",
"OOOOOOOOOOOOOOOOooo@o o+oo++&++o+oo o  ooOOOOOOOOOOOOOO",
"OOOOOOOOOOOOOOOo....  o+ooo+@+ooooo  ....oOOOOOOOOOOOOO",
"OOOOOOOOOOOOOOo..X... .o.X.o++oX.o. ...X..oOOOOOOOOOOOO",
"OOOOOOOOOOOOOo .%X.... ..X%Xoo%X.. ....X%. oOOOOOOOOOOO",
"OOOOOOOOOOOOOo .$XX.    .XX$$oXX.    .XX$. oOOOOOOOOOOO",
"OOOOOOOOOOOOOo .X%X  @o  .XXXXX.  o@  X%X. oOOOOOOOOOOO",
"OOOOOOOOOOOOOOo ...   @oo  .X.  oo@   ... oOOOOOOOOOOOO",
"OOOOOOOOOOOOOOoo     o@@ooooooooo@@o     ooOOOOOOOOOOOO",
"OOOOOOOOOOOOOOO@@o  ooo@o.X...X.o@ooo  o@@OOOOOOOOOOOOO",
"OOOOOOOOOOOOOOo X.    o@o .XXX. o@o    .X oOOOOOOOOOOOO",
"OOOOOOOOOOOOOo.X XX..oo@@oo...oo@@oo..XX X.oOOOOOOOOOOO",
"OOOOOOOOOOOOOo$o%.o%.o@@@@@ooo@@@@@o.%o.%o$oOOOOOOOOOOO",
"OOOOOOOOOOOOOOoo$oo$o@@@@@@@@@@@@@@@o$oo$ooOOOOOOOOOOOO",
"OOOOOOOOOOOOOOOoooooo@OOOOOOOOOOOOO@ooooooOOOOOOOOOOOOO",
"OOOOOOOOOOOOOOOOOOOOOOOOOOOOOOOOOOOOOOOOOOOOOOOOOOOOOOO",
"OOOOOOOOOOOOOOOOOOOOOOOOOOOOOOOOOOOOOOOOOOOOOOOOOOOOOOO",
"OOOOOOOOOOOOOOOOOOOOOOOOOOOOOOOOOOOOOOOOOOOOOOOOOOOOOOO"
};
