/* XPM */
static char *result[] = {
/* columns rows colors chars-per-pixel */
"65 67 12 1 ",
"  c #2D3019",
". c #888747",
"X c white",
"o c #ACAE7B",
"O c #40443A",
"+ c #5F3C2E",
"@ c #7E543D",
"# c #191B00",
"$ c #F4F6F4",
"% c #F8BC79",
"& c #A3757A",
"* c #CC7C42",
/* pixels */
"XXXXXXXXXXXXXXXXXXXXXXXXXXXXXXXXXXXXXXXXXXXXXXXXXXXXXXXXXXXXXXXXX",
"XXXXXXXXXXXXXX   XXXXXXXXXXXXXXXXXXXXXXXXXXXXXXXXXXX   XXXXXXXXXX",
"XXXXXXXXXXXXX o.O    XXXXXXXXX  XXXXX  XXXXXXXXX    O.o XXXXXXXXX",
"XXXXXXXXXXXXX .oO Ooo  XXXX    O XXX O    XXXX  ooO Oo. XXXXXXXXX",
"XXXXXXXXXXXXX .$Ooo$$O@ XXX .  . XXX .  . XXX @O$$ooO$. XXXXXXXXX",
"XXXXXXXXXXXXX .o$$$$O&&@   . o o     o o .   @&&O$$$$o. XXXXXXXXX",
"XXXXXXXXXXXXX O.o$o.O@@@++  o #Oo. .oO# o  ++@@@O.o$o.O XXXXXXXXX",
"XXXXXXXXXXXXX O.... +++@@+++    .o o.    +++@@+++ ....O XXXXXXXXX",
"XXXXXXXXXXXX OOO   #++++@@@++ .ooO Ooo. ++@@@++++#   OOO XXXXXXXX",
"XXXXXXXXXXX .OO#     +++++++O.ooo   ooo.O+++++++     #OO. XXXXXXX",
"XXXXXXXXXXX . ## .%oo#++++  .ooO     Ooo.  ++++#oo%. ## . XXXXXXX",
"XXXXXXXXXXX oO O.%$$oo### o OOO  .o.  OOO o ###oo$$%.O Oo XXXXXXX",
"XXXXXXXXXXX o.O.o$$$oo. O .o O  Oo$oO  O o. O .oo$$$o.O.o XXXXXXX",
"XXXXXXXXXXX ..Oooo$o...O O $.  OOoooOO  .$ O O...o$oooO.. XXXXXXX",
"XXXXXXXXXXXX o.ooooo..OO   $. O.oo@oo.O .$   OO..ooooo.o XXXXXXXX",
"XXXXXXXXXXXX .oooo.o.O O  O $o.ooo&ooo.o$ O  O O.o.oooo. XXXXXXXX",
"XXXXXXXXXXXX  ..oOO.%o O O* o$..@o&o@..$o *O O o%.OOo..  XXXXXXXX",
"XXXXXXXXXXXXX  Oo.O..$o  *%*ooo &ooo& ooo*%*  o$..O.oO  XXXXXXXXX",
"XXXXXXXXXXXXX . o.O ..$.# *% ooo.o.o.ooo %* #.$.. O.o . XXXXXXXXX",
"XXXXXXXXXXXXX .Oo..O .oo   %% o.......o %%   oo. O..oO. XXXXXXXXX",
"XXXXXXXXXXXXX .ooo.O    .o. O .. . . .. O .o.    O.ooo. XXXXXXXXX",
"XXXXXXXXXXXXXX .o..O #O+  o. .  oo oo  . .o  +O# O..o. XXXXXXXXXX",
"XXXXXXXXXXXXXX .... ## + * .. .$o # o$. .. * + ## .... XXXXXXXXXX",
"XXXXXXXXXXXXXXX ..O # O++ *   Ooo. .ooO   * ++O # O.. XXXXXXXXXXX",
"XXXXXXXXXXXXXXX OOO #OO + %**Oo  oOo  oO**% + OO# OOO XXXXXXXXXXX",
"XXXXXXXXXXXXXXXX OOO O @++ OO #$@#o#@$# OO ++@ O OOO XXXXXXXXXXXX",
"XXXXXXXXXXXXXXXXX #OOO @@++.oO#%@#o#@%#Oo.++@@ OOO# XXXXXXXXXXXXX",
"XXXXXXXXXXXXXXXXXXX#OO @@++ #.  OoooO  .# ++@@ OO#XXXXXXXXXXXXXXX",
"XXXXXXXXXXXXXXXXXXX#. O@@@++*#ooooooooo#*++@@@O .#XXXXXXXXXXXXXXX",
"XXXXXXXXXXXXXXXXXXX . ++@@@@ O.o..o..o.O @@@@++ . XXXXXXXXXXXXXXX",
"XXXXXXXXXXXXXXXXXXX .o.+@@@@@ ..  o  .. @@@@@+.o. XXXXXXXXXXXXXXX",
"XXXXXXXXXXXXXXXXXXX Oo  +@@@@ .o.OoO.o. @@@@+  oO XXXXXXXXXXXXXXX",
"XXXXXXXXXXXXXXXXXXXX o + @+@@@   o.o   @@@+@ + o XXXXXXXXXXXXXXXX",
"XXXXXXXXXXXXXXXXXXXX . ++@+@@@ .O#o#O. @@@+@++ . XXXXXXXXXXXXXXXX",
"XXXXXXXXXXXXXXXXXXXX O++ +&&@@+ .o#o. +@@&&+ ++O XXXXXXXXXXXXXXXX",
"XXXXXXXXXXXXXXXXXXXXX +++  &&@++ ooo ++@&&  +++ XXXXXXXXXXXXXXXXX",
"XXXXXXXXXXXXXXXXXXXXX + +@@@@&@@+   +@@&@@@@+ + XXXXXXXXXXXXXXXXX",
"XXXXXXXXXXXXXXXXXXXXXX +++@@@@@@++ ++@@@@@@+++ XXXXXXXXXXXXXXXXXX",
"XXXXXXXXXXXXXXXXXXXXXX #+++@@@  ++#++  @@@++++ XXXXXXXXXXXXXXXXXX",
"XXXXXXXXXXXXXXXXXXXXXX +++++@@@@  #  @@@@+++++ XXXXXXXXXXXXXXXXXX",
"XXXXXXXXXXXXXXXXXXXXXXX +++++@+++#*#+@@@+++++ XXXXXXXXXXXXXXXXXXX",
"XXXXXXXXXXXXXXXXXXXXXXXX  ++@&&  *%*  &&@++  XXXXXXXXXXXXXXXXXXXX",
"XXXXXXXXXXXXXXXXXXXXXXXX ++@&&@++#*#+@@&&@++ XXXXXXXXXXXXXXXXXXXX",
"XXXXXXXXXXXXXXXXXXXXXXXXX  +++++++#++@ +++  XXXXXXXXXXXXXXXXXXXXX",
"XXXXXXXXXXXXXXXXXXXXXXXXXX +++@   +   + ## XXXXXXXXXXXXXXXXXXXXXX",
"XXXXXXXXXXXXXXXXXXXXXXXXXX ++@@@+#*#+@++++ XXXXXXXXXXXXXXXXXXXXXX",
"XXXXXXXXXXXXXXXXXXXXXXXXX + ++@  *%*  + +++ XXXXXXXXXXXXXXXXXXXXX",
"XXXXXXXXXXXXXXXXXXXXXXXX +  ++++ #*# ++   +  XXXXXXXXXXXXXXXXXXXX",
"XXXXXXXXXXXXXXXXXXXXXX  OO O +  ++&++ +  O  O  XXXXXXXXXXXXXXXXXX",
"XXXXXXXXXXXXXXXXXXXXX ....OO + . +#+ .   OO.... XXXXXXXXXXXXXXXXX",
"XXXXXXXXXXXXXXXXXXXX ..o...O. .o. ++ o. .O...o.. XXXXXXXXXXXXXXXX",
"XXXXXXXXXXXXXXXXXXX O.%o....O..o%o  %o..O....o%.O XXXXXXXXXXXXXXX",
"XXXXXXXXXXXXXXXXXXX O.$oo.OOOO.oo$$ oo.OOOO.oo$.O XXXXXXXXXXXXXXX",
"XXXXXXXXXXXXXXXXXXX O.o%oOO# OO.ooooo.OO #OOo%o.O XXXXXXXXXXXXXXX",
"XXXXXXXXXXXXXXXXXXXX O...OOO#  OO.o.OO  #OOO...O XXXXXXXXXXXXXXXX",
"XXXXXXXXXXXXXXXXXXXX  OOOOO ##         ## OOOOO  XXXXXXXXXXXXXXXX",
"XXXXXXXXXXXXXXXXXXXXX## OO   # .o...o. #   OO ##XXXXXXXXXXXXXXXXX",
"XXXXXXXXXXXXXXXXXXXX Oo.OOOO # O.ooo.O # OOOO.oO XXXXXXXXXXXXXXXX",
"XXXXXXXXXXXXXXXXXXX .oOoo..  ##  ...  ##  ..ooOo. XXXXXXXXXXXXXXX",
"XXXXXXXXXXXXXXXXXXX $ %. %. #####   ##### .% .% $ XXXXXXXXXXXXXXX",
"XXXXXXXXXXXXXXXXXXXX  $  $ ############### $  $  XXXXXXXXXXXXXXXX",
"XXXXXXXXXXXXXXXXXXXXX      #XXXXXXXXXXXXX#      XXXXXXXXXXXXXXXXX",
"XXXXXXXXXXXXXXXXXXXXXXXXXXXXXXXXXXXXXXXXXXXXXXXXXXXXXXXXXXXXXXXXX",
"XXXXXXXXXXXXXXXXXXXXXXXXXXXXXXXXXXXXXXXXXXXXXXXXXXXXXXXXXXXXXXXXX",
"XXXXXXXXXXXXXXXXXXXXXXXXXXXXXXXXXXXXXXXXXXXXXXXXXXXXXXXXXXXXXXXXX",
"XXXXXXXXXXXXXXXXXXXXXXXXXXXXXXXXXXXXXXXXXXXXXXXXXXXXXXXXXXXXXXXXX",
"XXXXXXXXXXXXXXXXXXXXXXXXXXXXXXXXXXXXXXXXXXXXXXXXXXXXXXXXXXXXXXXXX"
};
