/* XPM */
static char *result[] = {
/* columns rows colors chars-per-pixel */
"62 58 12 1 ",
"  c #2D3019",
". c #888747",
"X c #ACAE7B",
"o c #5F3C2E",
"O c white",
"+ c #40443A",
"@ c #7E543D",
"# c #191B00",
"$ c #F4F6F4",
"% c #F8BC79",
"& c #A3757A",
"* c #CC7C42",
/* pixels */
"OOOOOOOOOOOOOOOOOOOOOOOOOOOOOOOOOOOOOOOOOOOOOOOOOOOOOOOOOOOOOO",
"OOOOOOOOOOOOOOOOOOOOOOOOOOOOOOOOOOOOOOOOOOOOOOOOOOOOOOOOOOOOOO",
"OOOOOOOOOOOOOOOOOOOOOOOOOOOOOOOOOOOOOOOOOOOOOOOOOOOOOOOOOOOOOO",
"OOOOOOOOOOOOOOOOOOOOOOO OOOOOO   OOOOOO OOOOOOOOOOOOOOOOOOOOOO",
"OOOOOOOOOOOOOOOOOOOOOO X OOOO .X. OOOO X OOOOOOOOOOOOOOOOOOOOO",
"OOOOOOOOOOOOOOOOOOOOOO .X OO +X$X+ OO X. OOOOOOOOOOOOOOOOOOOOO",
"OOOOOOOOOOOOOOOOOOOOOOO $.  ++XXX++  .$ OOOOOOOOOOOOOOOOOOOOOO",
"OOOOOOOOOOOOOOOOOOOOOO  $. +.XX@XX.+ .$  OOOOOOOOOOOOOOOOOOOOO",
"OOOOOOOOOOOOOOOOOOOOOO + $X.XXX&XXX.X$ + OOOOOOOOOOOOOOOOOOOOO",
"OOOOOOOOOOOOOOOOOOOOO +* X$..@X&X@..$X *+ OOOOOOOOOOOOOOOOOOOO",
"OOOOOOOOOOOOOOOOOOOOO *%*XXX &XXX& XXX*%* OOOOOOOOOOOOOOOOOOOO",
"OOOOOOOOOOOOOO    OOOO *% XXX.X.X.XXX %* OOOO    OOOOOOOOOOOOO",
"OOOOOOOOOOOO  ...X OO   %% X.......X %%   OO X...  OOOOOOOOOOO",
"OOOOOOOOOOO +.X%$XX  .X. + .. . . .. + .X.  XX$%X.+ OOOOOOOOOO",
"OOOOOOOOOO  +.X$$$X o  X. .  XX XX  . .X  o X$$$X.+  OOOOOOOOO",
"OOO        X+..X$X oo * .. .$X # X$. .. * oo X$X..+X        OO",
"OOO XXX  X$XX.+XXXX oo *   +XX. .XX+   * oo XXXX+.XX$X  XXX OO",
"OO +%$X+.XXX..++.XX. o %**+X  X+X  X+**% o .XX.++..XXX.+X$%+ O",
"OO ++$$X+...++  +X. @oo ++ #$@#X#@$# ++ oo@ .X+  ++...+X$$++ O",
"O   o++X++  +.XXXX. @@oo.X+   #X#   +X.oo@@ .XXXX.+  ++X++o   ",
"O o ooo+++ +.X$$%X+ @@oo #.XXXXXXXXX.# oo@@ .X%$$X.+ +++ooo o ",
"O oo&@@oo+++.X%X.+ +@@@oo#+.X..X..X.+#oo@@@+ +.X%X.+++oo@@&oo ",
"O @o&@ooo#++...X++ oo@@@@  ..  X  ..  @@@@oo ++X...++#ooo@&o@ ",
"O @o@&oo #  +...  +Xo@@@@ .%X.+X+.X%. @@@@oX+  ...+  # oo&@o@ ",
"O o@@@oo OOO    ##.X o@@@ X  .X.X.##X @@@o X.##    OOO oo@@@o ",
"OO o@ooo OOOOOOOO#. o @o@ .X.#####.X. @o@ o .#OOOOOOOO ooo@o O",
"OO oooo OOOOOOOOO . oo@o@@  XX###XX  @@o@oo . OOOOOOOOO oooo O",
"OOO ooo OOOOOOOOO +oo o&&@@o  XXX  o@@&&o oo+ OOOOOOOOO ooo OO",
"OOO oo  OOOOOOOOOO ooo  &&@oo     oo@&&  ooo OOOOOOOOOO  oo OO",
"OO .++   OOOOOOOOO o o@@@@&@@o   o@@&@@@@o o OOOOOOOOO   ++. O",
"OO .XXXXX   OOOOOOO ooo@@@@@@oo oo@@@@@@ooo OOOOOOO   XXXXX. O",
"OO .XXX.$XX$ OOOOOO #ooo@@@  oo#oo  @@@oooo OOOOOO $XX$.XXX. O",
"OO ++X++X++X  OOOOO ooooo@@@@  #  @@@@ooooo OOOOO  X++X++X++ O",
"OOO  X  X  .X. OOOOO ooooo@ooo#*#o@@@ooooo OOOOO .X.  X  X  OO",
"OOO X   .X     OOOOOO  oo@&&  *%*  &&@oo  OOOOOO     X.   X OO",
"OOO . OO X OOOOOOOOOO oo@&&@oo#*#o@@&&@oo OOOOOOOOOO X OO . OO",
"OOOO  OO . OOOOOOOOOOO  ooooooo#oo@ ooo  OOOOOOOOOOO . OO  OOO",
"OOOOOOOOO  OOOOOOOOOOOO ooo@   o   o ## OOOOOOOOOOOO  OOOOOOOO",
"OOOOOOOOOOOOOOOOOOOOOO o oo@@o#*#o@o ooo OOOOOOOOOOOOOOOOOOOOO",
"OOOOOOOOOOOOOOOOOOOOO o  ooo  *%*  o   o  OOOOOOOOOOOOOOOOOOOO",
"OOOOOOOOOOOOOOOOOOO  ++ + o   #*#  o  +  +  OOOOOOOOOOOOOOOOOO",
"OOOOOOOOOOOOOOOOOO ....++ o . o#o .   ++.... OOOOOOOOOOOOOOOOO",
"OOOOOOOOOOOOOOOOO ..X...+. .X. oo X. .+...X.. OOOOOOOOOOOOOOOO",
"OOOOOOOOOOOOOOOO +.%X....+..X%X  %X..+....X%.+ OOOOOOOOOOOOOOO",
"OOOOOOOOOOOOOOOO +.$XX.++++.XX$$ XX.++++.XX$.+ OOOOOOOOOOOOOOO",
"OOOOOOOOOOOOOOOO +.X%X++# ++.XXXXX.++ #++X%X.+ OOOOOOOOOOOOOOO",
"OOOOOOOOOOOOOOOOO +...+++#  ++.X.++  #+++...+ OOOOOOOOOOOOOOOO",
"OOOOOOOOOOOOOOOOO  +++++ ##         ## +++++  OOOOOOOOOOOOOOOO",
"OOOOOOOOOOOOOOOOOO## ++   # .X...X. #   ++ ##OOOOOOOOOOOOOOOOO",
"OOOOOOOOOOOOOOOOO +X.++++ # +.XXX.+ # ++++.X+ OOOOOOOOOOOOOOOO",
"OOOOOOOOOOOOOOOO .X+XX..  ##  ...  ##  ..XX+X. OOOOOOOOOOOOOOO",
"OOOOOOOOOOOOOOOO $ %. %. #####   ##### .% .% $ OOOOOOOOOOOOOOO",
"OOOOOOOOOOOOOOOOO  $  $ ############### $  $  OOOOOOOOOOOOOOOO",
"OOOOOOOOOOOOOOOOOO      #OOOOOOOOOOOOO#      OOOOOOOOOOOOOOOOO",
"OOOOOOOOOOOOOOOOOOOOOOOOOOOOOOOOOOOOOOOOOOOOOOOOOOOOOOOOOOOOOO",
"OOOOOOOOOOOOOOOOOOOOOOOOOOOOOOOOOOOOOOOOOOOOOOOOOOOOOOOOOOOOOO",
"OOOOOOOOOOOOOOOOOOOOOOOOOOOOOOOOOOOOOOOOOOOOOOOOOOOOOOOOOOOOOO",
"OOOOOOOOOOOOOOOOOOOOOOOOOOOOOOOOOOOOOOOOOOOOOOOOOOOOOOOOOOOOOO"
};
