/* XPM */
static char *result[] = {
/* columns rows colors chars-per-pixel */
"64 61 222 2 ",
"   c #7C0000",
".  c #C00000",
"X  c #770001",
"o  c #B00000",
"O  c #7E0000",
"+  c #9E4949",
"@  c #B80000",
"#  c white",
"$  c #750202",
"%  c #5F0101",
"&  c #860000",
"*  c #660000",
"=  c #6C0201",
"-  c #9C0000",
";  c #8E0101",
":  c #780303",
">  c #A80000",
",  c #570000",
"<  c #CE0000",
"1  c #640000",
"2  c #960000",
"3  c #286318",
"4  c #731C19",
"5  c #600200",
"6  c #337C24",
"7  c #500000",
"8  c #FEFBFB",
"9  c #47A039",
"0  c #680A05",
"q  c #830C0F",
"w  c #6E0F09",
"e  c #124007",
"r  c #100C10",
"t  c #0E1C1B",
"y  c #540303",
"u  c #464D2C",
"i  c #F9F1F1",
"p  c #5A0200",
"a  c #680001",
"s  c #E6BEBE",
"d  c #830203",
"f  c #630501",
"g  c #BD0000",
"h  c #590B06",
"j  c #9A2C2A",
"k  c #7E090A",
"l  c #D6C1C1",
"z  c #6C431B",
"x  c #644219",
"c  c #1C510C",
"v  c #3A8527",
"b  c #411101",
"n  c #F2E1E1",
"m  c #805227",
"M  c #69170A",
"N  c #1A4014",
"B  c #890000",
"V  c #490101",
"C  c #AC0000",
"Z  c #A73131",
"A  c #5A1515",
"S  c #A10000",
"D  c #B50000",
"F  c #720202",
"G  c #452607",
"H  c #59310C",
"J  c #EAADAD",
"K  c #D40B0B",
"L  c #337721",
"P  c #35340B",
"I  c #5D4B1F",
"U  c #9C6234",
"Y  c #1E6318",
"T  c #330A0A",
"R  c #201A1F",
"E  c #1D1415",
"W  c #3C0407",
"Q  c #420708",
"!  c #7E1D1B",
"~  c #C5BDB5",
"^  c #7D8269",
"/  c #E59898",
"(  c #906031",
")  c #BA7879",
"_  c #7B0001",
"`  c #2F1D01",
"'  c #6B5B27",
"]  c #E7CFCF",
"[  c #8D1315",
"{  c #966A68",
"}  c #4D5219",
"|  c #A26362",
" . c #134D0E",
".. c #853C3C",
"X. c #AF6C6C",
"o. c #4C3C12",
"O. c #DACCC6",
"+. c #29170B",
"@. c #3D4928",
"#. c #565B1C",
"$. c #3A401C",
"%. c #691104",
"&. c #338B2D",
"*. c #79390D",
"=. c #352A28",
"-. c #191D15",
";. c #7D140F",
":. c #364511",
">. c #0C2E1E",
",. c #C80303",
"<. c #C36060",
"1. c #A26938",
"2. c #1E2A2A",
"3. c #9A1F1F",
"4. c #B57542",
"5. c #964142",
"6. c #205713",
"7. c #890A0A",
"8. c #AE1C1C",
"9. c #3E9531",
"0. c #51B143",
"q. c #D7B4B6",
"w. c #141505",
"e. c #E7E1E1",
"r. c #EDE6E6",
"t. c #608753",
"y. c #E8A3A3",
"u. c #F9DDDD",
"i. c #F9FAF8",
"p. c #D5817B",
"a. c #611D07",
"s. c #622C0E",
"d. c #31592C",
"f. c #F9BBBA",
"g. c #9F4C4C",
"h. c #4A1402",
"j. c #431414",
"k. c #770D0F",
"l. c #A5BFA0",
"z. c #DCDCCD",
"x. c #706742",
"c. c #BF8787",
"v. c #B40D0D",
"b. c #408127",
"n. c #240D09",
"m. c #A61B0A",
"M. c #677350",
"N. c #1C0505",
"B. c #258225",
"V. c #BC1C12",
"C. c #AA4622",
"Z. c #522415",
"A. c #5B5A34",
"S. c #9C3A1C",
"D. c #1D3724",
"F. c #3E8E2D",
"G. c #4C7223",
"H. c #597629",
"J. c #22521E",
"K. c #5B2B25",
"L. c #323740",
"P. c #0D581D",
"I. c #276E20",
"U. c #931212",
"Y. c #8F2124",
"T. c #D56A6A",
"R. c #913434",
"E. c #8B282A",
"W. c #66332F",
"Q. c #4E9335",
"!. c #E33F3F",
"~. c #E42121",
"^. c #A84545",
"/. c #68D359",
"(. c #772525",
"). c #BA8B8B",
"_. c #81856C",
"`. c #4E6A44",
"'. c #6D735A",
"]. c #FDE6E6",
"[. c #C49999",
"{. c #F69A9A",
"}. c #E67A7A",
"|. c #938381",
" X c #783231",
".X c #F7E4E4",
"XX c #C29696",
"oX c #57A96C",
"OX c #ACD0B6",
"+X c #609450",
"@X c #8D2E22",
"#X c #ADCBA7",
"$X c #8B562B",
"%X c #B3A29D",
"&X c #B47474",
"*X c #787561",
"=X c #9E5051",
"-X c #A45555",
";X c #9F5732",
":X c #610D0D",
">X c #B40A01",
",X c #477622",
"<X c #2C8829",
"1X c #40551C",
"2X c #7F9A7D",
"3X c #B4524E",
"4X c #A83414",
"5X c #4F711B",
"6X c #B27341",
"7X c #ACA582",
"8X c #B33D3D",
"9X c #4A171A",
"0X c #B87843",
"qX c #C0B7AE",
"wX c #AC9489",
"eX c #733C35",
"rX c #417842",
"tX c #A96E3D",
"yX c #7F5127",
"uX c #AD4142",
"iX c #54BC4A",
"pX c #895150",
/* pixels */
"# # # # # # # # # # # # # # # # # # # # # # # # # # # # # # # # # # # # # # # # # # # # # # # # # # # # # # # # # # # # # # # # ",
"# # # # # # # # # # # # # # # # # # # # # # # # # # # # # # # # # # # # # # # # # # # # # # # # # # # # # # # # # # # # # # # # ",
"# # # # # # # # # # # # # # # # # # # # # # # # # # # # # # # # # # # # # # # # # # # # # # # # # # # # # # # # # # # # # # # # ",
"# # # # # # # # # # # # # # # # # # # # # # # # # # # # # # # # # # # # # # # # # # # # # # # # # # # # # # # # # # # # # # # # ",
"# # # # # # # # # # # # # # # # # # # # # # # # # # # # # # # # # # # # # # # # # # # # # # # # # # # # # # # # # # # # # # # # ",
"# # # # # # # # # # # # # # # # # # # # # # # # # # # # # # # # # # # # # # # # # # # # # # # # # # # # # # # # # # # # # # # # ",
"# # # # # # # # # # # # # # # # # # # # # # # # # # # # # # # # # # # # # # # # # # # # # # # # # # # # # # # # # # # # # # # # ",
"# # # # # # # # # # # # # # # # # # # # # # # # # # # # # # # # # # # # # # # # # # # # # # # # # # # # # # # # # # # # # # # # ",
"# # # # # # # # # # # # # # # # # # # # # # # # # # # # # # # # # # # # # # # # # # # # # # # # # # # # # # # # # # # # # # # # ",
"# # # # # # # # # # # # # # # # # # # # # # # # # # # # # # # # # # # # # # # # # # # # # # # # # # # # # # # # # # # # # # # # ",
"# # # # # # # # # # # # # # # # # # # # # # # # # # # # # # # # # # # # # # # # # # # # # # # # # # # # # # # # # # # # # # # # ",
"# # # # # # # # # # # # # # # # # # # # # # # # # # # # # # # # # # # # # # # # # # # # # # # # # # # # # # # # # # # # # # # # ",
"# # # # # # # # # # # # # # # # # # # # # # # # # # # # # # # # # # # # # # # # # # # # # # # # # # # # # # # # # # # # # # # # ",
"# # # # # # # # # # # # # # # # # # # # # # # # # # # # # # # # # # # # # # # # # # # # # # # # # # # # # # # # # # # # # # # # ",
"# # # # # # # # # # # # # # # # # # # # # # # # # # # # # # # # # # # # # # # # # # # # # # # # # # # # # # # # # # # # # # # # ",
"# # # # # # # # # # # # # # # # # # # # # # # # # # # # # # # # # # # # # # # # # # # # # # # # # # # # # # # # # # # # # # # # ",
"# # # # # # # # # # # # # # # # # # # # # # # # # # # # # # # # # # # # # # # # # # # # # # # # # # # # # # # # # # # # # # # # ",
"# # # # # # # # # # # # # # # # # # # # # # # # # # # # # # # # # # # # # # # # # # # # # # # # # # # # # # # # # # # # # # # # ",
"# # # # # # # # # # # # # # # # # # # # # # # # # # # # # # # # # # # # # # # # # # # # # # # # # # # # # # # # # # # # # # # # ",
"# # # # # # # # # # # # # # # # # # # # # # # # # # # # # # # # # # # # # # # # # # # # # # # # # # # # # # # # # # # # # # # # ",
"# # # # # # # # # # # # # # # # # # # # # # # # # # # # # # # # # # # # # # # # # # # # # # # # # # # # # # # # # # # # # # # # ",
"# # # # # # # # # # # # # # # # # # # # # # # # # # # # # # # # # # # # # # # # # # # # # # # # # # # # # # # # # # # # # # # # ",
"# # # # # # # # # # # # # # # # # # # # # # # # # # # # # # # # # # # # # # # # # # # # # # # # # # # # # # # # # # # # # # # # ",
"# # # # # # # # # # # # # # # # # # # # # # # # # # # # # # # # # # # # # # # # # # # # # # # # # # # # # # # # # # # # # # # # ",
"# # # # # # # # # # # # # # # # # # # # # # # # # # # # # # # # # # # # # # # # # # # # # # # # # # # # # # # # # # # # # # # # ",
"# # # # # # # # # # # # # # # # # # # # # # # # # # # # # # # # # # # # # # # # # # # # # # # # # # # # # # # # # # # # # # # # ",
"# # # # # # # # # # # # # # # # # # # # # # # # # # # # # # # # # # # # # # # # # # # # # # # # # # # # # # # # # # # # # # # # ",
"# # # # # # # # # # # # # # # # # # # # # # # # # # # # # # # # # # # # # # # # # # # # # # # # # # # ].{./ n # # # # # # # # # ",
"# # # # # # # # # # # # # # # # # # # # # # # # # # # # # # # # # # # # # # # # # # # # # # # # # # [.$ $ $ ] s # # # # # # # # ",
"# # # # # # # # # # # # # # # # # # # # # # # # # # # # # # # # # # # # # # # # # # # # # # # # # XX$ $ $ $ j Z # # # # # # # # ",
"# # # # # # # # # # # # # # # # # # # # # # # # # # # # # # # # # # # # # # # # # # # # # # # # c.$ $ $ $ $ @Xx.oX# # # # # # # ",
"# # # # # # # # # s j * y h + + + # # # # # # # # # # # # # # # # # # # # # # # # # #       Y.+ $ $ & -   X S 2 f.f.# # # # # # ",
"# # # # # # # # K . * * p y h + -X# # # # # # # # # # # # # # # # # # # # # # # # # #         + $ $ o >   & > > 2 J # # # # # # ",
"# # # # # # # K ,.g @ -   * A K.i . . / # # # # # # # # # # # # # # # # # # # # # # # # # n   + $ $ * * * ; ,.C > J # # # # # # ",
"# # # # # # . D - X * * * 7 k.S . v.+ &X# # # # # # # # # # # # # # # # # # # # # # # # # # 8 i $ $ <.8XU.2 > > @ 7Xz.# # # # # ",
"# # # # | D @ - $ $   * , a [ 4 4 4 + # # # # # s # # # # # # # # # # # # # # # [ i # # # # # s $ $ V y q 7.> @ - rX~ # # # # # ",
"# # # M M 2 o B $ $   , , 7.U.<.4 y ! # # # X.8.. i # # # # # # # # # # # # # #       i # # }.$ $ $ V y k k M v v I.P.i # # # # ",
"# # # OX' ' m ; 2 . & , ,   7 w R.j 3.Z . . . . . 8 # # # # # # # # # # # # # # #     + + Z < $ $ $ Z 5.pX8././.iX9 v O.# # # # ",
"# # # 8 . . . . . . * * & ; 3.<.+ ;.& ; 8.+ + + g.# # # # # # # # # # # 8 n r.).i.# + + + + + $ $ $ O ~.^.Z $ $ $ w 9.v l.# # # ",
"# # # # . . . . . ; * * & [ 3.+ ! 7 , j + + + + X.# # # # # # # # # 8 u.  e.e.r.q X.g.+ + + k $ $ $ B ~.^.: $ $ $ $ 9.F.L # # # ",
"# # # z.O.>X- - ; & 7 5 * ;.; > 1 | j j d c.n n                     / p.                |. X$ $ $ $ T.!.!.= Q.0.0.0.9 9 v #X# # ",
"# # # p.C.4Xm.& & *.z $ a , o o K K V.S   7 eX~ qX+ +               _ _               $ , 1 1 $ = = ! R.uXY.e c 6.3 3 6.c 3 # # ",
"# # # T.;.C.S.= = x I $.$ $ & o ,.g . -     wX~ ~ + E.                              $ $ , 1 a F = = = 0 E.W.e c c z 3 z c c l.# ",
"# # # J 3XS.x.%.x I u @.$.G & & 2 ; ; - - < . B                 k.< D o C $ > o o 0 = $ 5 k $ = q 1 7 , , 5 x yXm z z z o.e e # ",
"# # # # $.H A.x x I o.@.@.p O   ; a X ; > C 2 W 9X=.< @ : : & k 4 v.@ @ @ $ g g @ * * P @ - = q F 5 1 : : $ tX4.0X1.m m m e i.# ",
"# # # # M.:.A.U U U Z.% % { ! ..& 1 $   - d O - o o o S O : 2 q m.C g g < < < < @ o o o S E +.q % V 1 1 % % 6X4.;X$X( ( G d.# # ",
"# # # # # :.1.1.U 0 % % % { ....% , F   ; O   o o o o X $ $ > C 4 K.; < < P P.V.o o o > E E =.x 7 n.$ = 1 % 4.f % % ( M 0 # # # ",
"# # # # # M.% % % %         B @ # # k     _ w G.b.*.= = $ $ & & d O $ $ f N  .*.- Z.A O W.L.L.M %.>.N e % % % % % % % 4 # # # # ",
"# # # # # u.% @ % % % ;         # i.4     w Q.G.9.&.%.$ $ $ h b 7 A $ $ >.D.t t W T V W R 2.J.1X} } I.3 e % % % % % (.# # # # # ",
"# # # # # @ _ @ @ % $ @ @       # ' s.    H.9 5X6 <XH h $ O b b   A O   2.t E Q Q r r R R J.#.#.#.} L L 3 % % % % w # # # # # # ",
"# # # # .X@     ; @   B @ %     # &.y     9 9 O 6 6 3 G O h D.    2.O O T N.N.n.O r t >.3 ,XI       F.6 t.t.% %   # # # # # # # ",
"# # # # J @ @                   # N X     9 9 H.6 6 G ` ` j.R     r T $ $ d A :X$ 0 N L 6 b.w $ $           % X   # # # # # # # ",
"# # # # # @ @ @                   :   o.:.Y &.B.6  .5 5 a j.r     r t T h $ O O $ 2XN 6.P 0 : : $ $       s.$     # # # # # # # ",
"# # # # # # @ @ >                   a.3 Y Y Y B. .=       O r     W t t +.h.O O $ ] d.*X        _ $       v       i.# # # # # # ",
"# # # # # # #         D @               P ` +.=.X                         h.O & $ =X] %X+XX X a.                  `.^ _.^ '.# # ",
"# # q.                    w.              _   O                       a $   & $ $ $ O { H F                         w u u u ^ # ",
"q.                        w.                                        V $ $ & O $ $ $ $ O H                               u u   # ",
"                          =     - O O O Q $ $ O Q 5           O O d d : $ 2 $ $ $ $ 5.)     O $ b b                         # # ",
"                                X $ $   y $ $ l O O O 7.5.q                   X $ $   _ _                   X p p $ f 0 l # # # ",
"                              $ $ $ $ $ f $ l l l O ) s s l |                   :                         a p p f f O.# # # # # ",
"# # # # # # # # # # # # # # # # # # # # # # # # # # # # # # # # # #                             ) # # # # # # # # # # # # # # # "
};
