/* XPM */
static char *result[] = {
/* columns rows colors chars-per-pixel */
"63 64 12 1 ",
"  c #2D3019",
". c #ACAE7B",
"X c white",
"o c #5F3C2E",
"O c #888747",
"+ c #40443A",
"@ c #7E543D",
"# c #191B00",
"$ c #F4F6F4",
"% c #A3757A",
"& c #F8BC79",
"* c #CC7C42",
/* pixels */
"XXXXXXXXXXXXXXXXXXXXXXXXXXXXXXXXXXXXXXXXXXXXXXXXXXXXXXXXXXXXXXX",
"XXXXXXXXXXXXXXXXXXXXXXXXXXXXXXXXXXXXXXXXXXXXXXXXXXXXXXXXXXXXXXX",
"XXXXXXXXXXXXXXXXXXXXXXXX XXXXXX   XXXXXX XXXXXXXXXXXXXXXXXXXXXX",
"XXXXXXXXXXXXXXXXXXXXXXX . XXXX O.O XXXX . XXXXXXXXXXXXXXXXXXXXX",
"XXXXXXXXXXXXXXXXXXXXXXX O. XX +.$.+ XX .O XXXXXXXXXXXXXXXXXXXXX",
"XXXXXXXXXXXXXXXXXXXXXXXX $O  ++...++  O$ XXXXXXXXXXXXXXXXXXXXXX",
"XXXXXXXXXXXXXXXXXXXXXXX  $O +O..@..O+ O$  XXXXXXXXXXXXXXXXXXXXX",
"XXXXXXXXXXXXXXXXXXXXXXX + $.O...%...O.$ + XXXXXXXXXXXXXXXXXXXXX",
"XXXXXXXXXXXXXXXXXXXXXX +* .$OO@.%.@OO$. *+ XXXXXXXXXXXXXXXXXXXX",
"XXXXXXXXXXXXXXXXXXXXXX *&*... %...% ...*&* XXXXXXXXXXXXXXXXXXXX",
"XXXXXXXXXXXXXXX    XXXX *& ...O.O.O... &* XXXX    XXXXXXXXXXXXX",
"XXXXXXXXXXXXX  OOO. XX   && .OOOOOOO. &&   XX .OOO  XXXXXXXXXXX",
"XXXXXXXXXXXX +O.&$..  O.O + OO O O OO + O.O  ..$&.O+ XXXXXXXXXX",
"XXXXXXXXXXX  +O.$$$. o  .O O  .. ..  O O.  o .$$$.O+  XXXXXXXXX",
"XXXX        .+OO.$. oo * OO O$. # .$O OO * oo .$.OO+.        XX",
"XXXX ...  .$..O+.... oo *   +..O O..+   * oo ....+O..$.  ... XX",
"XXX +&$.+O...OO++O..O o &**+.#.. ..#.+**& o O..O++OO...O+.$&+ X",
"XXX ++$$.+OOO++  +.O @oo ++  ##O.O##  ++ oo@ O.+  ++OOO+.$$++ X",
"XX   o++.++  +O....O @@ooO.++.## ##.++.Ooo@@ O....O+  ++.++o   ",
"XX o ooo+++ +O.$$&.+ @@oo #O.... ....O# oo@@ O.&$$.O+ +++ooo o ",
"XX oo%@@oo+++O.&.O+ +@@@oo*#.........#*oo@@@+ +O.&.O+++oo@@%oo ",
"XX @o%@ooo#++OOO.++ oo@@@@ +O.OO.OO.O+ @@@@oo ++.OOO++#ooo@%o@ ",
"XX @o@%oo #  +OOO  +.o@@@@@ +O  .  O+ @@@@@o.+  OOO+  # oo%@o@ ",
"XX o@@@oo XXX    ##O. o@@@@ #.O+.+O.# @@@@o .O##    XXX oo@@@o ",
"XXX o@ooo XXXXXXXX#O o @o@@@+##.O.##+@@@o@ o O#XXXXXXXX ooo@o X",
"XXX oooo XXXXXXXXX O oo@o@@@ O#%#%#O @@@o@oo O XXXXXXXXX oooo X",
"XXXX ooo XXXXXXXXX +oo o%%@@ O##%##Oo@@%%o oo+ XXXXXXXXX ooo XX",
"XXXX oo  XXXXXXXXXX ooo  %%@o . # . o@%%  ooo XXXXXXXXXX  oo XX",
"XXX O++   XXXXXXXXX o o@@@@%@o ... @@%@@@@o o XXXXXXXXX   ++O X",
"XXX O.....   XXXXXXX ooo@@@@@o ###o@@@@@@ooo XXXXXXX   .....O X",
"XXX O...O$..$ XXXXXX #ooo@@@  O.O#o  @@@oooo XXXXXX $..$O...O X",
"XXX ++.++.++.  XXXXX ooooo@@@@ O#  @@@@ooooo XXXXX  .++.++.++ X",
"XXXX  .  .  O.O XXXXX ooooo@@oo #*#@@@ooooo XXXXX O.O  .  .  XX",
"XXXX .   O.     XXXXXX  oo@%    o&* %%@oo  XXXXXX     .O   . XX",
"XXXX O XX . XXXXXXXXXX oo@%%@o O#*#@@%%@oo XXXXXXXXXX . XX O XX",
"XXXXX  XX O XXXXXXXXXXX  ooo OOOO#o@ ooo  XXXXXXXXXXX O XX  XXX",
"XXXXXXXXXX  XXXXXXXXXXXX ooo@ O. o  o ## XXXXXXXXXXXX  XXXXXXXX",
"XXXXXXXXXXXXXXXXXXXXXXXX oo@@@  #*#@oooo XXXXXXXXXXXXXXXXXXXXXX",
"XXXXXXXXXXXXXXXXXXXXX   o oooo@ o&* o ooo   XXXXXXXXXXXXXXXXXXX",
"XXXXXXXXXXXXXXXXXXXX + o  o @  .#*#oo   o  + XXXXXXXXXXXXXXXXXX",
"XXXXXXXXXXXXXXXXXXX +O$& + o@ O. # o o +   O+ XXXXXXXXXXXXXXXXX",
"XXXXXXXXXXXXXXXXXXX +O&.+O  o OOOO oo  +O.&O+ XXXXXXXXXXXXXXXXX",
"XXXXXXXXXXXXXXXXXXX   +OOO+O OOOOOO  O OOO+   XXXXXXXXXXXXXXXXX",
"XXXXXXXXXXXXXXXXXX  $& OO+++O.&.O.&.O+++OO &$  XXXXXXXXXXXXXXXX",
"XXXXXXXXXXXXXXXXX    O.OO+ ++..$$$..++ +OO.O    XXXXXXXXXXXXXXX",
"XXXXXXXXXXXXXXXXX $&. ...##+++O...O+++##... .&$ XXXXXXXXXXXXXXX",
"XXXXXXXXXXXXXXXXXX +O..$.+##  ++O++  ##+.$..O+ XXXXXXXXXXXXXXXX",
"XXXXXXXXXXXXXXXXX + +....++##       ##++....+ + XXXXXXXXXXXXXXX",
"XXXXXXXXXXXXXXXXX $& .OO..O# O.OOO.O #O..OO. &$ XXXXXXXXXXXXXXX",
"XXXXXXXXXXXXXXXXX   OO++..O# +.....+ #O..++OO   XXXXXXXXXXXXXXX",
"XXXXXXXXXXXXXXXXXXXX   +OO#XX  ...  XX#OO+   XXXXXXXXXXXXXXXXXX",
"XXXXXXXXXXXXXXXXXXXXXX    XXXXX   XXXXX    XXXXXXXXXXXXXXXXXXXX",
"XXXXXXXXXXXXXXXXXXXXXXXXXXXXXXXXXXXXXXXXXXXXXXXXXXXXXXXXXXXXXXX",
"XXXXXXXXXXXXXXXXXXXXXXXXXXXXXXXXXXXXXXXXXXXXXXXXXXXXXXXXXXXXXXX",
"XXXXXXXXXXXXXXXXXXXXXXXXXXXXXXXXXXXXXXXXXXXXXXXXXXXXXXXXXXXXXXX",
"XXXXXXXXXXXXXXXXXXXXXXXXXXXXXXXXXXXXXXXXXXXXXXXXXXXXXXXXXXXXXXX",
"XXXXXXXXXXXXXXXXXXXXXXXXXXXXXXXXXXXXXXXXXXXXXXXXXXXXXXXXXXXXXXX",
"XXXXXXXXXXXXXXXXXXXXXXXXXXXXX#########XXXXXXXXXXXXXXXXXXXXXXXXX",
"XXXXXXXXXXXXXXXXXXXXXXXXXXX#############XXXXXXXXXXXXXXXXXXXXXXX",
"XXXXXXXXXXXXXXXXXXXXXXXXXX###############XXXXXXXXXXXXXXXXXXXXXX",
"XXXXXXXXXXXXXXXXXXXXXXXXXXX#############XXXXXXXXXXXXXXXXXXXXXXX",
"XXXXXXXXXXXXXXXXXXXXXXXXXXXXX#########XXXXXXXXXXXXXXXXXXXXXXXXX",
"XXXXXXXXXXXXXXXXXXXXXXXXXXXXXXXXXXXXXXXXXXXXXXXXXXXXXXXXXXXXXXX",
"XXXXXXXXXXXXXXXXXXXXXXXXXXXXXXXXXXXXXXXXXXXXXXXXXXXXXXXXXXXXXXX"
};
