/* XPM */
static char *result[] = {
/* columns rows colors chars-per-pixel */
"60 53 12 1 ",
"  c #2D3019",
". c #888747",
"X c #ACAE7B",
"o c white",
"O c #40443A",
"+ c #5F3C2E",
"@ c #191B00",
"# c #7E543D",
"$ c #F4F6F4",
"% c #CC7C42",
"& c #F8BC79",
"* c #A3757A",
/* pixels */
"oooooooooooooooooooooooooooooooooooooooooooooooooooooooooooo",
"ooooooooooooooooo  Ooooooooooooooooooooooooooooooooooooooooo",
"ooooooooooo  oo  O. oooooooooooooooooooooooooooooooooooooooo",
"oooooooooo ..  .$$ Ooooooooooooooooooooooooooooooooooooooooo",
"ooooooooo X.  X$X & oooooooooooooooooooooooooooooooooooooooo",
"ooooooooo *. .$ O&%%Oooooooooooooooooooooooooooooooooooooooo",
"oooooooo #*. X %&%&%Oooooooooooooooooooooooooooooooooooooooo",
"oooooooo X.OXOO&%%%% ooooooooooooooooooooooooooooooooooooooo",
"ooooooo .XO.X. %%%%&  ooooo     oooooooooooooooooooooooooooo",
"ooooooo ...X. O%%&  .. o   O.X.O ooooooooooooooooooooooooooo",
"oooooo O X...  && .XX &  O+ XXX.. oooooooooooooooooooooooooo",
"ooooooO XX.. . & XXX &&% + X$$&X. oooooooooooooooooooooooooo",
"ooooo OXO.XXX.  .X. &%%O O.X$$XX.. ooooooooooooooooooooooooo",
"ooooo X .XO X .XX. &%%% + .XXXXX.. ooooooooooooooooooooooooo",
"ooooo O X$XX X$X. %%%OO ++ ..XX..O ooooooooooooooooooooooooo",
"oooo .X  OX .$X. O  OO  + ..O..O. oooooooooooooooooooooooooo",
"oooo .O#$ .OO.. O O.O  ++ O.O..O. oooooooooooooooooooooooooo",
"ooo .X@#&  .XO.O X.  O+# O .XO .X. ooooooooooooooooooooooooo",
"ooo $XO  O..X..O  O&   # XOX$$.OXX ooooooooooooooooooooooooo",
"oo X.X.OOXXXXX..O % #+ + XOX$XXO$X ooooooooooooooooooooooooo",
"oo   .XXXX..XXX.O  #++ +# OXXX.OX. ooooooooooooooooooooooooo",
"oo .OXXX..  OX.. ##++++++  .X..O.. ooooooooooooooooooooooooo",
"oo XXX... XXX.OO ##+++++++  X... . ooooooooooooooooooooooooo",
"oo .XO   OX.O   ###  #++++# O...XO ooooooooooooooooooooooooo",
"ooo X OXXX   ####  XX +++++@O XO. oooooooooooooooooooooooooo",
"oooo  X   . ++## .X..X @+    .XOO ooooooooooooooooooooooo   ",
"oooooo O.. #@#+  .   X   ++++OXX  ooooooooooooooooooooo  XX ",
"ooooooo    #@+# .   XX ++++#**O$$Oooooooooooooooooooo  XX. o",
"ooooooo O. +@**  .XX$X.O###*###OX  oooooooooooooooo  XX.. oo",
"oooooooo  . + # . O.XXXO####+++OX. ooooooooooooooo .XX.. ooo",
"ooooooooo   @%  ..X$X.O+++++   O.O oooooooooooooo .XX.. oooo",
"oooooooooooo@&%   .X..@@+++++++   oooooooooooooo .XX.. ooooo",
"oooooooooooo % ##     *#   +++  ooooooooooooooo .XX.. oooooo",
"ooooooooooooo +  ####++++##    oooooooooooooooo XX.. ooooooo",
"oooooooooooooo  %  #+++ +#  +++ oooooooooooooo XXX. oooooooo",
"ooooooooooooooo &% +#++  +#  + O oooooooooooo .XX.. oooooooo",
"ooooooooooooooo %  #++ .O  .O OOO oooooooooo .$X.. ooooooooo",
"oooooooooooooo   *#+++ X..X..OOOO. oooooooo .$XX.. ooooooooo",
"ooooooooooooo OO @++ +  XXXX.OOO ..  oooo  .XXX..O ooooooooo",
"ooooooooooo  O. + +    X&XX..OOO O.OO    .X*#X..O oooooooooo",
"ooooooooo  . .X.   .. .X$X..O O @O...XXXXX#XXO.OO oooooooooo",
"ooooooooo $  XX.O O.. .$XX.O @  @O..XXX* X*XO..O ooooooooooo",
"oooooooo   X X.OO O.O .$X..O @OO@OO..XX**XXO..OO ooooooooooo",
"ooooooo $.XXOX.OOO O  O&XX..OO..O  OO.XX..O..OO oooooooooooo",
"oooooooo  ..XXX. OO @@ .XX..OO.X. O OOOOOO.OOO ooooooooooooo",
"oooooooooo OXXX.       O..OOO XXX  OOOOO..OO  oooooooooooooo",
"ooooooooooo .X.O oooooo  OO  OXX. @@OOOOO@@@oooooooooooooooo",
"ooooooooooo O.O oooooooo     .X.O @@@@@@@ooooooooooooooooooo",
"oooooooooooo   o@@@@@@@@@  O X X @oooooooooooooooooooooooooo",
"ooooooooooooooo@@@@@@@@@@ $  . X @oooooooooooooooooooooooooo",
"ooooooooooooooo@@@@@@@@@@@@$& $&@@oooooooooooooooooooooooooo",
"oooooooooooooooo@@@@@@@@@@@@@@@@@ooooooooooooooooooooooooooo",
"oooooooooooooooooooooooooooooooooooooooooooooooooooooooooooo"
};
