/* XPM */
static char *result[] = {
/* columns rows colors chars-per-pixel */
"60 58 11 1 ",
"  c white",
". c #2D3019",
"X c #888747",
"o c #40443A",
"O c #ACAE7B",
"+ c #5F3C2E",
"@ c #191B00",
"# c #7E543D",
"$ c #CC7C42",
"% c #F8BC79",
"& c #A3757A",
/* pixels */
"                                                            ",
"                                                            ",
"                                                            ",
"                 ..o                                        ",
"           ..  ..oX.                                        ",
"          .XX..X  .o                                        ",
"         .OX..O O.%.                                        ",
"         .&X.X .o%$$o                                       ",
"        .#&X.O.$%$%$o                                       ",
"        .OXoOoo%$$$$.                                       ",
"       .XOoXOX.$$$$%..     .....                            ",
"       .XXXOX.o$$%..XX. ...oXOXo.                           ",
"      .o.OXXX..%%.XOO.%..o+.OOOXX.                          ",
"      o.OOXX.X.%.OOO.%%$.+.O  %OX.                          ",
"     .oOoXOOOX..XOX.%$$o.oXO  OOXX.                         ",
"     .O.XOo.O.XOOX.%$$$.+.XOOOOOXX.                         ",
"     .o.O OO.O OX.$$$oo.++.XXOOXXo.                         ",
"    .XO..oO.X OX.o..oo..+.XXoXXoX.                          ",
"    .Xo# .XooXX.o.oXo..++.oXoXXoX.                          ",
"   .XO@#%..XOoXo.OX..o+#.o.XOo.XOX.                         ",
"   . Oo..oXXOXXo..o%...#.OoO  XoOO.                         ",
"  .OXOXooOOOOOXXo.$.#+.+.OoO OOo O.                         ",
"  ...XOOOOXXOOOXo..#++.+#.oOOOXoOX.                         ",
"  .XoOOOXX..oOXX.##++++++..XOXXoXX.                         ",
"  .OOOXXX.OOOXoo.##+++++++..OXXX.X.                         ",
"  .XOo...oOXo...###..#++++#.oXXXOo.                         ",
"   .O.oOOO...####..OO.+++++@o.OoX.                          ",
"    ..O...X.++##.XOXXO.@+....XOoo.                       ...",
"      .oXX.#@#+..X...O...++++oOO..                     ..OO.",
"       ....#@+#.X...OO.++++#&&o  o                   ..OOX. ",
"       .oX.+@&&..XOO OXo###&###oO..                ..OOXX.  ",
"        ..X.+.#.X.oXOOOo####+++oOX.               .XOOXX.   ",
"         ...@$..XXO OXo+++++...oXo.              .XOOXX.    ",
"            @%$...XOXX@@+++++++...              .XOOXX.     ",
"            .$.##.....&#...+++..               .XOOXX.      ",
"             .+..####++++##....                .OOXX.       ",
"              ..$..#+++.+#..+++.              .OOOX.        ",
"               .%$.+#++..+#..+.o.            .XOOXX.        ",
"               .$..#++..o..XX.ooo.          .X OXX.         ",
"               ..&#+++.XX.oXXXoooX.        .X OOXX.         ",
"                .+++.+..XX.XXXoo.XX..    ..XOOOXXo.         ",
"               .+.+....OXXoXXXoo.oXoo....XO&#OXXo.          ",
"                ...X%.OOOXXXXXoo@oXXXOOOOO#OOoXoo.          ",
"                 @...XOOOXoXXooo@oXXOOO&.O&OoXXo.           ",
"              ...o.oO.OOXXooooo.@ooXXOO&&OOoXXoo.           ",
"             .%.%o.%OoXXXXX..oo@oo.ooXOOXXoXXoo.            ",
"             .. X.. .oXooXooo.@.ooo.ooooooXooo.             ",
"              ...X...o..ooo...@@.oooooooXXoo..              ",
"               .XXOOXo.......oXo.@@oooooo@@@                ",
"                .OOXoo...oooXXOXo.@@@@@@@                   ",
"                .OOXo.....oXX..Xo.                          ",
"                .oOO..@@@@@@@O.Xo@                          ",
"                @...@@@@@@@@@..o@                           ",
"                 @@@@@@@@@@@@@@@@                           ",
"                                                            ",
"                                                            ",
"                                                            ",
"                                                            "
};
