/* XPM */
static char *result[] = {
/* columns rows colors chars-per-pixel */
"61 52 11 1 ",
"  c white",
". c #2D3019",
"X c #888747",
"o c #40443A",
"O c #ACAE7B",
"+ c #5F3C2E",
"@ c #191B00",
"# c #7E543D",
"$ c #CC7C42",
"% c #F8BC79",
"& c #A3757A",
/* pixels */
"                                                             ",
"                  ..o                                        ",
"            ..  ..oX.                                        ",
"           .XX..X  .o                                        ",
"          .OX..O O.%.                                        ",
"          .&X.X .o%$$o                                       ",
"         .#&X.O.$%$%$o                                       ",
"         .OXoOoo%$$$$.                                       ",
"        .XOoXOX.$$$$%..     .....                            ",
"        .XXXOX.o$$%..XX. ...oXOXo.                           ",
"       .o.OXXX..%%.XOO.%..o+.OOOXX.                          ",
"       o.OOXX.X.%.OOO.%%$.+.O  %OX.                          ",
"      .oOoXOOOX..XOX.%$$o.oXO  OOXX.                         ",
"      .O.XOo.O.XOOX.%$$$.+.XOOOOOXX.                         ",
"      .o.O OO.O OX.$$$oo.++.XXOOXXo.                         ",
"     .XO..oO.X OX.o..oo..+.XXoXXoX.                          ",
"     .Xo# .XooXX.o.oXo..++.oXoXXoX.                          ",
"    .XO@#%..XOoXo.OX..o+#.o.XOo.XOX.                         ",
"    . Oo..oXXOXXo..o%...#.OoO  XoOO.                         ",
"   .OXOXooOOOOOXXo.$.#+.+.OoO OOo O.                         ",
"   ...XOOOOXXOOOXo..#++.+#.oOOOXoOX.                         ",
"   .XoOOOXX..oOXX.##++++++..XOXXoXX.                         ",
"   .OOOXXX.OOOXoo.##+++++++..OXXX.X.                         ",
"   .XOo...oOXo...###..#++++#.oXXXOo.                         ",
"    .O.oOOO...####..OO.+++++@o.OoX.                          ",
"     ..O...X.++##.XOXXO.@+....XOoo.                       ...",
"       .oXX.#@#+..X...O...++++oOO..                     ..OO.",
"        ....#@+#.X...OO.++++#&&o  o                   ..OOX. ",
"        .oX.+@&&..XOO OXo###&###oO..                ..OOXX.  ",
"         ..X.+.#.X.oXOOOo####+++oOX.               .XOOXX.   ",
"          ...@$..XXO OXo+++++...oXo.              .XOOXX.    ",
"             @%$...XOXX@@+++++++...              .XOOXX.     ",
"             .$.##.....&#...+++..               .XOOXX.      ",
"              .+..####++++##....                .OOXX.       ",
"               ..$..#+++.+#..+++.              .OOOX.        ",
"                .%$.+#++.+#.XXo.o.            .XOOXX.        ",
"                .$..#++.O.+#.ooooo.          .X OXX.         ",
"                 .&#+++.Xo..XXooooX.        .X OOXX.         ",
"                .++#+.+...ooXXXoo.XX..    ..XOOOXXo.         ",
"                 .+++...oXXXXXXoo.oXoo....XO&#OXXo.          ",
"                .o.+.o.XOOOOXXXXo@oXXXOOOOO#OOoXoo.          ",
"                .Oo.X.oOOOOXXoXXo@oXXOOO&.O&OoXXo.           ",
"                .Oo.o.XO%OXXooXo.@ooXXOO&&OOoXXoo.           ",
"                .Xo@o.X OOXo..oo@oo.ooXOOXXoXXoo.            ",
"                 .oo@.X%OOXXo.o@.ooo.ooooooXooo.             ",
"                 ..oo.oXOOOXo..@@.oooooooXXoo..              ",
"                 .X..o@ooXXooo.@.@@@oooooo@@@                ",
"                . .XXo@..oooooX.@@@@@@@@@@                   ",
"                .. O..@.o@XooXX.                             ",
"                 @@@@@@ O@X@XXo.                             ",
"                      @@@ O@ O@                              ",
"                        @@@@@@@                              "
};
