/* XPM */
static char *result[] = {
/* columns rows colors chars-per-pixel */
"62 52 12 1 ",
"  c #2D3019",
". c #888747",
"X c white",
"o c #ACAE7B",
"O c #40443A",
"+ c #5F3C2E",
"@ c #191B00",
"# c #7E543D",
"$ c #F4F6F4",
"% c #CC7C42",
"& c #F8BC79",
"* c #A3757A",
/* pixels */
"XXXXXXXXXXXXXXXXXXXXXXXXXXXXXXXXXXXXXXXXXXXO  XXXXXXXXXXXXXXXX",
"XXXXXXXXXXXXXXXXXXXXXXXXXXXXXXXXXXXXXXXXXXX .O  XX  XXXXXXXXXX",
"XXXXXXXXXXXXXXXXXXXXXXXXXXXXXXXXXXXXXXXXXXXO $$.  .. XXXXXXXXX",
"XXXXXXXXXXXXXXXXXXXXXXXXXXXXXXXXXXXXXXXXXXX & o$o  .o XXXXXXXX",
"XXXXXXXXXXXXXXXXXXXXXXXXXXXXXXXXXXXXXXXXXXO%%&O $. .* XXXXXXXX",
"XXXXXXXXXXXXXXXXXXXXXXXXXXXXXXXXXXXXXXXXXXO%&%&% o .*# XXXXXXX",
"XXXXXXXXXXXXXXXXXXXXXXXXXXXXXXXXXXXXXXXXXX %%%%&OOoO.o XXXXXXX",
"XXXXXXXXXXXXXXXXXXXXXXXXXXXXXXX     XXXXX  &%%%% .o.Oo. XXXXXX",
"XXXXXXXXXXXXXXXXXXXXXXXXXXXXXX O.o.O   X ..  &%%O .o... XXXXXX",
"XXXXXXXXXXXXXXXXXXXXXXXXXXXXX ..ooo +O  & oo. &&  ...o O XXXXX",
"XXXXXXXXXXXXXXXXXXXXXXXXXXXXX .o&$$o + %&& ooo & . ..oo OXXXXX",
"XXXXXXXXXXXXXXXXXXXXXXXXXXXX ..oo$$o.O O%%& .o.  .ooo.OoO XXXX",
"XXXXXXXXXXXXXXXXXXXXXXXXXXXX ..ooooo. + %%%& .oo. o Oo. o XXXX",
"XXXXXXXXXXXXXXXXXXXXXXXXXXXX O..oo.. ++ OO%%% .o$o oo$o O XXXX",
"XXXXXXXXXXXXXXXXXXXXXXXXXXXXX .O..O.. +  OO  O .o$. oO  o. XXX",
"XXXXXXXXXXXXXXXXXXXXXXXXXXXXX .O..O.O ++  O.O O ..OO. $#O. XXX",
"XXXXXXXXXXXXXXXXXXXXXXXXXXXX .o. Oo. O #+O  .o O.Oo.  &#@o. XX",
"XXXXXXXXXXXXXXXXXXXXXXXXXXXX ooO.$$oOo #   &O  O..o..O  Oo$ XX",
"XXXXXXXXXXXXXXXXXXXXXXXXXXXX o$Ooo$oOo + +# % O..oooooOO.o.o X",
"XXXXXXXXXXXXXXXXXXXXXXXXXXXX .oO.oooO #+ ++#  O.ooo..oooo.   X",
"XXXXXXXXXXXXXXXXXXXXXXXXXXXX ..O..o.  ++++++## ..oO  ..oooO. X",
"XXXXXXXXXXXXXXXXXXXXXXXXXXXX . ...o  +++++++## OO.ooo ...ooo X",
"XXXXXXXXXXXXXXXXXXXXXXXXXXXX Oo...O #++++#  ###   O.oO   Oo. X",
"XXXXXXXXXXXXXXXXXXXXXXXXXXXXX .Oo O@+++++ oo  ####   oooO o XX",
"XXX   XXXXXXXXXXXXXXXXXXXXXXX OOo.    +@ o..o. ##++ .   o  XXX",
"XXX oo  XXXXXXXXXXXXXXXXXXXXX  ooO++++   o   .  +#@# ..O XXXXX",
"XXXX .oo  XXXXXXXXXXXXXXXXXXXO$$O**#++++ oo   . #+@#    XXXXXX",
"XXXXX ..oo  XXXXXXXXXXXXXXXX  oO###*###O.o$oo.  **@+ .O XXXXXX",
"XXXXXX ..oo. XXXXXXXXXXXXXXX .oO+++####Oooo.O . # + .  XXXXXXX",
"XXXXXXX ..oo. XXXXXXXXXXXXXX O.O   +++++O.o$o..  %@   XXXXXXXX",
"XXXXXXXX ..oo. XXXXXXXXXXXXXX   +++++++@@..o.   %&@XXXXXXXXXXX",
"XXXXXXXXX ..oo. XXXXXXXXXXXXXXX  +++   #*     ## % XXXXXXXXXXX",
"XXXXXXXXXX ..oo XXXXXXXXXXXXXXXX    ##++++####  + XXXXXXXXXXXX",
"XXXXXXXXXXX .ooo XXXXXXXXXXXXXX +++  #+ +++#  %  XXXXXXXXXXXXX",
"XXXXXXXXXXX ..oo. XXXXXXXXXXXX O +  #+  ++#+ %& XXXXXXXXXXXXXX",
"XXXXXXXXXXXX ..o$. XXXXXXXXXX OOO O.  O. ++#  % XXXXXXXXXXXXXX",
"XXXXXXXXXXXX ..oo$. XXXXXXXX .OOOO..o..o +++#*   XXXXXXXXXXXXX",
"XXXXXXXXXXXX O..ooo.  XXXX  .. OOO.oooo  + ++@ OO XXXXXXXXXXXX",
"XXXXXXXXXXXXX O..o#*o.    OO.O OOO..oo&o    + + .O  XXXXXXXXXX",
"XXXXXXXXXXXXX OO.Ooo#ooooo...O@ O O..o$o. ..   .o. .  XXXXXXXX",
"XXXXXXXXXXXXXX O..Oo*o *ooo..O@  @ O.oo$. ..O O.oo  $ XXXXXXXX",
"XXXXXXXXXXXXXX OO..Ooo**oo..OO@OO@ O..o$. O.O OO.o o   XXXXXXX",
"XXXXXXXXXXXXXXX OO..O..oo.OO  O..OO..oo&O  O OOO.oOoo.$ XXXXXX",
"XXXXXXXXXXXXXXXX OOO.OOOOOO O .o.OO..oo. @@ OO .ooo..  XXXXXXX",
"XXXXXXXXXXXXXXXXX  OO..OOOOO  ooo OOO..O       .oooO XXXXXXXXX",
"XXXXXXXXXXXXXXXXXXX@@@OOOOO@@ .ooO  OO  XXXXXX O.o. XXXXXXXXXX",
"XXXXXXXXXXXXXXXXXXXXXX@@@@@@@ O.o.     XXXXXXXX O.O XXXXXXXXXX",
"XXXXXXXXXXXXXXXXXXXXXXXXXXXXX@ o o O  @@@@@@@@@X   XXXXXXXXXXX",
"XXXXXXXXXXXXXXXXXXXXXXXXXXXXX@ o .  $ @@@@@@@@@@XXXXXXXXXXXXXX",
"XXXXXXXXXXXXXXXXXXXXXXXXXXXXX@@&$ &$@@@@@@@@@@@@XXXXXXXXXXXXXX",
"XXXXXXXXXXXXXXXXXXXXXXXXXXXXXX@@@@@@@@@@@@@@@@@XXXXXXXXXXXXXXX",
"XXXXXXXXXXXXXXXXXXXXXXXXXXXXXXXXXXXXXXXXXXXXXXXXXXXXXXXXXXXXXX"
};
