/* XPM */
static char *result[] = {
/* columns rows colors chars-per-pixel */
"63 54 11 1 ",
"  c white",
". c #2D3019",
"X c #888747",
"o c #40443A",
"O c #ACAE7B",
"+ c #5F3C2E",
"@ c #191B00",
"# c #7E543D",
"$ c #CC7C42",
"% c #F8BC79",
"& c #A3757A",
/* pixels */
"                                                               ",
"                                           o..                 ",
"                                           .Xo..  ..           ",
"                                           o.  X..XX.          ",
"                                           .%.O O..XO.         ",
"                                          o$$%o. X.X&.         ",
"                                          o$%$%$.O.X&#.        ",
"                                          .$$$$%ooOoXO.        ",
"                               .....     ..%$$$$.XOXoOX.       ",
"                              .oXOXo... .XX..%$$o.XOXXX.       ",
"                             .XXOOO.+o..%.OOX.%%..XXXO.o.      ",
"                             .XO%  O.+.$%%.OOO.%.X.XXOO.o      ",
"                            .XXOO  OXo.o$$%.XOX..XOOOXoOo.     ",
"                            .XXOOOOOX.+.$$$%.XOOX.O.oOX.O.     ",
"                            .oXXOOXX.++.oo$$$.XO O.OO O.o.     ",
"                             .XoXXoXX.+..oo..o.XO X.Oo..OX.    ",
"                             .XoXXoXo.++..oXo.o.XXooX. #oX.    ",
"                            .XOX.oOX.o.#+o..XO.oXoOX..%#@OX.   ",
"                            .OOoX  OoO.#...%o..oXXOXXo..oO .   ",
"                            .O oOO OoO.+.+#.$.oXXOOOOOooXOXO.  ",
"                            .XOoXOOOo.#+.++#..oXOOOXXOOOOX...  ",
"                            .XXoXXOX..++++++##.XXOo..XXOOOoX.  ",
"                            .X.XXXO..+++++++##.ooXOOO.XXXOOO.  ",
"                            .oOXXXo.#++++#..###...oXOo...oOX.  ",
"                             .XoO.o@+++++.OO..####...OOOo.O.   ",
"   ...                       .ooOX....+@.OXXOX.##++.X...O..    ",
"   .OO..                     ..OOo++++...O...X..+#@#.XXo.      ",
"    .XOO..                   o  o&&#++++.OO...X.#+@#....       ",
"     .XXOO..                ..Oo###&###oXO OOX..&&@+.Xo.       ",
"      .XXOOX.               .XOo+++####oOOOXo.X.#.+.X..        ",
"       .XXOOX.              .oXo...+++++oXO OXX..$@...         ",
"        .XXOOX.              ...+++++++@@XXOX...$%@            ",
"         .XXOOX.               ..+++...#&.....##.$.            ",
"          .XXOO.                ....##++++####..+.             ",
"           .XOOO.              .+++..#+.+++#..$..              ",
"           .XXOOX.            .o.+..#+..++#+.$%.               ",
"            .XXO X.          .ooo.XX..o..++#..$.               ",
"            .XXOO X.        .XoooXXXo.XX.+++#&..               ",
"            .oXXOOOX..    ..XX.ooXXX.XX..+.+++.                ",
"             .oXXO#&OX....ooXo.ooXXXoXXO....+.+.               ",
"             .ooXoOO#OOOOOXXXo@ooXXXXXOOO.%X...                ",
"              .oXXoO&O.&OOOXXo@oooXXoXOOOX...@                 ",
"              .ooXXoOO&&OOXXoo@.oooooXXOO.Oo.o...              ",
"               .ooXXoXXOOXoo.oo@oo..XXXXXoO%.o%.%.             ",
"                .oooXoooooo.ooo.@.oooXooXo. ..X ..             ",
"                 ..ooXXooooooo.@@...ooo..o...X...              ",
"                   @@@oooooo@@.oXo.......oXOOXX.               ",
"                      @@@@@@@.oXOXXooo...ooXOO.                ",
"                             .oX..XXo.....oXOO.                ",
"                             @oX.O@@@@@@@..OOo.                ",
"                              @o..@@@@@@@@@...@                ",
"                              @@@@@@@@@@@@@@@@                 ",
"                                                               ",
"                                                               "
};
