/* XPM */
static char *result[] = {
/* columns rows colors chars-per-pixel */
"63 53 11 1 ",
"  c white",
". c #2D3019",
"X c #888747",
"o c #40443A",
"O c #ACAE7B",
"+ c #5F3C2E",
"@ c #191B00",
"# c #7E543D",
"$ c #CC7C42",
"% c #F8BC79",
"& c #A3757A",
/* pixels */
"                                            o..                ",
"                                            .Xo..  ..          ",
"                                            o.  X..XX.         ",
"                                            .%.O O..XO.        ",
"                                           o$$%o. X.X&.        ",
"                                           o$%$%$.O.X&#.       ",
"                                           .$$$$%ooOoXO.       ",
"                                .....     ..%$$$$.XOXoOX.      ",
"                               .oXOXo... .XX..%$$o.XOXXX.      ",
"                              .XXOOO.+o..%.OOX.%%..XXXO.o.     ",
"                              .XO%  O.+.$%%.OOO.%.X.XXOO.o     ",
"                             .XXOO  OXo.o$$%.XOX..XOOOXoOo.    ",
"                             .XXOOOOOX.+.$$$%.XOOX.O.oOX.O.    ",
"                             .oXXOOXX.++.oo$$$.XO O.OO O.o.    ",
"                              .XoXXoXX.+..oo..o.XO X.Oo..OX.   ",
"                              .XoXXoXo.++..oXo.o.XXooX. #oX.   ",
"                             .XOX.oOX.o.#+o..XO.oXoOX..%#@OX.  ",
"                             .OOoX  OoO.#...%o..oXXOXXo..oO .  ",
"                             .O oOO OoO.+.+#.$.oXXOOOOOooXOXO. ",
"                             .XOoXOOOo.#+.++#..oXOOOXXOOOOX... ",
"                             .XXoXXOX..++++++##.XXOo..XXOOOoX. ",
"                             .X.XXXO..+++++++##.ooXOOO.XXXOOO. ",
"                             .oOXXXo.#++++#..###...oXOo...oOX. ",
"                              .XoO.o@+++++.OO..####...OOOo.O.  ",
"    ...                       .ooOX....+@.OXXOX.##++.X...O..   ",
"    .OO..                     ..OOo++++...O...X..+#@#.XXo.     ",
"     .XOO..                   o  o&&#++++.OO...X.#+@#....      ",
"      .XXOO..                ..Oo###&###oXO OOX..&&@+.Xo.      ",
"       .XXOOX.               .XOo+++####oOOOXo.X.#.+.X..       ",
"        .XXOOX.              .oXo...+++++oXO OXX..$@...        ",
"         .XXOOX.              ...+++++++@@XXOX...$%@           ",
"          .XXOOX.               ..+++...#&.....##.$.           ",
"           .XXOO.                ....##++++####..+.            ",
"            .XOOO.              .+++..#+.+++#..$..             ",
"            .XXOOX.            .o.oXX.#+.++#+.$%.              ",
"             .XXO X.          .ooooo.#+.O.++#..$.              ",
"             .XXOO X.        .XooooXX..oX.+++#&.               ",
"             .oXXOOOX..    ..XX.ooXXXoo...+.+#++.              ",
"              .oXXO#&OX....ooXo.ooXXXXXXo...+++.               ",
"              .ooXoOO#OOOOOXXXo@oXXXXOOOOX.o.+.o.              ",
"               .oXXoO&O.&OOOXXo@oXXoXXOOOOo.X.oO.              ",
"               .ooXXoOO&&OOXXoo@.oXooXXO%OX.o.oO.              ",
"                .ooXXoXXOOXoo.oo@oo..oXOO X.o@oX.              ",
"                 .oooXoooooo.ooo.@o.oXXOO%X.@oo.               ",
"                  ..ooXXooooooo.@@..oXOOOXo.oo..               ",
"                    @@@oooooo@@@.@.oooXXoo@o..X.               ",
"                       @@@@@@@@@@.Xooooo..@oXX. .              ",
"                                 .XXooX@o.@..O ..              ",
"                                 .oXX@X@O @@@@@@               ",
"                                  @O @O @@@                    ",
"                                  @@@@@@@                      ",
"                                                               ",
"                                                               "
};
