/* XPM */
static char *result[] = {
/* columns rows colors chars-per-pixel */
"58 57 12 1 ",
"  c #2D3019",
". c #40443A",
"X c #5F3C2E",
"o c white",
"O c #888747",
"+ c #7E543D",
"@ c #ACAE7B",
"# c #191B00",
"$ c #F4F6F4",
"% c #A3757A",
"& c #F8BC79",
"* c #CC7C42",
/* pixels */
"oooooooooooooooooooooooooooooooooooooooooooooooooooooooooo",
"oooooooooooooooooooooooooooooooooooooooooooooooooooooooooo",
"ooooooooooooooooooooo oooooo   oooooo oooooooooooooooooooo",
"oooooooooooooooooooo @ oooo @@@ oooo @ ooooooooooooooooooo",
"oooooooooooooooooooo O@ oo @OOO@ oo @O ooooooooooooooooooo",
"ooooooooooooooooooooo $O  .@###@.  O$ oooooooooooooooooooo",
"oooooooooooooooooooo *$O @@#   #@@ O$* ooooooooooooooooooo",
"oooooooooooooooooooo * .@.#     #.@. * ooooooooooooooooooo",
"ooooooooooooooooooo *&&#####   #####&&* oooooooooooooooooo",
"ooooooooooooooooooo  &#             #&  oooooooooooooooooo",
"ooooooooooooooooooo @*#    #####    #*@ oooooooooooooooooo",
"ooooooooooooooooooo O    # .OOO. #    O oooooooooooooooooo",
"ooooooooooooooooo   O   #..OO@OO..#   O   oooooooooooooooo",
"oooooooooooooooo X..   #..OOOOOOO..#   ..X ooooooooooooooo",
"ooooooooooooooo  XX+X.# ....OOO.... #.X+XX  oooooooooooooo",
"oooooooooooooo O$ XXX. ##.........## .XXX $O ooooooooooooo",
"ooooooooooooo  O@@ XX... #  ...  # ...XX @@O  oooooooooooo",
"oooooooooooo ..OO +XX.. ... ... ... ..XX+ OO.. ooooooooooo",
"oooooooooooo OO.  ++XXX.. ... ... ..XXX++  .OO ooooooooooo",
"ooooooooooo .@O.  ++XXXX. .X...X. .XXXX++  .O@. oooooooooo",
"ooooooooooo O@.O..+++XX+X...XXX...X+XX+++..O.@O oooooooooo",
"ooooooooooo $.@O.XX+++++X...XXX...X+++++XX.O@.$ oooooooooo",
"ooooooooooo @.@O..X+++++X...XXX...X+++++X..O@.@ oooooooooo",
"oooooooooo #@.@O . X+++++X..X X..X+++++X . O@.@# ooooooooo",
"oooooooooo @@.O.  X %++++X.. O ..X++++% X  .O.@@ ooooooooo",
"ooooooooo .@O..   XX%%+++X.. O ..X+++%%XX   ..O@. oooooooo",
"oooooooo ..&OO. .XX X%%++X.#.O.#.X++%%X XX. .OO&.. ooooooo",
"oooooooo @$$@O   XXX  %%+XX .@. XX+%%  XXX   O@$$@ ooooooo",
"oooooooo @&$@OO. X X++++%++ O@O ++%++++X X .OO@$&@ ooooooo",
"oooooooo   @&@X.. XXX++++++ O@O ++++++XXX ..X@&@   ooooooo",
"ooooooooo X..X+X. #XXX+++   @@@   +++XXXX .X+X..X oooooooo",
"oooooooooo XXXXX. XXXXX++++ @@@ ++++XXXXX .XXXXX ooooooooo",
"oooooooooo  ..XX # XXXXX+X .@@@. ++XXXXX # XX..  ooooooooo",
"oooooooooooo    ooo  XX+%% .@@@. %%+XX  ooo    ooooooooooo",
"ooooooooooooooooooo XX+%%+ O@&@O +%%+XX oooooooooooooooooo",
"oooooooooooooooooooo  XXXX O@$@O  XXX  ooooooooooooooooooo",
"oooooooooooooooooooo  XXX. @@$@@ . ##  ooooooooooooooooooo",
"ooooooooooooooooooooo XX+ .@$$$@. XXX oooooooooooooooooooo",
"oooooooooooooooooooo X XX .@$$$@.  XXX  oooooooooooooooooo",
"ooooooooooooooooooo X  XX O@$$$@O  X.    ooooooooooooooooo",
"ooooooooooooooooooo   . X O@@$@@O  .. .OO oooooooooooooooo",
"oooooooooooooooooo OO..O  OO@&@OO  O  O&$. ooooooooooooooo",
"ooooooooooooooooo @&@O.O. OO@@@OO OO..@@&O  oooooooooooooo",
"oooooooooooooooo .$@@O.. .O%O@O%O. O.O@@@O $ ooooooooooooo",
"oooooooooooooooo .@OOO.. .O+OOO+O. .OOOOO. & ooooooooooooo",
"oooooooooooooooo ..OO..  .OOOOOOO. ....OO .@ ooooooooooooo",
"oooooooooooooooo ...     ..OO%OO.. . #....OO ooooooooooooo",
"oooooooooooooooo .OO@@ # ..OO%OO..   ## ..O oooooooooooooo",
"ooooooooooooooooo @O@$@#  ..OOO..  oo   OO@ oooooooooooooo",
"ooooooooooooooooo  @@@@#  ....... ooo .O@@O oooooooooooooo",
"oooooooooooooooooo O@O     .....  ooo  .@  ooooooooooooooo",
"oooooooooooooooo   OOOO     ...  ####o    oooooooooooooooo",
"oooooooooooooooo $ OOO O #       #######oooooooooooooooooo",
"oooooooooooooooo  .. .   ###   #########oooooooooooooooooo",
"ooooooooooooooooo      ###oo#########ooooooooooooooooooooo",
"oooooooooooooooooooooooooooooooooooooooooooooooooooooooooo",
"oooooooooooooooooooooooooooooooooooooooooooooooooooooooooo"
};
