/* XPM */
static char *result[] = {
/* columns rows colors chars-per-pixel */
"58 56 12 1 ",
"  c #40443A",
". c #2D3019",
"X c #5F3C2E",
"o c white",
"O c #888747",
"+ c #7E543D",
"@ c #ACAE7B",
"# c #191B00",
"$ c #F4F6F4",
"% c #A3757A",
"& c #F8BC79",
"* c #CC7C42",
/* pixels */
"oooooooooooooooooooooooooooooooooooooooooooooooooooooooooo",
"oooooooooooooooooooooooooooooooooooooooooooooooooooooooooo",
"oooooooooooooooooooo.oooooo...oooooo.ooooooooooooooooooooo",
"ooooooooooooooooooo.@.oooo.@@@.oooo.@.oooooooooooooooooooo",
"ooooooooooooooooooo.O@.oo.@OOO@.oo.@O.oooooooooooooooooooo",
"oooooooooooooooooooo.$O.. @###@ ..O$.ooooooooooooooooooooo",
"ooooooooooooooooooo.*$O.@@#...#@@.O$*.oooooooooooooooooooo",
"ooooooooooooooooooo.*. @ #.....# @ .*.oooooooooooooooooooo",
"oooooooooooooooooo.*&&#####...#####&&*.ooooooooooooooooooo",
"oooooooooooooooooo..&#.............#&..ooooooooooooooooooo",
"oooooooooooooooooo.@*#....#####....#*@.ooooooooooooooooooo",
"oooooooooooooooooo.O....#. OOO .#....O.ooooooooooooooooooo",
"oooooooooooooooo...O...#  OO@OO  #...O...ooooooooooooooooo",
"ooooooooooooooo.X  ...#  OOOOOOO  #...  X.oooooooooooooooo",
"oooooooooooooo..XX+X #.    OOO    .# X+XX..ooooooooooooooo",
"ooooooooooooo.O$.XXX .##         ##. XXX.$O.oooooooooooooo",
"oooooooooooo..O@@.XX   .#..   ..#.   XX.@@O..ooooooooooooo",
"ooooooooooo.  OO.+XX  .   .   .   .  XX+.OO  .oooooooooooo",
"ooooooooooo.OO ..++XXX  .   .   .  XXX++.. OO.oooooooooooo",
"oooooooooo. @O ..++XXXX . X   X . XXXX++.. O@ .ooooooooooo",
"oooooooooo.O@ O  +++XX+X   XXX   X+XX+++  O @O.ooooooooooo",
"oooooooooo.$ @O XX+++++X   XXX   X+++++XX O@ $.ooooooooooo",
"oooooooooo.@ @O  X+++++X   XXX   X+++++X  O@ @.ooooooooooo",
"ooooooooo.#@ @O. .X+++++X  X.X  X+++++X. .O@ @#.oooooooooo",
"ooooooooo.@@ O ..X.%++++X  .O.  X++++%.X.. O @@.oooooooooo",
"oooooooo. @O  ...XX%%+++X  .O.  X+++%%XX...  O@ .ooooooooo",
"ooooooo.  &OO . XX.X%%++X # O # X++%%X.XX . OO&  .oooooooo",
"ooooooo.@$$@O...XXX..%%+XX. @ .XX+%%..XXX...O@$$@.oooooooo",
"ooooooo.@&$@OO .X.X++++%++.O@O.++%++++X.X. OO@$&@.oooooooo",
"ooooooo...@&@X  .XXX++++++.O@O.++++++XXX.  X@&@...oooooooo",
"oooooooo.X  X+X .XXXX+++...@@@...+++XXX#. X+X  X.ooooooooo",
"ooooooooo.XXXXX .XXXXX++++.@@@.++++XXXXX. XXXXX.oooooooooo",
"ooooooooo..  XX.#.XXXXX++. @@@ .X+XXXXX.#.XX  ..oooooooooo",
"ooooooooooo....ooo..XX+%%. @@@ .%%+XX..ooo....oooooooooooo",
"oooooooooooooooooo.XX+%%+.O@&@O.+%%+XX.ooooooooooooooooooo",
"ooooooooooooooooooo..XXX..O@$@O.XXXX..oooooooooooooooooooo",
"ooooooooooooooooooo..##. .@@$@@. XXX..oooooooooooooooooooo",
"oooooooooooooooooooo.XXX. @$$$@ .+XX.ooooooooooooooooooooo",
"oooooooooooooooooo..XXX.. @$$$@ .XX.X.oooooooooooooooooooo",
"ooooooooooooooooo.... X..O@$$$@O.XX..X.ooooooooooooooooooo",
"oooooooooooooooo.OO .  ..O@@$@@O.X. ...ooooooooooooooooooo",
"ooooooooooooooo. $&O..O..OO@&@OO..O  OO.oooooooooooooooooo",
"oooooooooooooo..O&@@  OO.OO@@@OO. O O@&@.ooooooooooooooooo",
"ooooooooooooo.$.O@@@O O. O%O@O%O .  O@@$ .oooooooooooooooo",
"ooooooooooooo.&. OOOOO . O+OOO+O .  OOO@ .oooooooooooooooo",
"ooooooooooooo.@ .OO    . OOOOOOO ..  OO  .oooooooooooooooo",
"ooooooooooooo.OO    #. .  OO%OO  .....   .oooooooooooooooo",
"oooooooooooooo.O  .##...  OO%OO  .#.@@OO .oooooooooooooooo",
"oooooooooooooo.@OO...oo..  OOO  ..#@$@O@.ooooooooooooooooo",
"oooooooooooooo.O@@O .ooo.       ..#@@@@..ooooooooooooooooo",
"ooooooooooooooo..@ ..ooo..     .....O@O.oooooooooooooooooo",
"oooooooooooooooo....o####..   .....OOOO...oooooooooooooooo",
"oooooooooooooooooo#######.......#.O.OOO.$.oooooooooooooooo",
"oooooooooooooooooo#########...###... .  ..oooooooooooooooo",
"ooooooooooooooooooooo#########oo###......ooooooooooooooooo",
"oooooooooooooooooooooooooooooooooooooooooooooooooooooooooo"
};
