/* XPM */
static char *result[] = {
/* columns rows colors chars-per-pixel */
"61 59 12 1 ",
"  c #40443A",
". c #2D3019",
"X c white",
"o c #5F3C2E",
"O c #888747",
"+ c #ACAE7B",
"@ c #7E543D",
"# c #191B00",
"$ c #F4F6F4",
"% c #A3757A",
"& c #F8BC79",
"* c #CC7C42",
/* pixels */
"XXXXXXXXXXXXXXXXXXXXXXXXXXXXXXXXXXXXXXXXXXXXXXXXXXXXXXXXXXXXX",
"XXXXXXXXXXXXXXXXXXXXXXXXXXXXXXXXXXXXXXXXXXXXXXXXXXXXXXXXXXXXX",
"XXXXXXXXXXXXXXXXXXXXXXXXXXXXXXXXXXXXXXXXXXXXXXXXXXXXXXXXXXXXX",
"XXXXXXXXXXXXXXXXXXXXXX.XXXXXX...XXXXXX.XXXXXXXXXXXXXXXXXXXXXX",
"XXXXXXXXXXXXXXXXXXXXX.+.XXXX.+++.XXXX.+.XXXXXXXXXXXXXXXXXXXXX",
"XXXXXXXXXXXXXXXXXXXXX.O+.XX.+OOO+.XX.+O.XXXXXXXXXXXXXXXXXXXXX",
"XXXXXXXXXXXXXXXXXXXXXX.$O.. +###+ ..O$.XXXXXXXXXXXXXXXXXXXXXX",
"XXXXXXXXXXXXXXXXXXXXX.*$O.++#...#++.O$*.XXXXXXXXXXXXXXXXXXXXX",
"XXXXXXXXXXXXXXXXXXXXX.*. + #.....# + .*.XXXXXXXXXXXXXXXXXXXXX",
"XXXXXXXXXXXXXXXXXXXX.*&&#####...#####&&*.XXXXXXXXXXXXXXXXXXXX",
"XXXXXXXXXXXXXXXXXXXX..&#.............#&..XXXXXXXXXXXXXXXXXXXX",
"XXXXXXXXXXXXXXXXXXXX.+*#....#####....#*+.XXXXXXXXXXXXXXXXXXXX",
"XXXXXXXXXXXXXXXXXXXX.O....#. OOO .#....O.XXXXXXXXXXXXXXXXXXXX",
"XXXXXXXXXXXXXXXXXX...O...#  OO+OO  #...O...XXXXXXXXXXXXXXXXXX",
"XXXXXXXXXXXXXXXXX.o  ...#  OOOOOOO  #...  o.XXXXXXXXXXXXXXXXX",
"XXXXXXXXXXXXXXXX..oo@o #.    OOO    .# o@oo..XXXXXXXXXXXXXXXX",
"XXXXXXXXXXXXXXX.O$.ooo .##         ##. ooo.$O.XXXXXXXXXXXXXXX",
"XXXXXXXXXXXXXX..O++.oo   .#..   ..#.   oo.++O..XXXXXXXXXXXXXX",
"XXXXXXXXXXXXX.  OO.@oo  .   .   .   .  oo@.OO  .XXXXXXXXXXXXX",
"XXXXXXXXXXXXX.OO ..@@ooo  .   .   .  ooo@@.. OO.XXXXXXXXXXXXX",
"XXXXXXXXXXXX. +O ..@@oooo . o   o . oooo@@.. O+ .XXXXXXXXXXXX",
"XXXXXXXXXXXX.O+ O  @@@oo@o   ooo   o@oo@@@  O +O.XXXXXXXXXXXX",
"XXXXXXXXXXXX.$ +O oo@@@@@o   ooo   o@@@@@oo O+ $.XXXXXXXXXXXX",
"XXXXXXXXXXXX.+ +O  o@@@@@o   ooo   o@@@@@o  O+ +.XXXXXXXXXXXX",
"XXXXXXXXXXX.#+ +O. .o@@@@@o  o.o  o@@@@@o. .O+ +#.XXXXXXXXXXX",
"XXXXXXXXXXX.++ O ..o.%@@@@o  .O.  o@@@@%.o.. O ++.XXXXXXXXXXX",
"XXXXXXXXXX. +O  ...oo%%@@@o  .O.  o@@@%%oo...  O+ .XXXXXXXXXX",
"XXXXXXXXX.  &OO . oo.o%%@@o # O # o@@%%o.oo . OO&  .XXXXXXXXX",
"XXXXXXXXX.+$$+O...ooo..%%@oo. + .oo@%%..ooo...O+$$+.XXXXXXXXX",
"XXXXXXXXX.+&$+OO .o.o@@@@%@@.O+O.@@%@@@@o.o. OO+$&+.XXXXXXXXX",
"XXXXXXXXX...+&+o  .ooo@@@@@@.O+O.@@@@@@ooo.  o+&+...XXXXXXXXX",
"XXXXXXXXXX.o  o@o .#ooo@@@...+++...@@@oooo. o@o  o.XXXXXXXXXX",
"XXXXXXXXXXX.ooooo .ooooo@@@@.+++.@@@@ooooo. ooooo.XXXXXXXXXXX",
"XXXXXXXXXXX..  oo.#.ooooo@o. +++ .@@ooooo.#.oo  ..XXXXXXXXXXX",
"XXXXXXXXXXXXX....XXX..oo@%%. +++ .%%@oo..XXX....XXXXXXXXXXXXX",
"XXXXXXXXXXXXXXXXXXXX.oo@%%@.O+&+O.@%%@oo.XXXXXXXXXXXXXXXXXXXX",
"XXXXXXXXXXXXXXXXXXXXX..oooo.O+$+O..ooo..XXXXXXXXXXXXXXXXXXXXX",
"XXXXXXXXXXXXXXXXXXXXX..ooo .++$++. .##..XXXXXXXXXXXXXXXXXXXXX",
"XXXXXXXXXXXXXXXXXXXXXX.oo@. +$$$+ .ooo.XXXXXXXXXXXXXXXXXXXXXX",
"XXXXXXXXXXXXXXXXXXXXX.o.oo. +$$$+ ..ooo.XXXXXXXXXXXXXXXXXXXXX",
"XXXXXXXXXXXXXXXXXXXX.o..oo.O+$$$+O..o oo.XXXXXXXXXXXXXXXXXXXX",
"XXXXXXXXXXXXXXXXXXX.... .o.O++$++O... ....XXXXXXXXXXXXXXXXXXX",
"XXXXXXXXXXXXXXXXX..+O  .O..OO+&+OO..O.  O+..XXXXXXXXXXXXXXXXX",
"XXXXXXXXXXXXXXXX. $&+O  O .OO+++OO. O  O+&$ .XXXXXXXXXXXXXXXX",
"XXXXXXXXXXXXXXX. O&+++ OO. O%O+O%O .OO +++&O .XXXXXXXXXXXXXXX",
"XXXXXXXXXXXXXXX.O+++OOOO . O@OOO@O . OOOO+++O.XXXXXXXXXXXXXXX",
"XXXXXXXXXXXXXXX.OO+OO    . OOOOOOO .    OO+OO.XXXXXXXXXXXXXXX",
"XXXXXXXXXXXXXXX. OOOOO....  OO%OO  ....OOOOO .XXXXXXXXXXXXXXX",
"XXXXXXXXXXXXXXXX. OO   .#.  OO%OO  .#.   OO .XXXXXXXXXXXXXXXX",
"XXXXXXXXXXXXXXXX.    ..##..  OOO  ..##..    .XXXXXXXXXXXXXXXX",
"XXXXXXXXXXXXXXXXX.    ...#.       .#...    .XXXXXXXXXXXXXXXXX",
"XXXXXXXXXXXXXXXX.$. O+OO.#..     ..#.OO+O .$.XXXXXXXXXXXXXXXX",
"XXXXXXXXXXXXXXXX##+ +++O .#..   ..#. O+++ +##XXXXXXXXXXXXXXXX",
"XXXXXXXXXXXXXXX.$OOO++$O .#.......#. O$++OOO$.XXXXXXXXXXXXXXX",
"XXXXXXXXXXXXXXX.... O++ ..###...###.. ++O ....XXXXXXXXXXXXXXX",
"XXXXXXXXXXXXXXXXXXX......###########......XXXXXXXXXXXXXXXXXXX",
"XXXXXXXXXXXXXXXXXXXXXXXXXXXXXXXXXXXXXXXXXXXXXXXXXXXXXXXXXXXXX",
"XXXXXXXXXXXXXXXXXXXXXXXXXXXXXXXXXXXXXXXXXXXXXXXXXXXXXXXXXXXXX",
"XXXXXXXXXXXXXXXXXXXXXXXXXXXXXXXXXXXXXXXXXXXXXXXXXXXXXXXXXXXXX"
};
