/* XPM */
static char *result[] = {
/* columns rows colors chars-per-pixel */
"64 52 256 2 ",
"   c white",
".  c white",
"X  c #1A4D00",
"o  c #032E00",
"O  c #053200",
"+  c #022100",
"@  c #063800",
"#  c white",
"$  c white",
"%  c black",
"&  c #2D5900",
"*  c white",
"=  c #295E00",
"-  c #0D4400",
";  c #405E01",
":  c #375E00",
">  c #244B01",
",  c #0E0200",
"<  c #001500",
"1  c white",
"2  c #214601",
"3  c #376801",
"4  c #224F00",
"5  c #124600",
"6  c #2B5000",
"7  c #0F3400",
"8  c #195000",
"9  c #022900",
"0  c #2A5500",
"q  c #2B4D00",
"w  c #5E7B02",
"e  c #325701",
"r  c #305F00",
"t  c #1A4602",
"y  c #133A00",
"u  c #1C4102",
"i  c #2F6400",
"p  c #204A00",
"a  c #4E6301",
"s  c #083E00",
"d  c #4E6301",
"f  c #1F5300",
"g  c #010C00",
"h  c #164200",
"j  c white",
"k  c #456F07",
"l  c #335201",
"z  c #183D00",
"x  c #527513",
"c  c #FBFBF9",
"v  c white",
"b  c #0E4001",
"n  c #0D3B00",
"m  c #134A00",
"M  c white",
"N  c #011B00",
"B  c #4D7803",
"V  c #265700",
"C  c #102A03",
"Z  c #4D6A02",
"A  c #4F752D",
"S  c #889E45",
"D  c #91A54A",
"F  c #6E8833",
"G  c #356400",
"H  c #225500",
"J  c #36600C",
"K  c #3C6401",
"L  c white",
"P  c #325C00",
"I  c #476802",
"U  c #245202",
"Y  c #748A42",
"T  c #A5B792",
"R  c #1B3300",
"E  c #5C7400",
"W  c #233A01",
"Q  c #49661A",
"!  c #134E00",
"~  c #799335",
"^  c #477703",
"/  c white",
"(  c #3F7300",
")  c #264301",
"_  c #64843A",
"`  c #4E6C13",
"'  c #5E762B",
"]  c #D9DECD",
"[  c #406800",
"{  c #46670D",
"}  c #C4D1C0",
"|  c #375E1B",
" . c #607D1D",
".. c #65851B",
"X. c #3B5801",
"o. c #4B5E13",
"O. c #1D0B02",
"+. c #596301",
"@. c #A1B386",
"#. c #6B8326",
"$. c #95AC76",
"%. c #64834D",
"&. c #667D30",
"*. c #44672B",
"=. c #366D00",
"-. c #526D24",
";. c #3A3E02",
":. c #406302",
">. c #4E5202",
",. c #406B04",
"<. c #597C32",
"1. c #75874B",
"2. c #EAE9DC",
"3. c #203F00",
"4. c #566C01",
"5. c #38580B",
"6. c #41600D",
"7. c #597D25",
"8. c #B2C39D",
"9. c #E8EDE4",
"0. c #3B6218",
"q. c #557226",
"w. c #536C34",
"e. c #779567",
"r. c #D4DCCE",
"t. c #92A543",
"y. c #789251",
"u. c #E5EADE",
"i. c #A9BB70",
"p. c #9DAF55",
"a. c #9EA591",
"s. c #C9CAB2",
"d. c #060000",
"f. c #3B1607",
"g. c white",
"h. c #434B03",
"j. c #263008",
"k. c #8F944E",
"l. c #8F944E",
"z. c #537820",
"x. c #7F8F3E",
"c. c #567805",
"v. c #637E0F",
"b. c #2F5B07",
"n. c #456300",
"m. c #7B7C3B",
"M. c #2D4802",
"N. c #A4BA9F",
"B. c #3E6722",
"V. c #A2B46D",
"C. c #73802D",
"Z. c #374B13",
"A. c #6B8653",
"S. c #4F6423",
"D. c #87995C",
"F. c #9DAE64",
"G. c #718C5C",
"H. c #708D39",
"J. c #5F6A06",
"K. c #788936",
"L. c #264C16",
"P. c #4D2812",
"I. c #617A43",
"U. c #180400",
"Y. c #C0CCAD",
"T. c #4D7339",
"R. c #4A6E06",
"E. c #CDD4B8",
"W. c #5E823B",
"Q. c #DDD9B9",
"!. c #BAC194",
"~. c #29570D",
"^. c #C1C9BF",
"/. c #87946B",
"(. c #52810F",
"). c #1E4B12",
"_. c #2D5C17",
"`. c #5C760D",
"'. c #48741E",
"]. c #4E613F",
"[. c #758200",
"{. c #648907",
"}. c #386708",
"|. c #888C29",
" X c #7C9777",
".X c #CDD9C9",
"XX c #3B4B01",
"oX c #879939",
"OX c #708E24",
"+X c #728F62",
"@X c #88A675",
"#X c #879D68",
"$X c #7F9A44",
"%X c #AABC8D",
"&X c #B8C3A9",
"*X c #6B7F3F",
"=X c #303F05",
"-X c #2B4C0C",
";X c #697716",
":X c #AAC17E",
">X c #B5C584",
",X c #91A47C",
"<X c #5F2B0A",
"1X c #AFA59D",
"2X c #9F9B6F",
"3X c #C3B799",
"4X c #83A051",
"5X c #7D7412",
"6X c #97A07A",
"7X c #AAA66C",
"8X c #080600",
"9X c #C3CEA0",
"0X c #658D3B",
"qX c #4C5B08",
"wX c #57783F",
"eX c #B0B79F",
"rX c #6A7B05",
"tX c #749879",
"yX c #7D7E6E",
"uX c #95B473",
"iX c #121903",
"pX c #748E6D",
"aX c #312E00",
"sX c #83A562",
"dX c #625F04",
"fX c #558117",
"gX c #657737",
"hX c #4B4D31",
"jX c #8C9D35",
"kX c #6D7A54",
"lX c #3D5E2A",
"zX c #B6BB6B",
"xX c #5D6D51",
"cX c #344E24",
"vX c #35551E",
"bX c #7E4722",
"nX c #5B0D00",
"mX c #714029",
"MX c #9A8642",
"NX c #290500",
"BX c #183510",
"VX c #D7CCB3",
"CX c #C7D2B4",
"ZX c #8EAF83",
"AX c #9A7D13",
"SX c #9BA357",
"DX c #D3DEC1",
"FX c #A4994D",
"GX c #CCCE6C",
"HX c #908C3C",
"JX c #51411A",
"KX c #9A9200",
"LX c #909500",
"PX c #826200",
"IX c #89867F",
"UX c #304710",
/* pixels */
"                                                                                                                                ",
"                                                                                                                                ",
"                                                                1   $                                                           ",
"                                                .     #     #   $X  {.  9X                            @.j .   $                 ",
"                                        v $     #     # # L 9.  $   #   $   l.                    @.  $ $ d   1   #             ",
"                                    1       #         $ j B.G.    r.  %X  ]     $             9.  r.] u.d   `   -.  $           ",
"                                      $ v @XL   # 1 $     b.b.j   _   # $ .   B         .     I . # { $.T #X$ '   1.            ",
"                                $         } # c '.N.fX(.$ f : G   v 8.  W.  <.  c # .   E.c   u.r M M y.$ 8.A   J # $           ",
"                              .   M     N.N.r.r.. $   T $ V 3 r d $ 0 $ l.c $ . $ $   j $._ $ # &X& #X.Xe 1.1 6.c / # $         ",
"                          . . $     L   M A .XuX@.}.(   Y.- m r ( / 9.^   k # 4X$ $   d Y p r &X$ u.4 0.N.J { } T /.    M       ",
"                        .     u.g.1. XuXA wX<.}.0 ,X= ( CX- 8 f X ( DXOX7.# i $ /   8.#.} @XQ X p } -.L 4 | A _ <.  D.$ Y.      ",
"                      c   . 0XpX<.$.e.W...J z.0Xi V H 3 3 b f H H f = ^ $ J # @.  j c q.1 . d g.p t p > ~.U G.A M -X. eX#       ",
"              $   9.v tX+XW.1 4X_ e.y.ZX^ 3 = k T r 8 i =.5 G ( =.B B G i . z.  B.$ . ,.8.V { t p h 5 U 4 5.> T.A A %.A.        ",
"              .X  tXY *.T.V.+Xe w ' U n.*XH Q ! @ m X ! 8 8 ^ = ! X = 3 $ G $ V   <.F v...6 m 2 5 5 q M.U AXQ e b.2 ` $         ",
"              }   k.# x H.k q.x K = z.gXG._ ,.,.b s ! s i i i 5 ^ =.=.0 = = (./ }.  u.:.{.& XX5.S.4 2 X `.3._.4.l -.g.          ",
"            . e.$ A { B.:._.P x.P ..7.0.7.sXh s X @ X - 8 =.- G 5 i & i 8 M 3 c T d e.4.k K rXy 4 v.E 2 ` m w 0 C.$             ",
"            9.d $ #.e.0.0 4 2 6 R.0 & : b.'.| U O - 5 m m = p V X = 3 8 3 7.r H.  T B.w B 4 6 & y I ~.4.z w A.w $   /           ",
"          . H.L 2.x F x U > J O u b 0.-.T.f 4 - b o @ @ 4 X 3 = f K 0 r = k %.0.D.$ p & B B & w l e R.O k . c.  $ E.            ",
"        eX XzX2.. F ~ ~ k P h h o e F { | V h @ h @ @ o X U : V > & 4 5 X B d *.%.n 6 p ,.c.6 e e r :.: $.n.$ I .     s.M       ",
"        ] J.$.V.>X@X%X6 #.x { q n 9 + 6 4 ).@ s 5 O @ 9 O 4.Z G : & s m = x $ F | 5 8 b H m ; 6 X M.X r 4 : e   T ] %X# j s.    ",
"      HX# $ &.. :Xa %.; 7.x k z.O 9 x 6.a w.y n s O + + + N R K & ( B ,.[ I [ ,X .` o.) ,.P > y b t X n.s a 6 E.B $ F.[.        ",
"        / $   l.;X$X .X.:.S K I K 9 < 7 w.C } y L.u o b O h.;.6 e }.8 - 5 a.F t Z qXJ C G 0 7 y - h @ s b t r P n.F.$ v.$       ",
"    2.$ . . ; $ u.n.P #.~ u : l k & > J ; _.7 + 7 + ).W dXq 5.h.I 3 : 8 ~.1.R.t 5 ,.V @ & O t b f @ @ t U q u p > Z x.          ",
"        a V.Y q.a ~ >.OXZ e C.l 6.y 2 + x L L.-X*.).Z.7 5X3.v.:.-.SXX.o.&.Z p 6.q.w.a.O X.+ - @ O z y O 9 7 z d                 ",
"            q.l ` zXc.F K...oX#.u t 3.6.6 %.].Z.z m.u -Xa ; Q x.a *.@.[.X.p l J.&X; u LXE +.3.@ O o 9 2 ] : @ ` k.!.VX          ",
"                y.o.o.OX..oXt.`. .: X.) Z S.| ) > q w.*X=X;Xh.:XrXY y.w #XA.h Z.W +.E ; R < g g g g + 3.y lX XR [ S             ",
"            l.$     j -.1.K.S S ~  .x c.|.GXC.k.' ;./.' W M.a z q > V.w z {.#.Z.^.[ U y KX+ p C ].g 9 > ) wX  . . . .           ",
"                  $ Q.+.jXt.p.i.S  .S  .jXXX< 7 Z `.FXo.) R X.q R u ; ; E Z w >.z PXE 4.;XdXkX$ Y.  . BX+ o O u . /             ",
"                  $ ; =XQ :XfXS p.H.D $XoX&.7 + + /.m.Y J.; Q n 2 q 0 & P w Z l E e [.a 7X. # ]   /         $ . L c             ",
"          $   . .     !.i.~ i.C K.p.D ~ x.D z o N O J.I.o.q ; Y o 4 U 0 : 6 : : [ E XX+.m.|.+.                                  ",
"                    # gXR C W t...K.Q.t.t.p.2 y O + 7 C.a z l o N + o q n t W u R z ^.. _ 1                                     ",
"                  6XaX;.N yXD W sX>X|.D D i.z t L.t o r.&.JX+.9 + N o O 7 < < g + 2 y W l qX!.                                  ",
"              $ m.;.1 9 xX. a.pXp.$ 9XD   S.w.I.| -X. cX# o >.g < 2 ^.. o < g < < 9 o )                                         ",
"            5X. >.$ N < C 7 kXS   i.  F.# ' I.+X$ A.vX. vXj.M.aXaX#   5..         . . $ .                                       ",
"        7X# . Q.$ + < iX    ].c     # >X  F   $ L.%.  u , lX8XS.$         M                                                     ",
"          $ # $ C 3Xg j.        c     $   D $ ,X@.  *.# cX% UXiX                                                                ",
"        3X  M 9.2XC N               $     F.*X%.M $ G.  xX% % hX2.                                                              ",
"        # 2X  2.h.;.>.                  # a.&.y.  5.a.*.IXQ % d., yX                                                            ",
"        #   k.MXc 6X$                     Y D.    $.  d , % hX,                                                                 ",
"            # s.$ 1                       ' 1       .   =XU.O.d.                                                                ",
"              # # s.                      j 8.. D.  &.  f., % ,                                                                 ",
"                                            $           f.% % % #                                                               ",
"                                                      1XNXO.% nXP.                                                              ",
"                                                      mXU.<XbXf.P.#                                                             ",
"                                                    O.% , , <Xd.f.1X                                                            ",
"                                                  M % , % % , P.% ,                                                             ",
"                                                  j % % % % % d.U.%                                                             ",
"                                                    % % % % % % O.%                                                             ",
"                                                    . j.8X% O.% % g.                                                            ",
"                                                          $   $ $                                                               ",
"                                                                                                                                ",
"                                                                                                                                "
};
