/* XPM */
static char *result[] = {
/* columns rows colors chars-per-pixel */
"64 53 120 2 ",
"   c white",
".  c white",
"X  c black",
"o  c white",
"O  c white",
"+  c white",
"@  c #444A00",
"#  c white",
"$  c white",
"%  c white",
"&  c white",
"*  c #5D6301",
"=  c #343900",
"-  c white",
";  c #616701",
":  c #585E00",
">  c white",
",  c #4B5000",
"<  c #505600",
"1  c #2A2B00",
"2  c #535900",
"3  c #110900",
"4  c #474D00",
"5  c #373B00",
"6  c white",
"7  c #232100",
"8  c #040200",
"9  c #767C0C",
"0  c white",
"q  c #303200",
"w  c #3C4000",
"e  c #545B01",
"r  c #4D5300",
"t  c #0B0600",
"y  c #414500",
"u  c #1F1A00",
"i  c #6C7305",
"p  c #3E4300",
"a  c #888D1F",
"s  c #140E00",
"d  c #323600",
"f  c #646B02",
"g  c #717709",
"h  c #828717",
"j  c #393F00",
"k  c #A19F8E",
"l  c #1B1600",
"z  c #7C8112",
"x  c #171200",
"c  c #3C3315",
"v  c #BCC357",
"b  c #B0AFA0",
"n  c #53541B",
"m  c #8F941F",
"M  c #D0CFCA",
"N  c #686E06",
"B  c #9DA229",
"V  c #949925",
"C  c #272600",
"Z  c #271E0A",
"A  c #424800",
"S  c #58502E",
"D  c #C9C8C2",
"F  c #4D4226",
"G  c #E2E2E1",
"H  c #89876D",
"J  c #C1C0B5",
"K  c #443C19",
"L  c #999880",
"P  c #6A6541",
"I  c #757250",
"U  c #A7A694",
"Y  c #929276",
"T  c #C4C4BD",
"R  c #817E61",
"E  c #A4A94E",
"W  c #31280A",
"Q  c #605934",
"!  c #ACAC99",
"~  c #8D9329",
"^  c #D4DD7B",
"/  c #9DA239",
"(  c #CCCCC6",
")  c #3E3925",
"_  c #6C6F20",
"`  c #7E7E4D",
"'  c #959A36",
"]  c #6A6752",
"[  c white",
"{  c #4B4F09",
"}  c #7A7E1D",
"|  c #A6AB3D",
" . c #7A765F",
".. c #5C5844",
"X. c white",
"o. c #E2E2D4",
"O. c #B0B64C",
"+. c #A5A771",
"@. c #9EA15D",
"#. c #5D5F14",
"$. c #787831",
"%. c #B9BA95",
"&. c #AFB187",
"*. c #65672E",
"=. c #C6C8A2",
"-. c #373209",
";. c #D8D9CA",
":. c #57590C",
">. c #919357",
",. c #EAEEBA",
"<. c #D6DA9C",
"1. c #D0D2A1",
"2. c #B8B8AB",
"3. c #888C42",
"4. c #4D4615",
"5. c #EEEFDB",
"6. c #BFC385",
"7. c #D1D2B3",
"8. c #B4B874",
"9. c #7D7C39",
/* pixels */
"#   #   #   6 #   #   #   #   #   #   # -   #   #   #   #   #   #   O #   #   #   #   # t r 5 w = = k   #   #   #   #   # O   # ",
"  #   #   # +   #   #   #   #   #   #   > #   #   #   #   #   #   # $   #   #   ..u 3 X 8 y * 5 2 #.r p = M   #   #   #   $ #   ",
"#   #   #   6 #   #   #   #   #   #   # -   # 8 l 1 4 8 #   #   #   O #   #   4 = C , i < @ * } - * ;.` , = @ w 7   #   # O   # ",
"  #   #   # +   #   #   #   #   #   #   > #   t ; -.: @ = I   #   # $   # t < 1 < 2 8 9 s F 3 i k = M % &.Y 2 $ r o   #   $ #   ",
"#   #   #   6 #   #   #   #   #   #   # -   # X s > f y C F #   #   O # Q 1 * : f g ; a - T   ! = + n q 1.D # L # y P O # O   # ",
"  #   #   # +   #   #   #   #   #   #   > #   8 _ w r 9 j n O J   # $ 5 7 , d d i l # ..#   #   , o.U y j #   #   # ; K   $ #   ",
"#   #   #   6 #   #   #   #   #   #   # -   0 8 # e 4 i 9 = j U # Z @ 1 = s j ; 3 3  .#   #   # #   # O =.@ #   #   # % l O   # ",
"6 [ 6 [ 6 [ X.6 [ 6 [ 6 [ 6 [ 6 [ 6 [ 6 - [ 6 b h p a B a = @ d u u p * ; X 3 C P w 8 4 X I 7 s 6 [ 6 [ 6 I j O 6 [ 6 [ 1 % [ 6 ",
"  #   #   # +   #   #   #   #   #   k 1 , @ @ q d # a a a @ = l X t @ u 3 X s V 3 X p r * 4 C y H X   #   #   [ 1 #   # b q #   ",
"#   #   #   6 #   #   #   #   # 4 f @ r 2 * : y 3 < = 5 B @ 2 = C q < X 3 3 = 2 : r i # 2.4 1 H , 1 6 L #   #   #   #   # J x # ",
"  #   #   # +   #   #   #   # ~ ; j 2 e k f t N , 2 ; 7 w 2 = = u x 8 3 p d * f *.i + 6.,.  #   U ! Z b ] )   #   #   #   $ . [ ",
"#   #   #   6 #   #   #   # ( 4 A e 2 i =.G 8 h X = e y q 4 , t , < X X 7 h d 9 p q u w N #   # #   #   # ..8   #   #   # O   ( ",
"  #   #   # +   #   #   j @ 9 : @ @ f < q :.8 g * t = m X q @ 4 4 X 3 9 5 : < 5 4 T :.: S #.@ Q , #   #   # ] &   #   #   $ #   ",
"#   #   #   6 #   # n =.%.h i < < @ * B < 4 7 X * t l t X 3 y 1 x 8 9 @ 7 2 < : X $.; H r e p , j 1 A   #   # M #   #   # O   # ",
"  #   #   # +   # w 3.2 ( [ p 9 :   & t x s 7 C 1 X X 3 s C 1 y j g q 2 h @ X f g + D H r : ;. .G G L 1   #   #   #   #   $ #   ",
"#   #   #   6 # e f D # ! m j v n k m X u f * n p l x x 8 l x = * q < 5 h N 9 ..Z #   <.( o.- # # ; 5 j ( Y #   #   #   # O   # ",
"  #   #   # + 3 R [ # @ a : , p 1 : : y ' } ` , t A u p : j w 1 : q _ E n 8 ~ B q s ] p n ] P q   # U # d w -.#   #   #   $ #   ",
"#   #   #   6 b + 4 : ; a * z ; f C * r j = * Y i y e f A y , u < 1 8 m : _ @ , *.r 4 & R s 3 y p  .#   # j y L #   #   # O   # ",
"  #   #   # d < * y +.V g < G : >.$.8 i ` y w 7 N r a 5 5 < p * q ; < * p , * e ) e * g &.[ . P   5 j 2.  # T I   #   #   $ #   ",
"#   #   #   j G D %.L # h | v B   E 8 : @ < r j q w X = ; q 4 3 9 1 z w 7 i #.i +.f U #   # G # 0 J d w X.  *.y #   #   # O   # ",
"  #   #   8 +.D #   # J h   #   # X 9 E 9 B >.2 5 u m z c j f f 4.* d : f m x O.!   ,.  1.  #     #   ] l #   J 7 #   #   $ #   ",
"O $ O $ X U % O $ O $ O < O $ O X t D O o ' n S 5 k v 2 O.@ V z r y  .e 1 C j @ = d i q X.O $ O O $ O G l 3 O $ c $ O $ O > $ O ",
"#   # t F L 6 #   #   # } #   # 8 X   # -   9 H M + a | V , ; 9 ^ 7 e 2 A @ @ < @ : , = w $   # #   #   2.) #   #   #   # O   # ",
"  #   b   0 +   #   #   >   #   t c #   > #   i Y k   g ^ r ; } : N g g ` 2 , f i , ; r = r k     #   #   k 8 #   D   #   $ #   ",
"#   k M #   6 #   #   #   #   # X #   # -   # a #   o.a e 4 ; * %., g 9 v v z e / I * * 2 Y h s #   #   #   M x # T #   # O   # ",
"  )   #   # +   #   #   #   #   #   #   > #   #   # v E e p a E / h 7.b | F s 7 /   # : 3.4 > 1 @ #   #   # b c   #   #   $ #   ",
"J   #   #   6 #   #   #   #   #   #   # -   #   # M v B 4 4 N V # ( O #   #   C T #   # k o.2 s A   #   #   # I Q   #   # O   # ",
"  #   #   # +   #   #   #   #   #   #   > #   #   #   # V ~ z &.8.0 $   #   # Q H   #   ^ , # % C L   #   #   # R #   #   $ #   ",
"#   #   #   6 #   #   #   #   #   #   # -   #   #   # ^ O ' z z #   O #   #   &   #   #   X.  k @ = M   #   #   # I #   # O   # ",
"  #   #   # +   #   #   #   #   #   #   > #   #   #   v * ^ h z M # $   #   #   #   #   # ;.# 9 @ A   #   #   #   #   #   $ #   ",
"#   #   #   6 #   #   #   #   #   #   # -   #   #   #   O.' m v <.  O #   #   #   #   #   #   0 @ d R   #   #   #   #   # O   # ",
"  #   #   # +   #   #   #   #   #   #   > #   #   #   < V e | N   # $   #   #   #   #   #   #   9 p d #   #   #   #   #   $ #   ",
"#   #   #   6 #   #   #   #   #   #   # -   #   #   # g X a e 4 #   O #   #   #   #   #   #   # ! R q   #   #   #   #   # O   # ",
"  #   #   # +   #   #   #   #   #   #   > #   #   #   # g h _ 5.  # $   #   #   #   #   #   #   ! # H R   #   #   #   #   $ #   ",
"#   #   #   6 #   #   #   #   #   #   # -   #   #   #   9 / f T #   O #   #   #   #   #   #   # # b > @ #   #   #   #   # O   # ",
"o . o . o . o o . o . o . o . o . o . o . . o . o . o . 2 f ~ > o . . o . o . o . o . o . o . o o . D ) o . o . o . o . o . . o ",
"  #   #   # +   #   #   #   #   #   #   > #   #   #   # h / Z #   # $   #   #   #   #   #   #     #   # Y #   #   #   #   $ #   ",
"#   #   #   6 #   #   #   #   #   #   # -   #   #   #   F z N   #   O #   #   #   #   #   #   # #   #   #   #   #   #   # O   # ",
"  #   #   # +   #   #   #   #   #   #   > #   #   #   # Z ~ Z #   # $   #   #   #   #   #   #     #   #   #   #   #   #   $ #   ",
"#   #   #   6 #   #   #   #   #   #   # -   #   #   #   Q a u   #   O #   #   #   #   #   #   # #   #   #   #   #   #   # O   # ",
"  #   #   # +   #   #   #   #   #   #   > #   #   #   # 8 l c #   # $   #   #   #   #   #   #     #   #   #   #   #   #   $ #   ",
"#   #   #   6 #   #   #   #   #   #   # -   #   #   #   t c s   #   O #   #   #   #   #   #   # #   #   #   #   #   #   # O   # ",
"  #   #   # +   #   #   #   #   #   #   > #   #   #   # x s Z #   # $   #   #   #   #   #   #     #   #   #   #   #   #   $ #   ",
"#   #   #   6 #   #   #   #   #   #   # -   #   #   #   C S -.  #   O #   #   #   #   #   #   # #   #   #   #   #   #   # O   # ",
"  #   #   # +   #   #   #   #   #   #   > #   #   #   # 1 c u #   # $   #   #   #   #   #   #     #   #   #   #   #   #   $ #   ",
"#   #   #   6 #   #   #   #   #   #   # -   #   #   #   S c u   #   O #   #   #   #   #   #   # #   #   #   #   #   #   # O   # ",
"  #   #   # +   #   #   #   #   #   #   > #   #   #   # P C u #   # $   #   #   #   #   #   #     #   #   #   #   #   #   $ #   ",
"#   #   #   6 #   #   #   #   #   #   # -   #   #   #   c K C   #   O #   #   #   #   #   #   # #   #   #   #   #   #   # O   # ",
"  #   #   # +   #   #   #   #   #   #   > #   #   #   # 8 S W K   # $   #   #   #   #   #   #     #   #   #   #   #   #   $ #   ",
"& % & % & % & & % & % & % & % & % & % & . % & % & % & % K W F W & % - & % & % & % & % & % & % & & % & % & % & % & % & % & - % & ",
"#   #   #   6 #   #   #   #   #   #   # -   #   #   # c $.P K S #   O #   #   #   #   #   #   # #   #   #   #   #   #   # O   # ",
"  #   #   # +   #   #   #   #   #   #   > #   #   #   W K Q S s O # $   #   #   #   #   #   #     #   #   #   #   #   #   $ #   ",
"#   #   #   6 #   #   #   #   #   #   # -   #   #   #   9.Z F W #   O #   #   #   #   #   #   # #   #   #   #   #   #   # O   # "
};
