/* XPM */
static char *result[] = {
/* columns rows colors chars-per-pixel */
"128 128 11 1 ",
"  c #9CD2FD",
". c #8ECBFB",
"X c #A9D9FF",
"o c #BAE3FF",
"O c #96CEFC",
"+ c #A2D5FE",
"@ c #B3E0FF",
"# c #AEDCFF",
"$ c #89C8FB",
"% c #83C5FA",
"& c #7CC2FA",
/* pixels */
"&&&&&&&&&&&&&&&&&&&&&&&&&&&&&&&&&&&&&&&&&&&&&&&&&&&&&&&&&&&&&&&&&%&%&%&%&%%%%%%%%&&&%%%%%%%%%%%%%%%%%%%%%%%%%%%%%%%$$$$$$$$$$$$$",
"&&&&&&&&&&&&&&&&&&&&&&&&&&&&&&&&&&&&&&&&&&&&&&&&&&&&&&&&&&&%&&%&&%&%&%&%&%%&%%&%%%&%&%&%&%%%%%%%%%%%%%%%%$%$%$%$%$$%%$%%$%%$%$$$",
"&&&&&&&&&&&&&&&&&&&&&&&&&&&&&&&&&&&&&&&&&&&&&&&&&&&%&&%&&%&&%&&&%&%&%&%&%%%%%&%%&%%%%%%%%%%%%%%%%%%%%%%%%$%$$%$%$%$$$%$$$$$$$$$$",
"&&&&&&&&&&&&&&&&&&&&&&&&&&&&&&&&&&&&&&&&&&&&&&&&&%&&%&&%&&%&&&%&&%%%%%%%%&%&%%%%%%%%%%%%%%%%%%%%%%%%%$%%%$%$%$%$$%$%%$$$$$%$%$$$",
"&&&&&&&&&&&&&&&&&&&&&&&&&&&&&&&&&&&&&&&&&&&&&&&&&&&&&&&&&&&%&%&&&%&%&%&%&%%%%%%%%%%%%%%%%%%%%%%%%$%$%%$%$%$%$$%$%$%$$$$%$$$$$$$$",
"&&&&&&&&&&&&&&&&&&&&&&&&&&&&&&&&&&&&&&&&&&&&&&&%&%&%&&%&&%%&%&%%%%%&%%%%%%%%%%%%%%%%%%%%$%%%%%%%%%$%$$%$%$%$$%$%$$$$$%$$$$%$$$$$",
"&&&&&&&&&&&&&&&&&&&&&&&&&&&&&&&&&&&&&%&%&&&&&%&&&%&%&%&%%&%%%%&%&%%%&%&%&%%%%%%%%%%$%$$$%%%$%%%$%$$%$%$%$$$$%$$$$%$$$$$$$$$$$$$$",
"&&&&&&&&&&&&&&&&&&&&&&&&&&&&&&&&&&%&%&%%%&%&%&%%&%&%%&%%&%%&%&%%%%%%%%%%%%%%%%%%%%$%%%$%$%%%%%%%%%$%$%$%$%$$$$$$$$$$%$$$$%$$$$$$",
"&&&&&&&&&&&&&&&&&&&&&&&&&&&&&%&&%&&&&&&&&%%&%%&%%%%%&%%&%%%%%%%%%%%%%%%%%%%%%%%%%$%$$$%$%$$$$$$$$$$$$$$$$$$%$$%$$$$$$$$$$$$$$$$$",
"&&&&&&&&&&&&&&&&&&&&&&&&&&%&%&&%&&%&%&%%&%%%%%%%%%%%%%%%%%%%%%%%%%%%%%%%%%%%%%%%$%$%$%$%$$$$$$$$$$%$$%$$$%$$$$$$$$$$$$$$$$.$.$.$",
"&&&&&&&&&&&&&&&&&&&&&&&&&&&&&&%&&%&&%&&&%%%%%%%&%%%%%%%%%%%%%%%%%%%%%%%%%%%%%%$%$$%$%$$%$%$%$%$%$$$$$$$%$$$%$%$%$$.$.$.$.$$.$$.$",
"&&&&&&&&&&&&&&&&&&&&&%&%&%%%%&%&%&%%%%%%%%%%&%%%%%%%%%%%%%%%%%%%%%%%%%%$%%%%%$%$%$$$$$$$$$$$$$$$$$$$$$$$$$$$$$$$$.$$$.$$.$.$$.$$",
"&&&&&&&&&&&&%&%&%&%&%&&&&%&&&%&%&%%&%%%%%%&%%%%%%%%%%%%%%%%%%%%%%%%%%%$%%$%%$%$$$$%$$%$$%$$$$$$%$$$$$$$$$$$$$$$$$$.$.$.$$.$.$$.$",
"&%&&%&&&%&%%&%&%&%%%&%%%%&%%%%%%%%%%%%%%%%%%%%%%%%%%%%%%%%%%%%%%$%%%$%%$%%$$$$$$$$$$$$$$$$$$$$$$$$$$$$$$$$$$$$$$$$..$.$..$.$....",
"&&%&&&%&&%&&%&%&%&%%%%&%%%%&%&%&%%%%%%%%%%%%%%%%%%%%%%%%%%%%%$%$%%$%%$%%%$$%$$$$$$%$%$$%$$$$$$$$$$$$$$$$$$$$$$$$$.$..$..$..$.$.$",
"%&&&&%&&&%&%&%&%&%%&%&%%&%%%%%%%%%%%%%%%%%%%%%%%%%%%%%%%%%%%%%%%$%%$%%%$$$$$$$$$$$$$$$$$$$$$$$$$$$$$$$$$$$$$$$$$$$..$..$..$...$.",
"&%%%&%&%&%%%&%%%%%%%%%%%%%%%%%%%%%%%%%%%%%%%%%%%$%%%%%%%%$%$%$$%$$$$$$$$$$$$$$$$$$$$$$$$$$$$$$$$$$.$$.$.$.........$$.$.$.$.$.$..",
"&&&&%&%&%&%&%%%%%%%%%%%%%%%%%%%%%%%%%%%%%%%%%$%$%%%%%%%%%%%$%$%$%$$%$$$$$$$$$$$$$$$$$$$$$$.$.$.$.$$.$$$$$$.$.$.$.$....$.$.....$.",
"&%%%%%&%%%%%%%%&%%%%%%%%%%%%%%%%%%%%%%$%$%%%%%%%$%$%$%$%$%$%$%$%$$$$$$$$$$$$$$$$$.$..$..$.$$$.$.$$.$$.$.$..$..$..$.$.$.....$....",
"&%&%&%%%&%%%%%%%%%%%%%%%%%%%%%%%%%$%$%%%%%%$%$%$%%$%$%$$%$$$$$$$$%$%$$$$$$$$$$$$$$.$$.$$$$.$.$.$$.$...$...$..$.$.$..$..$$.......",
"&%%%%%%%%%%%%%%%%%%%%%%%%%%%$%%%$%%%%$%$%$%%%$%$%$$$$$$$$$%$$%$$$$$$$$$$$.$.$.$.$.$$.$.$.$$.$$$.$..$.$.$........................",
"%%%%%%%%%%%%%%%%%%%%%%%%%$%$%%$%%$%$%%$%%%$%$%$%$$$$$%$$%$$$$$$$$$$$$$$.$$.$$.$$.$..$.$....$.....$..$...$.......................",
"%%%%%%%%%%%%%$%$%%%%%%%%%%%%$%%$%$%$$%$%$%%%%$%$%$$$$$$$$$$$$$$$$$$$$.$$.$$.$$.$$.$..$.$.$..$.$$..$..$.$........................",
"%%%%%%%%%%%%%%%%$%%%%%%%%$%$%%$%%$%$%$%$$%$%$%$%$$$$$$$$$$$$$$$$$$.$$.$.$$.$$.$$.$..$....$.$.$...$..$...........................",
"%%%%%%%%%%%$%$%$%%$%$%$%%$%$%$%$$$$$$$$$%$$$$$$$$$$$$$$$$$$$$$$$$$$$$$$.$.$..$..$..$.$.$....$..$.......$.$.$.$.$..........O.O..O",
"%%%%%%%%%$%%$%%%$%%$%%%%$%$%$$%$%$%$%$%$$$$%$$%$$$$$$$$$$$$$.$.$.$.$.$$.$...$..$..$...$..$.$..$.$...............$........O....O.",
"%$%%$%%$%%$%%$$%$%$%%$%$%$$%$%$%$$$$$$$$$$$$$$$$$$.$.$.$.$.$$.$$.$$.$..$.$.$.$.$.$..$..$..................$............O..O.OO.O",
"%%%$%%$%%$%%%$%$%$$$$$$$$$$$$$$$$$$$$$$$$$$$$$$$$$$$$$$$$.$.$$.$$.$$.$.$..$.$..$...$.$..$....................$.....O.O.O.O.O..OO",
"%$%%$%%$%%$%$%$$%$$$$$$$$$$$$$$$$$.$.$.$$.$$.$$.$.$.$.$.$$$.$.$.$$..$...$........................................O.O.O.OO.O.OO.O",
"$%%$%$%%$%$$%$$%$$$$$$$$$$$$$$$.$$.$$.$$.$$.$$.$.$..$..$...$.$.$...$..$......................$....................O.O.OO.O.O.OOO",
"%$$%$%$$%$%$$%$$$$$$$$$$$.$..$.$..$..$..$..$..$.$.$..$..$.$...$.$.$..$...........$.......................O.O.O.O.OOOOO.OOOO.OOOO",
"$%$%$$%$%$$%$%$$$.$.$.$.$$.$$.$$$$..$..$..$..$...$..$..$.$..$.$....$..................$............O...O..........O.O.OOOO.OOO.O",
"$$$$$$$$$$$$$$$$$$$$$$$$.$$.$$.$..$..$..$..$..$.$.........$....$.$........$...........O...O..O.O.O..OO..OOOOOOOOOOOOOOOO.OOOOOOO",
"$$$$$$$$$$$$$$$$$$$$.$.$$$.$.$.$$..$..$..$..$.$............$.$.$.................O.O.O..O...O....O.O.O.O.O.O.O.OOOOOO.OOOOOOOOOO",
"$$$.$$.$$$$$$$$$$$.$$$$$..$.$.$......................$............................O.O.O.O.O...O..O.O..O.O.O.OOOO.OO.OOOOO.OO.OOO",
"$.$.$.$.$.$$.$$$$.$.$..$.$.$....$.............................................O.OO.OO.OO.O.OOOOOO.O.OOO.OO.OOO.OOOOOOOO.OOOOOOOO",
".........$.$$.$.$..$.$..$....$........................................O.O.OOO.OO.OOOOOOOOO.O.O.O.OOO.O.O.OOO.OOOOOOOOOOOOOOOOOOO",
"$.........$...$..$.$...$...........$..$..$...$......................O....O.O.O.OOOOOO.OO.OOOOOOOOO.OOOOOOOOOOOOOOOOOOOOOOOOOOOOO",
"..$..$...$.$.$..$...$.$.$..................................O...O.O...OO.OOO.OOOOOOOOOOOOOOO.OO.OOOOO.OO.OO.OOOOOOOOOOOO OOOO OO ",
"$..$..$.$.........$.$.$.............................O....O...O....O.O.O.O.OOOOOO.OOOOOOOOOOOOOOOOOOOOOOOOOOOOOOOOOOOO OOOO OOOOO",
"..$..$....$......................................O...O.O.OOOO.OOOOOOOOOOOOOOO.OOOOOOOOOOOOOOOOOO.OOOOOOOOOOOOOOOOOOOOOO OOOO O O",
"$..$..$.$..............................O...........O.....O.O.O.OOOO.OO.OO.O.OOOOOOOOOOOOOOOOOOO.OOO.O.O.OOOOOOOOOOO O OO O OOO O",
".............$...................O.O.O...O.O.O.O.O..O.O..O.OOOOO.OOOOOOOOOOOOOOOOOOO OO OOOOOOOOOOOOOOOOOOOOOOOOO OOO O O O O O ",
"............................O.O.O.......O.........O.O.O.O.OO.O.OOO.OO.O.OOOOOOOOOO OOOOOOOOOOOOOOOOOOOOOOOOO OO OOO O  O   O OOO",
"........................O.O......OO.OOO.O.OOO.OO.O.O.O.O.O.OOOOO.OOOOOOOOOOOOOOOOOOOO OO OOOOOOOOOOO OO OOOOOO O   O O      O O ",
"......$...........O.O.O....O.O.O..O.O..O.O.O.OO.OOO.O.O.OOOOO.OOOOOOOOOOOOOOOOOOOOO OOOOOO O OO OO OOOOOOOO O O O            O  ",
"..............O.O......O.O......OO.O.OO.OOOOOO.OO.OO.OOO.OO.OOOOOOOOOOOOOOOOOOOOOOOOO OOOOOO O O O O  O  O O O            O O   ",
"..................O.OO.O.O.O.OOO..O.OO.OO.OO.OOOOO.OOO.OOOOOOOOOOOOOOOOOOO OO OO O OOOOO OO O O O O OO OO OO                    ",
".........O.O.O.O.OOO.OO.OOOOOO.OOOOOO.OOOOOOOOO.OOOOOOOO.OOOOOOOOOOOOOOOOOO OO OO O O O O O O O OO OO O           O             ",
".......O..O.O.O.O.O.O.O.O.OO.OOOOOO.OOOO.O.OO.OOOOOOO.OOOOOOOOOOOOOOOOOOOO O O O O OO O OO O  O   OO  O O           O O O       ",
"....O...O.O.O.O.OO.OO.OO.OOOOO.O.OOOO.OOOOOOOOOOOOOOOOOOOOOOOOOOOOOOOOOOO OO OO OOO O OO  O O   O                 O             ",
"O.O...OO.O.O.O.O.OOOOOOOOO.O.OOOO.O.OOO.OOOOOOOOOOOOOOOOOOOOOOOOOOO OOO OO O O OO    O   O   O    O O        +                  ",
"....O.O.O.OOO.OO.OOOOOOOOOOOOOOOOOOOOOOOOOOOOOOOOOOOOOOOOOOOOOOO O O O O OO OO O O O O O O O   O         + +  + +               ",
".OOOO.OOOOO.OOOOOOOOOOOOOOOOOOOOOOOOOOOOOOOOOOOOOOOOOOOOOO  O  O OO OO OO  O   O  O O O O O               +  +                  ",
"O.O.OOO.OOOOO.OO.OOOOOOOOOOOOOOOOOOOOOOOOOOOOOOOOOOOOOOOO OO OO O OO O O O  O O O  O   O    O            +  +  +          + + + ",
".O.OOOOO.OO.OOOOOOOOOOOOOOOOOOOOOOOOOOOOOOOOOOOOOOOOOOO OOO OO OO O O O O O O  O     O       O             +  +                 ",
"OOOO.O.OO.OOO.OOOOOOOOOOOOOOOOOOOOOOOOOOOO O O O O  O OO  O O    O  O O                                   +  +  +       + ++ +++",
"OOOOOOOOOOO.OOOOOOOOOOOOOOOOO OOO OOOOOOOOOOOOOOO OOO O O O O O O         O  O  O                          +  +  + + + +  + ++ +",
"OOOOOOOOOOOOOOOOOOOOOOOOOO OOOO OO O OO O OOOOOOO    O O O O      O   O O                 + + +       + + +  +  +   +   ++ + + +",
"OOOOOOO OOOOOOOOOOOOOOOOO O O OO OOOO O OO O  O   O O O  O     O    O                          + + + +    + + + + ++ +++  ++ + +",
" O   O O O   O  OO  O O OO O O O O O O   OO OO O O         O O                           + + +  +   +  + + + + + + + + ++ + + + ",
"O O O O O  O   O  OO O O          O O  O             O  O                              +   +  +  + + + + + ++ ++ ++ + +  +++++++",
"             O  O O O O O  O  O  O   O   O O    O                                 + +    ++ ++ ++ + + + + + + + + + + ++++ + + +",
" O O O O         O   O  O         O O         O          O                            +  + + + + ++ ++ +++ + + + ++++++ ++++++++",
"                   O          O                              +             +  + + ++ + + + + + + + + + + +++++++++ +++++++++++++",
"         + +                   O                           +   +  +     + +  +  + + + + + ++ + + + + + + +++++++++++++++++++++++",
"  +  +      +                                            +       +  + +  + ++ ++ + + + + + + ++ ++++++++++++++++++++++++++++++++",
"   +   + + +     + + + +                                 + + ++ + ++++ ++ + + + + + +++ +++++++++ ++ ++ ++++++++++++++++++++++++",
" +  + +  +  + +          +        + + +          + + + +  + + + +     + + + + + + ++ + + + + + +++++++++++++++++++++++++++++++++",
"+  +    + + +  + + + + + + ++++ +      + +         +  +  + + + + +++++ + ++++++++++ +++++++++++++++++++++++++++++++++++++X+X+X+X",
" ++ +++ ++ ++   + + + + ++++ + ++ +++ + +  +  + ++ + + ++ + + + + +  ++ ++ + ++ +++++ + ++ ++ + ++++++++++++++++++X++X++++X+X++X",
" ++++ +++++ ++++ +++++++++++++++++  + + +         + ++ + + + + + + + + + ++++ +++++++++++++++++++++++++X+++X++++X++++++++X+X++X+",
"+  + + + ++++ + +++++++++++++++ + + + + + ++++ ++ + + + ++++++++++++++++++ ++++ + +++++++++++++++X+X+X+++X+++X+++XXXXXXXXXXXXXXX",
" ++ + +++++ +++++++++++++++++ +++ + + + + +   +  + + + + + + + + +++++++++++++++++++++++++++++X++++++++++++++++++X+X++X++XX+XXXX",
"+ + +++ +++++++++++++++++++++++ ++ ++ + + + ++ ++++++ ++++++++++++++++++++++++++++++++++++X+X+++X+X+X+XX+X+XX+X+X+X+XX+XX+XXX+XX",
"+++++++++++++++++++++++++++++ +++ + + ++ +++ ++ + + +++ +++++++++++++++++++++++++++++++++++++++++X+X+X+X+X+X+X+X+XXX+XX+XXXXXXXX",
"++ ++++++X+X+X+X+X++X++++++++++++++++++++++++++++++++++++++++++++++++++++++++++++++++++++X+X+XX+X+X+X+X+XXXXXXXXXXXXXXXXXXXXXXXX",
"+++++++X++X+X+X+X++X++X+X+++++++++++++++++++++++++++++++++X+XX+XX+X+X+X+X+X+X+X+X+X+X+X+X+X+X+X+X+X+XX+X+X+X+X+X+XXXXXXXXXXXXXXX",
"++++X+X++X+X+X+X+X++X+X++X+X+++++X+X+X+XX++X+X+X+++++++++XX+X+X+X+X+X++X+X+X+X+X+X+X+X+X+X+X+X+X+XXXXXXXXXXXXXXXXXXXXXXXXX#X#X#X",
"+X++X+++X+X+X++X++X++X++X+X+X+X+X+X+XX+X+X++X+++X+X+X+X+X+X+XX+XX+X++X+X++X++X++X++X++X++X+XX+X+XX+XX+X+XXXXXXXXXXXXXXXX#XXXXXXX",
"+XXX+XXX+XXXXXXXXXXXXXXXXX+XXX+XXXXXXXXXX+XX+XX+X++X+X+XXXXXX+X+X+X+X+X+XXXXXXXXXXXXXXXXXXX+XXXXXXXXXXXXXXXXXXXXX#X#X#X#X#X##X#X",
"++X+X+X+XXX+XX+XXX+XXX+XXXXX+XXXX+XX+XX+XX+X+X+X+X+X+XX+XX+XXXXXX+X+XX+X+X+XX+X+X+X+X+X+X+XXX+X+XXXXXXXXXXXXXXXXX#X#X#X#XX#XXX#X",
"XXXXXXXXXXXXXXXXXXXX+XXX+XXXXXXXXXXXXXXXX+X+X+X+XXXXXXXXXXXX+XX+X+X+X+X+XXXX+XXXXXXXXXXXXXXXXXXXXX#X#X#X#X#X#X#XXX#X#X#X#X#X#X#X",
"XXXXXXXXXXXXXXXXXXXXXXXXXXXXXXXXXXXX+XX+XXXXXXXX+XXX+XXXXXXXXXXXXXXXXXXXXXXXXXXXXXXXXXXXXXXXXXXXXX#XX#X#XXXXXXX#X###X##X##X#####",
"XXXXXXXXXXXX#XXXXXXXXXXXXXXXXXXX+XXXXXXXXXXXXXXXXXXX#XXXXXXXX+XX+XXXXXXXXXXXXXXXXXXXXXXXXXXXXX#XX#X#XX#X#X##X#X#X#X##X##X##X#X#X",
"XXXXXXXXXX#XXXX#XXXXXXXXXXX+XX+XXXXXXXXXXXXXXXXXX##XXXXXXXXXXXXXXXXXXXXXXXXXXXXXXXXXXXXXX#X#X#X#X#X####X###X###X###X#####X######",
"XXXXXXXXXXXXXXXXXXXXXXXXXXXXXXXXXXXXXXXXXXXXXXXXXXXX#XXXXXXXXXXXXXXXXXXXXXX#X#XX#X###X##X####X######X####X#######X###X#X###X#X##",
"XXXXXXXXXXXXXXXXX#XXX#XXXXX#XXXXXXXXXXXXXXXXXXXXXX#XXXXXXXXXXXX+XXXXXXXXX#XXXX#XX#XXX#X#X#X#X##X#X####X#######X####X##########X#",
"XXXXXXXXXXXXXXXXXXXXXXXXXXXXXXXXXXXXXXXXXXX#XX#X#X#X#X#X#XXXXXXXXXX#XXX#X#####X##X###X#X###X##X###X#X##X#XXXX#X#XX#X#XXXX#X#X###",
"XXXXXXXXXXXXXXXXXXX#XXXXXXXXXXXXXXXXXXXXXXXX#XXXX#X#X#X#XXXXXXXXX#XXX#XXXX#X#X##X###X####X##X##X#X####X###X##X#X#X#X#X##X#####X#",
"XX#X#X#X#XXXXXXXXXXXX#X#XXXXXXXXXXXXXXXXX#XXXX#XXX#XX#XX#X#X#X#XXXX#XXX#X##X##X##X#X##X#X##X##X###X#X##X#X##X####X#X#X#X########",
"XXXXXXXXXXXXXXXXX#X#XXXXXXXXXXXXXXXX#XX#X#X##X#X##X##X###XXXXXX#X#X#X#X#X#X##X##X###X#X##X######X####X##########################",
"XXXXXXXXXXXXXXXXXXXXX#X#X#XX#XX#X#XXXX#XXX#XX#X#X###X##X#XX#XXXXX#X#X#X#X###X##X##################X####X########################",
"XXXXX#XXX#X#X#X#X#X##X#X#X##X##X#########X#X#X#X#X#X##X###X#X###X#X#X#X#X#X##X##X#############################################@#",
"XXXXXXXXXXXXXXXXX#X#X#X#X##X##X##X###X###X#X#X#X##X##X##XX#X#XX#X#X#X#X#X##X##X###################################@##@##@#@@#@#@",
"XXXXXXXXXX#XX#X#XX#X#XX#X##########X###X##X#X#X#XX##X##X##X#X#X#X#X#X#X#X#X##X##X###X#####################@##@##@#####@##@##@#@#",
"XXXXXXX#X#X##X#X#################X##X#X##X##X##X###X##X##X##X##X###################################@###@#@#@#@#@#@@#@##@###@#@#@",
"XXXXXXXXX###X######################X###X##X##X###X#########X##X##############################@###@###@####@##@#@##@#@#@#@##@##@#",
"XXXX#XX#X#X###X#X################X##X#X##X##X##X###########################################@###@####@#@#@#@#@#@#@##@#@#@#@#@#@#@",
"XX#XX#X#X##########################X####X####X############################################@#@#@#@##@###@#@#@#@##@#@#@#@#@#@#@@@@",
"#X#X#X#X###########################################################@##@###@######@#@#@#@#@#@#@#@####@#@#@#@@#@@@#@@#@@#@@@@@@@@@",
"X############################################################@###@######@####@#@##@#@#@#@#@##@##@#@##@#@#@#@@#@#@@#@@#@@#@#@@@@@",
"##X#################################X#######@###@#@@#@@#@@#@#@#@###@#@####@######@##@##@#@#@#@#@#@#@@#@#@@@#@@@@#@@#@@#@@@@@@@@@",
"#########################################@#@##@@#@##@##@#@#@#@#@#@#####@###@##@##@@@#@@@@#@@#@@#@@@#@@@@@@#@@#@#@@#@@#@@#@@@@@o@",
"#X##X####XXX#X#X##########################@@#@##@#####@###@#@#@#@##@#@##@###@#@#@###@####@@#@@#@@@@@@@@@@@@@@@@@@@@@@@@@@o@@@o@@",
"#######X#########################@##@#@#@@#@@@@@@###@####@#@##@##@@#@#@#@##@#@#@#@@@@#@@@@#@@#@@#@@@@@@@@@@@@@@@@@@@@@@@@@@o@o@o",
"##########X##################@#@#@@@@@@@@@@@#@#@##@######@##@#@#@##@#@#@#@##@#@#@#@#@@#@#@@@@@@@@@@@@@@@@o@o@o@o@@@o@oo@o@o@@o@@",
"#####################@#@@#@#@@@#@@@@@@@@@@#@@@#@@#@#@#@@#@#@#@#@#@@@@#@@@@#@@@#@@@@@#@@@@@@@@@@@@@@@@@@@@@o@o@o@oo@o@o@oooooo@oo",
"#################@#@#@@#@@@@#@@@@@@@@@@@@@@@#@@#@@#@@@#@@#@@#@@#@@#@#@@#@#@@#@@@@@@@@@@@@@@@@@@@@o@o@o@o@@@@@@@@@o@oo@oo@oooooo@",
"##################@@@#@@@@#@@@@@@@#@@#@@#@@@@@@@@#@@#@@#@@#@@#@@#@@@@@@@@@@@@@@@@@@@@@@@@@@@o@@o@@@@@@@@@o@oo@oo@ooooooooooooooo",
"##########@#@@@@@@@#@@@@@@@@@@@@@@@@@@@#@@@@@@@@@@@@@@#@@#@@#@@#@@@@@@@@@@@@@@@@@@o@@o@@o@o@@o@@o@o@oo@o@oo@oo@oooo@oooooooooooo",
"##@##@###@@@@@@@@@@@@@@@@#@@@@@@@@@@@@@@@@@@@@@@@@#@#@@@@@@#@@#@@@@@@@@@@@@@@@@@@o@o@o@o@o@o@o@o@o@oo@o@ooooooooo@ooo@oooooooooo",
"@@#@@#@@@@@@@#@#@##@#@@#@@@@@@@@@#@#@@@@@@@@@@@@@@@@@@@@@@@@@@@@@@@@@@@@@@@@@@o@@o@@o@o@@o@o@@o@oooo@oooo@o@o@o@ooooooo@oooooooo",
"#@@@#@@@#@@#@@#@#@#@#@#@@@@@@@@@@@@@@@@@@o@@o@@@@@@@@@@@@@@@@@@@@@@@@@@@@@@@o@@@@@o@o@@o@o@@o@o@@o@oooooooo@oo@oo@oo@ooooooooooo",
"@#@#@@#@@#@@#@#@##@#@@@#@@@@@@@@@@@@@@@@@@@@@@o@@@@@@@@@@@o@o@o@o@o@o@o@o@o@@@o@o@o@@o@o@@o@o@@o@ooooo@oo@oo@oo@oooooooooooooooo",
"@@@@@#@@#@@#@@#@@#@@#@#@@@@@@@@@@@@@@@@@@o@oo@o@o@@@@@@@@o@o@o@o@@o@@o@@o@@o@o@@o@@o@o@o@o@o@ooo@oo@oooooooooooooooo@oo@oooooooo",
"@#@#@@#@@#@@#@@@@@@@@@@@@@@@@@@@@@@@@o@o@o@@@o@o@o@oo@o@o@@o@@o@oo@oo@oo@oo@oo@o@o@o@o@@ooo@o@o@oooooooooooooooooooooooooooooooo",
"@@@@#@@#@@#@@@@@@@#@#@@@@@@@@@@@@o@@o@o@@o@o@o@@o@o@@o@o@oo@oo@o@oooooooooooooooo@ooo@oo@o@ooooo@ooooooooooooooooooooooooooooooo",
"@#@#@@#@@#@#@#@@@@@@@@@@@@o@o@o@@@o@o@@oo@o@o@o@@o@oo@o@oooooooooo@oo@oo@oo@oooooo@o@oo@oo@o@o@ooooooooooooooooooooooooooooooooo",
"@@#@@#@@#@#@#@@#@#@@@@@@@@@@@@@@@ooo@oooo@@o@@@o@ooooooooooooooooooooooooooooooooo@oo@oo@oooooo@oooooooooooooooooooooooooooooooo",
"@@@@@@@@@@@@@@@@@@@@@@@@@o@o@o@o@o@oo@o@ooo@ooo@oo@o@o@o@oooooooooooooooooooooooooooooooooo@oooooooooooooooooooooooooooooooooooo",
"@@@@@@@@@#@@@@@@@@@o@@o@o@o@o@o@o@oo@ooo@o@ooo@oo@oo@oo@oooooooooooooooooooooooooooooooooooooooooooooooooooooooooooooooooooooooo",
"@@@@@@@@@@@@@@@@@@@@@o@o@@o@@o@@oo@oo@o@oo@o@oo@oo@oo@oo@ooooooooooooooooooooooooooooooooooooooooooooooooooooooooooooooooooooooo",
"@@@@@@@@@@@@@@@@@@o@o@@o@o@oo@oo@oo@oooooooooooooooooooooooooooooooooooooooooooooooooooooooooooooooooooooooooooooooooooooooooooo",
"@@@@@@@@@@@@@o@oo@o@ooo@ooo@oo@ooooooooooooooooooooooooooooooooooooooooooooooooooooooooooooooooooooooooooooooooooooooooooooooooo",
"@@@@@@@@@@o@o@o@@ooo@o@ooooooooooooooooooooooooooooooooooooooooooooooooooooooooooooooooooooooooooooooooooooooooooooooooooooooooo",
"@o@@o@o@@o@o@o@oo@o@oooo@ooooooooooooooooooooooooooooooooooooooooooooooooooooooooooooooooooooooooooooooooooooooooooooooooooooooo",
"@@@@@@@@@oo@o@oooo@oo@oooooooooooooooooooooooooooooooooooooooooooooooooooooooooooooooooooooooooooooooooooooooooooooooooooooooooo"
};
