/* XPM */
static char *result[] = {
/* columns rows colors chars-per-pixel */
"128 128 9 1 ",
"  c #030203",
". c #0D0B0D",
"X c #232523",
"o c #191B19",
"O c #191519",
"+ c #2D302D",
"@ c #363436",
"# c gray26",
"$ c #5F5F5F",
/* pixels */
"                                                                              .  ..Oo..O..O.... .           ..     ...        .o",
"        ..  .   ....        .                                                 . ..oooX.X.oo.o.       .  ...         .        .++",
"     . o.oXoo. .o.o.oo........  .oo.....    ....o ..o  .....  .     . ooXo      ..   .              ooooooXXoo..o.oXX..  .o..ooo",
"  .oo  oOX+@ooo.o.ooOoo..o....o..oo..o. ... .o... .XX. ....        .oo@Oo. ...   .. .      .      ++..oOXo+oXoX++oX@@ooX..oo.@+@",
"  .. .o.XX+X.Xo.o.Xo.oo o.. o....o......  o...    .o. . ...         o.+...XX..    . .o.o..o...   .+O.XXXo.o.Oo.o@+#+oXXXoooOO+@X",
"    o...XoXX.oOXo..oOOX oo..oX... oo.. .  ...o.    ..    .    .     . oo.XXo.O   .o.o.ooo.o.o.   .+XXoXOoXooOOX+X@XooXOo.Xoo++@o",
" .  ...ooo@@O.oOXo.oO.oooO.+XXoo..o....o..o.   ..           ..o       oo.oO.X.  ...oXo+XXoo...   XoXoooXoXXoooXXX+X@ooOoo..o@+#o",
"  ..o.XXX+@Xo...o.oOOo..O...Xo.o.o.... XX...ooXXX.oX.      .o .   . ...oOO.....  .XXOoooooooo   .ooX@X@XoOOo@XXXXX@+@@oo+ooX..+X",
"  ..  oo++o+Xo  ...oOoO..  Xo.Oo ...ooo  ...oo.....Xo.     o...   .o.. ..o. .o    ..oXoX.Oo o   X.X++XXXXXOX#oXX+X@++@oXXoXOOo..",
" .. . ...o@XOXooo.o.  ..... ..o.o  .o.o..oXoo.. .  . .       ..   o   .o...   . .   oXXo.....  o+ o+XXXX++X@@OoXX+XXX@ooXoo... O",
" ..X..o.oo@OooO+XoOo..ooXoooo ..oO  o. o+o..Xo..  o .. .. o.  .       .....o.o..    ..o.....   XXoXo+X@@OX+XXX  O+XXXXo+OOXX+..o",
"  .ooo.o.o.o@Oooo. OoXoXXoo+X. . .. ... oo.oo...  .   oo..oXo .      .. ..Xooo                .oooo@+##XOOOoXO..oOXO+OoX+XXOO .O",
"  ..   ..Xo+X..o.o..Ooo ...oo.... ... .  ooo.... ...X.. .  o..Xo       .. oo .              .oo+o.+@+@+X@@XXX..O.OoOO+OO..OOO.oO",
"  .o.oXoooXXO.  oO  oo.....o.Xo.. .....o...Xo. ........oo.. .X+o.. .    .  o. .o...       ..oXo.o.oX@@@@@#@OO.oOO.O.oXOX  . ..X+",
" o oo++XX.XXo...X.  Xooo..o..o....o  o..o.oOoo  .....    ..  .oX    ..o..  oo.Xo o. .o. .o.ooo.o..oXOXoOX@XO.OO.o.Oo.o+.    oX+X",
" ..oXoOo.o+XXooXO.Xoo.Oo...oXo.o....oo  o..o o....o. .   ..o  o.    .oo+o.  .oo  ooo  o.o.X+Xo.o....X+oOXo O..oO .+oX+OOooXOO oX",
"  . .  ..ooXXX@@X.XXoooX.XooXo.. ...oXo ...o. . .. ..o..   .  oo.  .o.oX.o. oo   ..   o.  oo.o.  . .o@@X XooXXooXooX+XO+Xo+X..Xo",
" X ... ..oXoXo@+@o +XX  .o.ooo....oooXoo...oooo.oo .. oo....o .+.   oo.oo....oo ...o .. . .  .o....@o@XOoXXoo@oXXOXXXO+X+OoXX..X",
" ooOXXooo...oOXXXoOOXXo. O.oX.... oo.Xo ..o  oo.o.oX.oo . . ..+o   . . o.  oXXX.  o...oo..o.ooo ..ooo@X@XoX+oXoOOOXO@oXXOXXo..X@",
"  ooXXOXXoOoo....o..XXoX  oXooo. ....oo.. ....X.oo ..oo.o.oo..o.   . ...  .o+Xo. .o.o...oo.o.oOo+o. .X+@oooo.+OO+.ooX.OOOO+Oo.oo",
" .oXXXooOOoXXO..oOO .ooo..oXo.oX .X. ..oo......o...ooo.oo.   .Xo    ... oXoo.ooooo. ...    ..oo+XoXoo++XXoXOXOo.O.@XO.+XXO..@O O",
" ..oooXo.ooXOOoXOOXoX.OOoooooOoooo.... ....... . o...o.  .  .oo..    ...ooo.oX+o.XXo .....ooooXoo@+X+X@OXXOXXXX.@oXoXO. OoO.Oo .",
" ..o..Xo..ooOO+XX.oooOO.Ooo+oooXo...o.  . .....  .oo ...o o.  +.    . ..oo.  oo..o  .o..o.ooo.+o+@+++@#ooX. XOOooXX+.. O....oXX@",
" o. oooO....ooXoOo..@oo.o+ooXXXooo.....o...   . . ...o.oo  o. +.      .  ..o.  o.   .o...  o.ooo+X+X++X+OoXOX.Oo+oO.  o@O.OXOXXX",
" ..oo+oXXoo..OXooO..Oo.o.ooOOoOo.o.o...+.... ..oo ..  o..o.o.oX+   .      o....o.o.. ...  .. oo+oXX+@Xo@OOXXOO.OoX..OO.XooOXooXX",
"  .oXXOoXoXOoo. XOoO..  oo.oO ...o....o.. ..oooo.. o....o.o...XX   .oo.     .o .XXXXX+ ooo .oX+oo+@XXX@XX@o..OoO....OO.+o.o..O X",
"   oX+ooXOOOooo......... ...o.. .ooo....o...oo    . ... oXo...Xo.  .Xo...   oo oo.ooXXo.o+oooo.oo+Xo..OO@X...oOoO.Xo..O ...  . @",
"  .oOO..X.oOo. .X..ooXooo. . .oo  . o. ... .o...o.. .. ...oo.o+X  ...o....  .....ooo. oooXXoX+XXXXooO.O.o....o.OOo@Xo.  .o ..Oo+",
"  oXoXoXXX@oX+X..oXoXXoo+X. ..o...o....o.  .o..... ..o...  ...@o   o.o.       ..o..o.ooXXXo+o+XXoOO.Xo.. ......oOO@...oX.O..O.oo",
"  o++o@@XoXXoX@XOX@o.oo.XX.oo .+X#oXX. ..oo...oo..  ..o.  .  .oo   . . .      oooo.+oo.oo+ooo@#X@ OX@..o@o.oXOoo. .ooo@+X+. o.XO",
" o@#@X##@XX@oXXoX@@X+XXXXX@o.ooo@@+o++X#oX+X+X++X#+oXX+o.o    .    o...       X++X.oo.oXooo+++XXoX+XXo##@@oo@@@@O.X@O@#@#+o..o.o",
" .oo. oO.O. OO . oo... ..... ....    .ooo..Xoo.   .. .oo.o         o.         o#@X..ooX.X.oXoXXo.o+OX@XX++X@@+##++ooX@X@#oo.oO.O",
" .     .                               o.o...         ..X...o  ..         .   .o.             ...     .O. ....  . ..      ... ..",
"                       .         ..      .....          . ...o..o..                  .....   .Xo.o. o..o   .   ...         .    ",
"...o.. ..o.o.    .. ..oooo .  .  .  oo...o...o.        .ooooo oo. ....... .....ooo..ooooX+...X@o..oo+X.oO..ooo.oo.oooXooo.oo... ",
"o.o+oXoooX  o.o . o.  oo.o...    ..oo...o. .o...  o.  XoXooX++.ooXo.oXX+..ooooooooXXXoX+@X.ooXXo.ooXo+OO+oo+@Xo++oooXXXoo...X@o ",
".oX.XXX@ooo ..oo. ..Xo...oo      .oo.... ....oo..o....+oooo+XX..oXoooo.oo..ooooooooX+X++@X..o+X+.  oooXX+o+o@#@+X.XO.o.oXXX.OXo ",
"O.oX.oX++o .....  ..oooo....     ...oo. ...ooo.ooo..Xoo.oXo+oXoooXXXoo..o.oXoo.ooooo@+X+ooo.oXXo   .o X@XOXoXX@X@oO.oo+o.XoXXXXX",
"Xo.X..ooo+  ..o. .oo.oooooO   o    ..o.oooooooooooXooXoooXXXoXoo.o+Xo.ooooooo..ooXooo+o.oo.ooXXo...oO OooOoX@X+XXXXooXoXXXoooXoX",
"Ooooo..o.O .o. . o..  ..+o    ..  .o.ooooo...o.ooooooo.oooooooo..oo.o.oo..o..oooooooooo.oo.oX+@O..ooo oXoX@+@++XX+X@oOOXX@X@XoOX",
"X+OO+.o  . .ooo.....  . o    ..  ......o....oooo.oooX..oo..oooo.o....o.oX..o.oOooooo.X..ooXoooX. .ooo.o@XX@+@@XXXoo#@OoXXXX@@o.X",
"o.+oX..o..  oOoo  . ..       ..    .  .o..oooooo .oooo.ooooooooo.  . ....ooo.ooooo.XoXX++X+XooX. .oo+o+@+o@XXX@@ooO@@X@X@oXX@o +",
"O...o o..o . .o.o  o+  .o.     . . o.. .oo....... o.o..ooOXX+o..   . ....ooo..ooOoo+oXoX++@o.Oo. .XX+XX#XoXXXXXX  XXXXXo@@XXoXOX",
"o...... .+ ....  .  . ooo. .ooo.  ..ooooo ......o.ooooo .oooo... ..  .......o..oooOOOooX###+.ooo..oXXoX@@XOXOoXo.OOoooOOX##@@oXo",
"+.oo... ..      . . .o.... ..o+X  ..o......o..oooooo .. o.. .. .o. .. ...o..o....oOXoX@@##$#XX$X o..oX@@+XXoooOOO .XXX@@X@@@@@.O",
"O.ooo..o.     ...  o.. ..  .o.X... o..ooooo...oo....   ... o. ooXo.o  o   ..oo..o.oo.o@@@##$@@$X   oX@#@@oXXOO..Oo.OO@#@@@@+XX.O",
".oooO.o. .o. .o o  o .. . . ooo+oo.o.oo.ooooooo..o ......o.......o       o......ooo.oX##++@#+X#X   oX+  oo..oO.oOOO.oX@XooXOXX..",
"..OoXX.o.o  ooo. ... .. . .. o.....oo....ooooo.o.o..... .oo. ..o..   . ..o..o..o..ooo@#X+X@+X@@o   o.  ..    .O OO..O oXoXXXOO.O",
" ...oo  .o. .o.  .o.  .   ...o .  ..o.o.oo...o..ooo..  ...   ... .  ..... .oooooooXoX@+@+oo#X+@. .    ooo     .ooo+ooXo X@@o. ..",
".o.  .   .. .o.. ... ... . ..... ...oo.o.oo..oo.o..oo ....ooXo.... .. . ....oooXoXo oooXoXX@@#Xo  .   ..  .. ..X+o@ooXXoOX@o@oo.",
" .oo....oo...oo ..XX. oo . .  .    o.o..oo oo .Xo ooo.+.o. o.     ..    . ..o oX.XoOoOOoo+XXX#@.  oo. oo  .  . ooOXoX+o+@X@oOOO.",
".oO.o.oo...o.o. .oX+o . . . . o.   .o.......o..oo +Xoo .@o   .    o  .  .ooo.o.o.ooo+XoXXXoXO@#   .oo.oXO  . .  .o+OooOO@+X. .o+",
"+oo..    .....oXo.oo..oo   .  oo  ... .... .o.....+Xoo..o++.  .  .  . .oo..o.o.. oooXOXXX@O+Xo#.   .o.ooo. ..    .oooXOX@+XoXXO+",
"XXXooo..... oXXooXXoooo   .o  .o..... ooo.       .oX+ooo.X+  ..  . XX.....ooo.. o.X+XX##@Oo@O@@.....  .X+ ..      ....X+O@X+X@@o",
"OX.O.oo...o. .oo.oo  .. ...oo.   . .ooooo.  . ....oXooooX++XooX..oo.Xo..o..o. ..ooo+@#$$$@#X@#@. .oo ..oo.+   . .    .ooo#@+X@@+",
"ooo.o  .o.o.  .oo   o.. .. o      ...oo...  . ....ooXo.oX.ooooo  o..oo.o......o..X#@+@$##@#@@@X. oX. ..XXoo.. .      +oo+X@+XXX@",
"@o. ..  .o. ....o.....   ..  .oX..  .o.......  .....XooXo oo..   . ..o...oooooo.o+#@+@####@@@oX o.o. .oooo.oo.      .XoO+OX@+XXo",
".@XX..oXo +XoooX. o.      . .o. o.  oX.oo. ...o...+.oXo. o@o..   ..o.o...o.oX..o+##@#+##@+@X.X#O...oo.o.oo..o..      .+@@@XXX@@X",
"O.oXooXo.ooXoo.oo oo  ..   .. ..oX..o.oooo..o...o.ooo oXoX+.... Xo.oo..........o+@####X++@XOX+#. . .... .oo.o.... ..     O.OXX+o",
"Xo+XX+Xooo .Xooo.. .    .o.. .. .oooooooooo....o.o.oooXo+++o ooX+.. .oXo....ooooXoX#X@#@+ooo##+   . . .o..oo....            ..o+",
".@+oXo+oXoooo..X...     ..  . . ..oXXoo .oo ... .o..oXoX@#+#oooooXo. ooo..oXoo..oooX++@+oOXXX@X.  ... .   .                     ",
"  XX.oXOo.oXoooXo. ..     .  o.. ..+@ooo++#o oo.oooX+@@#$$+#$##X...oo..ooo++XXooooooXX@@Xoo+@Xo     . .                         ",
"   o@oOOXX..oOoX+X..oX.oo.   .   o+o@##@@#$$#oX+##+#$$#$$$$X$##$@XoXXX+XX#+X##X@+XXXXX@XXooo@#+    .o.           .     .        ",
"    o+OX.Xo.  .o#.oo.o...o. ...  ..oXXX$##X+#@XX#$$$$$##+XX#@o#+@o  .+o ...  oooo o oo .O   ooO    ...    ...  ...    .         ",
".    ..O ..    ..oXo..             .oo.oX...ooo ..oo. ..     ..      .        ..  .  ...o..O .             ..                   ",
"  . ..o..                               ....    ..            +  o.oo .            .  .....              .                   .X ",
"    .o.X+X...o.    ..oo.  ... .  .o.oo.oooXoooo..oo.          .  ooo+oo.. .o... ..ooooooo.oo.o.  . .....oooo.  .  ....oo  .  .. ",
"    ..o+@XXo.oo... .oXXoXX . ..o.oXooXXXXX+ooo.ooooooX. .     . .o.oo...oooXoooooooooooXXX+ooX..o.. . XXoXXoo.oo....oo++X.oo o  ",
"  ...oooo+oOo..... ...oo..  ....o..   .+XX.oo.oo+oo.o+oooo   .@.....o.o..oXo.oX+oX.oooX+o.   ..o..... ..oo... ... oXooXooo.o .. ",
" . XXoooO..oo..oooooooo.  .oo.......oooXoXooXX+.oO.ooooooX.o.o@+ .. oo. .oo.ooXo.XXXooXooOoo.......ooo  .ooooo.oXoXoo..ooXXo oo ",
"o  ooXXXX... o..Xooo.XXooXXo ...ooXXooXooXXoXoooo.ooOoo ..oooo#+ ...... oXoooooXooXXXooooooo+ooo....ooXooXX.oooXooo.o.oXo o.oX+X",
".   ..o.O.oooooooX.oooooooo.. . oo..XoXoX+oXXX.oOooXoOooXXXX.O#X.oooo.ooo.ooX.XoOooXoX+XXXoo.OooO....oooooooo.XooooXo. oo  .oX+o",
" ....oXX.ooo+oo.ooooooooo..... . .o..oX+oX+XooOXOoooo..oo..O.ooX.oo+X.ooooooooXoXoXXXXoO+XO..X. .......oXoX ooooooooooo..oooXXo ",
"  .+ooXooO.ooOX.OoXXXXXo.. .  .   .XoXoXXOoXXo@OoO..o..oO. ...Xo ooXXX .XXo. ...o+oXXoOXXXXOo..  X. o...ooXXXXXoo+Xo.oooooo+o.o ",
"   .ooooOo.+.OX..oX+@o.o.o...     .   Xoooooo.o.O.... .ooo...o.o .oXXoo.ooo. ..o.X..XOoX.O ... . . ...o.o.o@X+X.oXo...ooooo+ooo.",
"   .+oooXOoooo+O...oooOO..o.ooo...   .oOOOo. .O....o. oo...o.oo......o..oo...... oo. oO.Oo.......X+o.o..oooooo..oXo.oo..ooOXo.o ",
". oXXo.X+ooO.OXX.oo.oXoo....o.o. .o....oooXo...oo.. ....o.. o oo . .o.o...o. . ....o.XooXO .O.o..ooo.o..oooo.oooXo. .XX@X.oXXoo ",
"oooooo+XX... XoooXXooOOooo ...oo...oo ..oo.. .o.o..    ..o..oooo   ooOX..... . ..+. ooOo.. OO....oo...ooooOooXXooo. ...+X+oXXo@o",
"..oo.o@XX#o.oo.XXXoo.XooXoo.ooo... .o.o.X. .o.. . .        o.OOo  .oo...    ..  o...oo.X... ....o.oooooXooX.ooooo..o.X+oo++ooXX.",
" .oOoooX.oO+oO.oXXXXXXo+ooX o..oo.  .  .  Oo..   . ...  o  .....  .....   . . ..ooooooOoOO. ...o.....XoooXoXoXX@o .o+oo.X+++.oo ",
"    ..XoO.ooo..ooXXXoOOX@Ooo.o.. .  .   .   .    ... .. .   ..X. .oX.. ...o. .. ..oooXoO.. .o... ...oooXXooo+XXo..oXoX.o+@XXXOXo",
"    .o+XO@@@X.XOoOoX#oo.X..oXo...o         . o.   ..  .  ...o..  ...oo.... ..  . ..oX+oo  oo.. ... oo..XooX@ooo..oo@@#XooXoOX@#O",
"  ...oooo@+XXooooO..oooOo+.ooo...      .. ...oX.. . . .       X.   .....   ......o.ooO.  o...     ooo.XXooo+. .XoX.X++@oOOOo+@@.",
" ....  OXXXX+@@@...O.OoXo.o. oo .   .o  o .oo oo ..o..             ...o...... ...oo..   . .    .ooo..oooooo.....+@++X+XoXX@O..o.",
"  ..o..oX+oooX@X..OO.O....Ooo.o .  ..  o.  . ... ... .  .      .  ..o... ..  ........  . ...X..o.o..o.o.. XOooo.++oOoX@XX+X.... ",
"  ....ooOX@Xo@XOX. ... .. .oOoo.    .....  . ..ooooo          .  .. ..o..   ...o . ..o.  ..oXX..ooo.o.....ooX.O+OoXo@#+XXo@+XX@.",
"o .. .XoOoXo@#X@o.oOoo..oooO.Ooo ....o... ...o...    ..        .  .....   .  ..   .oooo..ooo.X.ooo...oXXooXXoOOX@@##X@XoOOOX+@+.",
" .  ...oooX@XXoo.o@o XX.oooo...  o+X.o. .   .o.               o.  .....   .  ..o. ..Xooo.ooO.o.oo...oX...oo.o#Xo@X@+@@Xoo.oXOXOo",
"    .o.oOo.o@XX.XoXX..o...OX...o.ooo.o..o.   .oo                  ...o.. o. ...ooo..oo.. .oOooo..o.o@..oo+oOX@XXOXX@X.o.O.+@OoX.",
"   ..ooooo..OOOO.ooXXoOo ....oo..o.  ....    .Xo  .  . .o.         ...o..o. oo..X..oo.. ..oo..o..oo.. . .ooX@Xo.o.OO .o.XoXXXoX.",
"   ooXooOoo....OOO.X@X.o. ooooo ... .. ..    oXo.Xo  ..  o   .o.    .oo.o.. o ..o.oo..o.oo.o.. ....o.. .X++@@X+ooO.OooOoOOooXXo ",
"  .ooo..o.X .oO..oO.@@ooO ++... o.  .o.      o.oooo  ... o   ..    .... oo  ....ooo..oooX.o. .oo..oo+#.oo+#@XOX@OXoo.+.XoXX+XXO ",
"  .XXooooo@X+oooo.OO.XoOXOX@         ..       .o              .X   .o..... .o.oo.o..ooooooo..oooo.oo+XoXXoo.oo@#@oX++#XX@@XXoOo.",
"  .oXXXX+@@#@XX@++XXX.X..X@            ...    ++          .. ..   ..+ooo...oXooooo...oXoooooXXo..Xoo+Xo. o.oXo#@+XoX#@X@oOoXO@X.",
" .@X@##@#####@+@@@+@XX#@X.    ..   ..      +++#+ooo.X+.o.  ..oo   oooXo+XoX#++XX+XXXoX+X@+++X+@@o++#+@X.+XX++ooXXo+###@@+#@OO#@ ",
"o++X++@#@+@+#+o+@.@@+@#XooOoXo..o..oooo.o.. X+++ooXX@@+o ..o+oo  ..  o    .oo+oooooo.o.o.o... .oo.o+oo...X.oXO X. .oOo.Oo.......",
"                             .oX                                   .                  ...                   .          . .      ",
"            .     . ..        oo                        .. . .. .  .        oo... ..    .                   . .. .    .         ",
"        .o  ....  ....o.....  X. . ...   .  .  ...   o..ooXX.XXo...o.oo.oooo.ooXoooXoX...o.  oo               .....     .       ",
"   .Xo.ooooo..Xoo..o.  o....o.o.    ... .. .     oo.o........Xo..o....o..ooo.o.o.ooo++XooX.  .X.....    . .o.oXoo....ooo..   ...",
" .oo+XXooX.ooo.OOo..... ....oo..     ..          o..oo. ......o.  .. ..o.o..oX.o.oo.++Xoo. .  . ...o. ... oXXXXXXo .....        ",
"  XOoXoo.oOXO...oOoooo.  .oo..oo  ..  o o . ..  .oooo.  ....oo ...XX...o.Xooo.ooooo.oo.oo..o.o.....o..   .oo+ooXo......o....  . ",
"   OoXXXo.oX.o..O.oooOo..oo....o    ...... ooo..  .ooo..o ......oo++X.oooo.o..oXo.. o oooooo o...o.....  ..ooooXo..oo.......    ",
" ...ooXoo..+o.ooo.o...ooooX.oo..    .o ..  oXo.o.ooo...oo ..o.o.o.o+...o..oooo.o.  oo ...X+. ooo.   ..  .....ooo..o..oo......   ",
" oooO..oo .XoOO.oooo....o.....Xo    ..     .o  .  .ooo.  ooo... oo.oo .o.oo.o..o.  o .  oXo  ..   .o..   .....oO. o..ooo..o. . X",
"O.ooooOoo XOoo..oOoooo..o.  ..oo     ..    ........ooXo .X.o.  o.o.. .....  .oooo. ..oo.ooo....X. oo...  .. o..oo . oo..oo..  ..",
"..o+XXOoo....O .......oO  ....oX.       .     . .  ooooXX .o  oo.. .oooXoo. o oXo. .ooo.ooo.  oo.... .o.     . ......ooo..  ..  ",
"...ooXXo.oOXoO.o...... ooooo...o   . .ooo..oo   .o. ..oo ..  ...o .++ooXooXoo..ooo.oooooXXo. .X.o  .XXoX.    .  ... ... ..  ....",
". .. .Oo..  Oooooo..o......o.ooo.   ... ...oX. .  . ooo  . ... .. .Xo .. ooo..ooooooooXo.o.ooXo ...oo..o.   .   .o... .... .. .o",
"oo..o ..  . .O..oO...ooooo.oo.Xo    ..   .   .  . .oo.. o..... . .X.oo....oo  oo .oo.oo.oXXo.++X ...oo..o..    ...  .. .   .o.oo",
"..  ..o.....o Xo.oooooo.o.oooooo    o. .  .. o.   oo o....o .X...o...o .oooX  .o...o+o.  X+ooo. .. oX.o.oooo     .  .. .  ...oo ",
"..  ooO. .....Xo..ooooo.o..o..oo    o..   . . ....o ...o  oooo.o...Xo...oo.ooo.oXoooXXX+o.oXo. ....o.ooooooo.     .       .. ..o",
" .    ..o  o.oo...o.O.oo.o oo.o   . .  .....o  o ...o....oXooo.. ..oooX.XoooXX.X@+XXXXXXOoXXXooo...ooooo.o.oo            o... ..",
"o..Xoo.... oo..Oooo.ooo..oo oo.    ......o ...oo.oXoo  .o+XoXX.....oo.o.  XX+ o++XoXoXooXo+oX+++...ooooooooooo.          o ... .",
"  ..o .o X oO. oX..oo.oo.oo.oo     . .  o.o.oo.o oo  o   oX.o.... oXo.. .oo+OooXXXoXoooXXO.OooXX. o...oooOXooXoo.       .. ..o. ",
"      o+  .oX@ .o..o...o.o.oo.      oo.o..o.. .o o..   ..Xo.... .oooXo .XoX+o.ooo.o+ooOoo. ..X+X.... .oo.oooOoo.o.o..oo.     .  ",
"    .X+X...oo+.....o......oXO         .oo.ooo.o ....  .o... oXo XX.oXX..ooo. ooo..ooXoOO....oX+@. .. .XooXooooo ..o....oo. . .. ",
" ..  @X.o.oXXX..      ..ooXX .        . ..o.... .. .o.. ......oooooooooooo.ooooooooOXoo.. .oOoXX....ooo.oooooX.o....o......XX o ",
" oXoX++Xooooo.  ....  .oooo  . ..   .o.o.. ..oo.... .oo ..o....XXooXooXo.ooXooOoX@OOOo..  .o....OooooXo...oX+O.o .  ..oo..oX.oo.",
" .oooo.oO.XX    .  ...o.o.. ..  .. .o  . ..    ..o.  . oooo...oXooXXooo..oo@. oooooO....   o..  ..oooXo.ooooXoo..o.  ...o..o.oo ",
"   .oO.oooX..       ....     .. .. ...  .o.. .. ...... ...o.oo..oooXoo.oo.ooo.oooo.o.oo .  ..o...oo.ooo..ooooOO...ooo....oo.. . ",
"  . o@o .o.     .            . .   . . o  ..oo ..  .........oo...o .o.. ..  X..o  oO.Xo.    o.o. oooO.o.ooooO.ooo..oo.o...o.. . ",
" ....XXXXo  .......o.. Xoooo..      .. . o. .o.....o.oo.oo.  . o.o.. .o.X....oO..oXoX. .   oXo.. oOoooooo.OoO.ooO.........  ...X",
"o....o++X.  ...ooo.ooooXoXo....      . ..o ..o   .o.  ..oo...o...........oo ..oX. oX..      .o.  .ooO.o.OoO..o.oOoXo....o... ..+",
"o  ...OX    ...... ....o.o.. ...       ...   .. o.oo .....o.X.o..   o..o.  o..o..o+O        .o  ..oooOO.o.O..o....oooX. oo.  .oX",
"XooXXo.    ..... .........o. ..        .o..  oo.  . oooo....XX.oo.XoX.ooo.oXo+.oo..o+o  ..  o+    .ooooO.o...oo..ooX+Xoo.o.oo...",
"+XXX.    . .......... .ooo ..o.       XX+X.ooooo.oXo.ooX+XoXXoooo+Xoooo.ooo+X@+XXo..ooX+@X++@.   .X+@oX+X@o.oXXoXo@@oX@o.oXoXo+X",
".o+.     o  . ..  .. #..... .o        oX+oXX#o.+X++ooX  Xoo.Xoo.oXoo.ooooooXo@.o.ooX.o##++X@o    o+X#Xo+#Xooo+o+X+XX.XXXoo+o  Xo"
};
