/* XPM */
static char *result[] = {
/* columns rows colors chars-per-pixel */
"128 128 14 1 ",
"  c #020202",
". c #0D0909",
"X c #191919",
"o c #40260D",
"O c #231400",
"+ c #36200D",
"@ c #402A19",
"# c #2D1504",
"$ c #4A300D",
"% c #533B25",
"& c #2C2104",
"* c #4A3421",
"= c #232523",
"- c #2F322C",
/* pixels */
"+X$*$@@$%% .         . .. &@o++#o+o+@$@X@$.O=%+%%%**$@*$#X+o++XO.. ..     #$++&+X.+$*@o+@#.#$+@%@@o**%#O.O+o@+o@+o@+o@@oX+o. .XX",
"$%%%%%@+&o.    ..  &. .X.  .%$Xo=*@%*+o@X++X+@$*%@=Xo+Xo&+=+Xo#O...+. .OX .@oXXo+o+*$*@oXoOX+o@@$X.X$XXO+Xo@o&+oXX.X@%o.X@*+XOX&",
"X@%$@@X.  .    ..  .   .X@+ .OX+o@$@%@*%@o+Xo*@$%@o%@o+X...+oX+OX..  .XX+#..XXO+o@o@o+o+oX#OX$Xo@++o+#....+*@&XX&+=X+o&+++*%@+oX",
"OX+@@&o+O      .    X@@++oXo. ...X*%*%%%%%%&+$+X@%%*%%@@OXO.+OXoO...=++o+X+#  ..OX@$+X@@@$#X#XoX+$@@$+o+...XoXX&X@+&#++ooX$@$X+$",
"@$@@*oX#...O  .   .&*%$o.XOO.  ..O.X$*%%%%*$.XX@@%%%@%*%+XX...X#+&#$oooX....  ....O+o+%@o@oXXX+X#o@$+=@oX....O+X#ooo.o*@$@+X@o&*",
"@o+=o++X..X   . X&o*%**%@++.....#+...@%@%%%X#o+%@@@$@+$@%X...O+=X#=@@$@$@oXOX .#+++#.+$o+o+XOo@o++o=X#@o+......XXX+++o$@%*%$++XX",
"..OXX&. .X.   .&$**@=%@*o=$++=OXOX+O..o@$*%%@=oo@@==X=oXO.X.X+$##o+X$o+@$++@+.XO=ooO.#@Xoo$+XO@@o+XXX@oX...XX&&+X#ooo%@@%*%@o+#X",
"X..+#. . .  .&&oooX@$@%*=$@o*o#..X+=O..*@@%%%@X%%%@ooX..XXO&#+&X+#Xo+%*o@@$@$#OO.OX#.+XOX@+#o#Xo+$+O#..XO##+##oo$X++o@o@$*@@-%oX",
"&X.X.... ..O+o+#XXo@*$*%%@**%%X... X&XO=$X%@@@@%%%%%@&X@@%XX$*o#.X.&X%%@o+$+++X.X.OX.X..Xoo@X##OX+#.+O+o+o.#&Xo+++o+oX#o@@oo%@@o",
"+O    ..#&.#Xo+XOX@o@@*@%@%@%*+.O+&.+#OO+X..=@@%%%%%@@o%*@o+@$+O..X&#@@%*+X#X#...X..++..+X+#o#O.O.XO O@$##+.##X#+X+X..X#$+o@+$+X",
"oO....#=+O .&+&#Oo=o@Xo+o*%@=$X+oXoX&#=.X&X=@$%=@%%oX%@@%@@oX.. XXO..O#Xo+@o.XOO...X=#.&$+XXoO. .OO..+o@o@+O.OOX&####O+X+o@@@@@o",
"+XO.O+o+. O+o+##OX.XXOXX@%%@%+Xo=#Oo..X-o==*%*%oOXoX@%+$%@X.. .X+++o#oXO&$@$+@@@&..X&+O+-+#o+..O.X.#+o++@o#XO.X+#XoX##$+o+Xo%$%+",
"&..X#+&& X+X#+oXOO..  Xo++*$*Xo+&X.#XO.%%@o=@*%%oX.o*oX=X... .+%$o+$$#o+X#=o+X=+.X..XX.X$@o+..OOO..+OXOOo#Xo+&OO+#oo#ooo@$@++*@o",
"O..+o+oX#Xooo++...&X#X.X@=$@%XO=oOOOoOXO*$*%*@%%+@%==o+X..O O+$%*@o#*oXoooXXXo+=.   ...#o+oO.OOO.Oo.Oo+#OOOOX#X.OO++XoOX@%*$o+XO",
". .+X+X.X#o@+o#O. #$@oXOX@=@%@XOX++O+@&OXX=@+=@@Xo%%@-@@Xo.#@#$+OOO#o#OX@@+&o=o.  X+#X+$+++X.XX..OO.X##O.OX##......X#o#Oo*@XX.OX",
"  OXOoO.o@oX=o#..#X+o=#X.XX.=@O..oo+$+...+@XXXXXXXX%%o=XX.**o*$X+#O&X+OX+$+XXoX  X+&XooX#XX.O#.O   #++O.OO+o..O. .O..+XX+$&#oO. ",
".+XO+@XX=$=@$X..O+=+==+$+X..XO=O .O&#X.X..%$.&.#o%@%*@-.o+%%$%@+o%+@$%+X.XXXOX. oo+X#&X..OX.....OO.O++.O#@oX.+#.. ....X.XoXoX ..",
"OXo+$+=XX@X$XO..X+X&X.X+oX.+OX&+O   .+&.  XX..=+Xo%%%o.O@@%*%*$+@%%@+oX.O   X..o*&#o=#..OX..  O.#.O.OO+$+oX..#+.O.+X.. ..X.. XXX",
"#$@+XXo#oo.+XX.X+o@=O....X+$X. .X    . OX.  OX+o+@%%*%O+%@%%*%*+OOX.X.  ..OX#o@$+..    .X. .O..... .. =*@=&#X+X#+.#+oO+O.X..O=O#",
".+XXo@o#=O.#XO.X+=o@+++XO.XX&XO..  X.....X...XX+X$%%%*#O@o@%%%%.XXXXXOXX@*+XOXXX              ...X.  +@@$@oX++.#O..X+Xo#...OXO#$",
"OXOo+XXX+#OXOX#+XOXXoX.XXX..X#+@+.  . O&oX ..&XXX@%@o+.#$+$*%%XoXOX#..X+XX..                 ..XOO...+%%@-X+o.#oX..OO&XXX...O.XX",
"&@++#XXOXO...#oO..+oX&Xo++++#XXo+XOXX   &=.  .o%@@%%%o##@#%@oO#o+XXX@@++$+oXXo.   ..   .X.    .O#&O+o.o%*@$@@ooo$+. ..OO..XO..#+",
"@o@=.#XXX....+O.O+$X&+OXo=o++X#oOX#Xo#  .X@@& +*%@%%*oo##o%%+X#$@$@$+$*$*+XXXX   ..      ...  O=+o$**o*%@%+$=@o@o+oOO.X.OO...X@@",
"@o++O.XX. ..oO..OX+X&XXXO+OXX#XO#O#+#X. .=%%o##$%oo$%o#.o#$+.+#=$@o@+$*X. ...  ..       .  .&oXo++*%@*%@$@*%+$X#X#X+.#O#o. ..X+o",
"+oXX.....O..+.##X+XOXXOX#....X#++#=+oOO..X&+@=O@%*@$%o.#-#.O#o=$*%*%@Xo.       ..        .O**.O++o+=o%*@*X#X+O..oX&OXOX@*+XO.O#+",
"+X...OXO+X..OX+o#OOXOX.XX.X....+=X&X++#&O..Xo++$%$+#@O+ooo  XX$@%%%&X.                .OX&&+&+*+Xoo@$*X&O.X. .OOX=...+*ooX+o.X.X",
".XX..X+XXO..O#=+X...XXO+.O.....XooXOo+=++o@oO+$*%*oo#Oo++..oo+o*%X..      ..        ..&*o+&+++$@o+o@@o.+XO. .o+++XXOXX+X.....X#O",
"XO=. +oXXX...&#X#OOXX..X#+O..OXoO.O#+o#oX$%%#O+$o*$oo+oO  $*+$%@..      .X         O&&+ooo*oXoXX++X$@.X++O.o@@$@o@oX&+X..X...Oo+",
"O   X .......O...XXXX.O..X...XX#..OX&++X#$@o&+###oo+#$+..O*%**oX.     .XO         &OO+o$o@*o+@$@$+@@#.#oX.#*%@X**@++o=#oXX+# .OX",
" .XO+XO...#...XO.O...O.O...X&..o#X+#=&$#o*@&*%$.o@+O.O ..#$*%$....O  XXX.        &+##$@++o++$@$**+$$+#o+oO@%+o@*$@Xo%*@$@#X+O ..",
"..XXX#O.OO&.OXOOO..O......X&+#.X++$++XXo+%%#%%*o*$+...###%$+=O....  O...   .    &o+O+o*$@$=o@*%*@oo@O.XXXX@@$@%*o=%@%$+#oooX+&.X",
".XX++OXOX++#XXXX.XO.XXO&O.X+=+X&&X=o.X+##oo$*#o*$+O##o*#o$$+XO  ...=#.     . ..&&++##+$*$++@$@*%@XXo=o&.&o%*@@+oo*%%+$+oXXXX#o+#",
".++-O.O.#++X#X.XXO.XO#XXX.OXXX&=@=oX+o+..X+o+##oX#@OO#$#.O+oX.#   .. .    O.. &#o+####oo*%@o+$*$@@@%@oX+@@o@o=o*%+@@o*+@#..X.XOX",
"X@$XXOOO.X&+XO.O.X.X&+&OXXXXXXoo$+@oXo$X .O.#..Xo$O..o+. O@o.OO  .  &...   . O+o###oo#o$*$@XX%*%%%$+XXO..X+o+o+@$+$@@$@oX#...  .",
".XXXXXOX#+++#O.XOXOX.XX.X.X&.XX=*@-@o=..&X.. .#... O#o. o@o+..    .X. .. .  .+#######o+o$@@#%*@@*@@@# .OXOO.XXo@#Xo+o+Xo#O&&#X&X",
"...XXOX#X+#=+#XOXX+#.X+XX..XX.X+=oX+X.XXXX#.O+.. .++.. O*@+#   .XX&X  .. . .$+##&+#+##oo+oXooo=@@%*+ .&++#X+@o#XXo+OX#.o+..XX+o.",
"XXO...X#.XoXXXOXXOOXOX=X+XOXO.OXXoX..&@X.XX.O .+@++.# .&@$o   .X.X.X..O. .OO++######ooo+o++o@@@o@$. .+$@$$@%*@X$@O.#..O+..OO.   ",
"O#X&XO+X#+X#O.O...X#.OXX$++#.XXO=XX..X...O.. .+++. +#OXOXXX    .X#XO.X...&oO####Oooo+o&o$o@@$%%o@..#%@%*@@$+.+#oX#$+XOXO.OoXO..O",
"XO=+#OX+&X...#...OXXo#o.X-+XO..X&&X....XXX .X++-OOX..$%oX+   .XX++X ....O#oOOO##o+$+oo+o$@$+=@@@.Xo**$*%%$#XX.XXO#@o*@oO....OO.X",
"#X+o&..X....&XXXOXX&X@@XX+XXX#O#o@X=OX=&XX+#+$@oo@#.@*%@.   .&X&X. .XO.  &#OOO##o#+$++o++@@o@o. .#X$@&XO.XX#o+#..XX+o++X ..++.@$",
"oO+X.............O..X=X&&=Oo##=#X-+=XX-=X@o=o%%$*+&#o+@.   . ..X.....O  .Oo+O+o#Oo##ooo+$o++#.  .&$+X.  ..OX@$XoXO.XOX... .O.#*@",
"+XX&X....X...O.X.. .X.++o++XX..O&XX&o%@$=$OX%%%*$#+&. .       .XXOO.  .OOO##++$o#+oX+o++o+..   .OXX  ...XX#OXO.....  .     ..+$@",
"=+#X. ..X.....XOX. .X.XXXX..O..X+ooX$*@XoX.*%%$#+o..    ..o&o&o+XXO  .OOO.O##o#Oo+O#$+oXo....XO+O...O.. .X.... .. O&#..      X#O",
"...   ...  .X. .....O......XX.OX++$@@%%X..@@XXX.X      X.X@&XX+X..  O&OOO.#o##OO.OX++&XX .Xo..+X   .  ....+X.OXO.#@@o#O ..      ",
"     .    .. .......X..X...O##XXXo+==o+.X&+=..          ..X=X#.   .OooO##++#X.#oOX#o+X...#oOO. .......X..XoXO.XX.OX...   .      ",
"        ......X.X&&XX.XXX.#X+o++o+X$@X&O+Xo..      .  . .o=+$X  O+o&o+OX###OOXOo+#Xo+oOX.+XO .#.O#*+X&XOXXX  ..   ...     . .   ",
"   .  .XOXX...XXOX+X....#..#Xo$*o$@%@o..XXX ..    .  .X.X=X..  XX++$*+O#O#O#OO#+Xo+ooX.O+o+ OOOX+o+XX+XX.       &XO....    ..   ",
"  .....X...   .&#XX.XXXX&XOX$+$+$@@%@@..&**OXO... ..XXXX=...  #o+$*$*o+O#O.++oOX#oOXoo +#. ..+o+o@Xo+=...   ..XOOX#XOX..  .     ",
"  ..&....XX...  ...X+++.XOX++-@@*%=+XX.o%%@.&X.   Xo&o.X..&.  #$@$%%*++#o+o#oo#.#+XO#..X... X+o++oXo@o&X+.X++X&+XO.OX#.    .. o#",
"O  .X.O..&o&...   ..XX++X+.&++$@$*@XXXX#$@&.XO  ..#+o&.. .X. .OOo*%*@###oo+#o+O..O ..o.O.OO.+=Xo@+o=*XX  *o*=&.XOXO.....     Ooo",
"@.   X*&O.X..XX........XXO..XXX=X=%X .X.X+.    . .&....XX#=. &O .O###oooXXOX+o.O. O#ooX    #X#XX$+@$&.XO===X@XO...&XOXO   ..OXX@",
"@+. .+X+o&XO&O.....  ...OX.OX&X&@XX.X$@XoX .   ....  .X=o+..++OO .  .o+++#X+X...X.Xo&XO.. Ooo=XXOX...o=.o+@%%o=&.OXO.O..  &$&#+o",
"o+$.  O*+X+X...X..   ..OX++&#X+$oXXo+=@@=...      .  Xo$&.Ooo%*+O.. OO#oXXXX..#XX#X+=..OX.o%+XO..XX+X..++=+$@%@X=&X&XXX..&.O=+&X",
"#$++&X...O=...X.XXXX.O.XX+&+.++@+XOXX@%@-O..    .. ..OX-..o*%%*@+O..##&Xo...#++o#&X+O....&o@o#.X+@@X .X=.X&==o-%@$+++#X..  .+o+.",
"Xo@oXO. ...OX&o&XOO&&X#OX+XXO+$=o#.*@%@X$O   .O..O...&O.X+o***+o+X#++++. .OXX+oo@OX.#... =ooX+o+oX. .%*@o+XXX.+%%*-+=o. ... X@*@",
"X.X+X.X. ...&+o+OXXXXXXXX##.O@oXoOO*%@XX%.  .&O.&O...O +++%o%#O++XooooX .O .Oo$@oX#..O#.#oo.##....Xoo*%@%+oo%@=+o=&XO..OXoX..+-+",
"   .&O...&X.&oooXX#XOXO#++oOX#XoX.+$+.=@o   .OOO#X  O.O++$@&+...o+XXOXO+o...X#@o+$#.#oX.+$XX@+...Xo*o+o+$@X$@=X.  .XO.&oOX+.  . ",
"    ..X=..X.X#oX..OX.OXXXOXO#=#+..X@X&o-X .O...... ..&oXX$+X#+##$O.O .X&XX+oo+oX+@o+++OXO+@@oX.X+o+oX@oX+oXX.. . ..OX@oXO..     ",
"    ..=o.OXOXXX##XX#.XO##XOX#+oOX.+X..XX.OO. .X... &+oO...#O...OX..O#OOX#.X$@#Xo=%@XO.O+&@$@%. +#X$@%@XXXX+oXXXX%*+o@-+...  ..  ",
"X. .     ...XO..X&#+#.OXXOXO.XXO.OX..&$+@+O       .+o+..X#$oX#$o+  #+@@$@o+@%@o+o@=o.OX+=@o++O.oXO@o*X&++X+X.X&&XX...       ...O",
"X.. .     .....&+#XO.OOXO....X=..@$X.=X%#o.    .  O+o. .$%**o@%@$@O+o+o@+++ooX&X+oo#..o+#o@@-OXo+o+X+o@-+X=o=+-=o@& XO     . .&X",
"X....  ..... .O#X#+X..OO+OO.+&..X+oXO@%XX%.   .. X+oX O.@o@%*%@*%%#X+ooXOooXO+X.XX+X +*$.+$@X+X-X+$+XoXO$@o%@$*%*$.&*. .  ...&.X",
".X&X .XX.O..OXX+#X#.OOOX+#.#X#. XX+.X@o#@@. .O.XO+#...  Xo@%@+X#$#X.X&&X+X..X+##O...X$@+.X@$.+OO&=+X.@o+@o*@X*$+.X.O       ...OX",
"X@X .&+XO.O&o+#X#X+X#o##O#XXXO ...X #oOX@+ .. .O&O.X#O .o+o+XXX#XX=XOX#@-..X++X.X+&XX+$@OO+@.#X@$+X.XX$=oXo@$@@.. .  .. .   ..XX",
"O#  Oo+OX.O+$#++OXX#++##=#XOO.   ...X@+@$ . O .O..X+...+ooXX&o$@@o@$++o+=$+=oX.Oo@-X#%@o+o+X..o#@X O=&+@*$=@XX  .. ..      ...+o",
".   .......&X....O..#o+o#X+X. .OXXX&@$X@&       . .. .O*@@$@$@@o@%%%@*@&o=oX+XX+oX+$.+X@Xo+XOX@=O XX#XX$=XX... .X+@.     ... . .",
" .X.O.. . .O+#OOOX&OOX+++X#& .OOXOX+oX.=. O . .. ... .o$@o*@@%oXo%%*$+Xo@@+o$@oo+o*=.Xo$++$.X&X. .$*%@$X... .......    .. ... . ",
"   .=O ...Oo++X++#+#X.XOX#.. &oOXX##XX&..     OO.&+ Xo*o*@%%+o+XXX+@@o@*$@$+Xo+-@$&. X+XXo#.@%O O@*%%*X...  ..Xo$X    ......&..X",
"  .oo.  .OX+XX+XoX+X&.. .XXOo-+.#XX.XX+.O    O...#..o$*@$@@%*++X+@#Xo@X#o+=o+@=o@XXO$=XX#X#.&X..&=%@*XX=X&. +=#o   .&..X.O...X&X",
".#&=X..O&X+oo.OXXXXO..O.OO++*%. .   .X..      .... X+@$*%@$++%*o$X#XX.&X#o+XXo+=o+X+@oXoXX. ..O.X@@%X...X. .XX.   OXO.X.O.  ....",
".XX....X++++XXXX#+XXX#o..XX=X                     &oo%+@o++o+o%*@@@*$o+o+$XOXX$*$+.=Xo+-o.&O#+XO#oX+O.  . X+X     + OO..&.X     ",
". ....O#o+oXo+oO#.#X+#X.....    .                &$@++O+++o+%@$@@@$@@+XX#XOX++X+oOX&#X=XX+&X+*#OXXo@ .&.  &.     O+.X..=+#X&&.O.",
"    ..Xoo=XO+oo+=o$++###XX#.  . . .            Xo%*+OOO#o+#X-+oo@@o@$Xo#oo+#oXO  ..+X.XX@@..=%X..X&. +.    .O    X.X...+....... ",
".XXX..Xo@o&+=+$++o+oX+oXO#.   X.           .X&Xo@+oX#.#$+o+XXXO@%@o+#o%#Xo+$+oX..... X..X.XX+-.X$+..      .&.   .   ..... X#    ",
"O#XXXOo@*X=++o+oXX##OX  ..  ...          O&OXo+=+X##o#o=+XXoXO.o%%+.X@*o+XXX..XX... &XX .X+XX  @@XO   .+&XX. .  .  X..X...&.. &X",
"=#o*O#+=&++X$o++oooXX     . .        ...X=+X+X=o&#o&Xo=o+X#Xo++X+oXOo+#XXX. .OXXXX.OX.XXo-X.. XXXo.   O+X+..   .  ++.... ..OX.X$",
"$&o++X....=o$@$@o+.X..... . .       #XO#X#X$o&$++oXX+=%XX$%+XoX.. X+#XX&.....#XX.XX  X+XX.Xo.XX.XX   .. .&.  .  .++O..     ...+*",
"*+XOoO.X .XX+oXXX...O..&O        .&++#+#Xo++Xo*%=o+XXoX#XXXo#o..X..#&O#o#O.....X. ..X+=X.X+.&@Xo=.  ..XX+X   .  XX.     .  . X*%",
"$XO-+. ..#+oXXX. .  ..O.        .&O+OX#&#XXX.=%*$@$.XOX+.OX+Xo+%++o#=XXX++#+X&XX. X+%oXXo&XX@o=-O  X.&..X        .  .       .+o$",
"XX#.  ...X+XX+XO. O##+O  .     OO#o+o.X&XX+oo$o@oX@$@X.X.XoXo@%+&@X+o+##$+XX@X=XX+.+*$+%@X@=+$=.  ...X.O.              .     #O.",
" ..   .  ..XO.++O.##oO   .    X#XO+XXX+X#@oX=$=o@XX@oXXXXo++@$+.#o#X#o==-=X&-X&X*+ X$Xo%XOXXXX.  . .X... .              ..      ",
"     . ..XO.X....#.XX   . .  O&O#O#XO++o+oXXX+XoX+XX&O..XX+%@O.#o+XOX=X=XX&=#X+X=.X@+XX@o..     XOXO...                         ",
"        .+#.XXO#@+ .    O . Oo+#O..XOXXX++##Xo#XXXXXX.##OX#+XXoX#X#o#=ooXoo+.X==.X%X.=XX.     ...X...               ..     ..   ",
"       .&+OoO ..O....  O. .&oo+oO..O.XO#+.XXooXXXO.XO.#X..#Xo++##+X#==++Xo+X.o.XX-=XXX      . .. ..                &&. .  ...O  ",
"  . XO O&X#o .O  XO.. .. ..#+#####.OOO+#..O##XXoXoXO.....OX+o+oo+##ooo+=o+X XX.#-XX. .        ....X..            ..#o#.X.... ...",
". ..&...#O. OO..+X .......+&.O++$#O.##+=O+=XXO.Xo=X+=..O...+&XO+#XXX+o$@X#..=X.OX=.             ..  .      ..    .&#$o#...  ..-X",
"&  ...&&#...O#**O. .  ...#X+X#o+#XOO#X#+X+X&...-X......X#O#X#X#X.#XXX&=@#XXX+O X=o..X.      ...... .O      .    . .#o##..    X+o",
"@O   &$%. ...X+o&  . .. . .X.X=#.OO#X#o+oX++.OX.X....#..X+oX+oX.#..#X.o=XXX#X.X=+$OX#..   ..    ....      .       OO#O..  &O.&O=",
"@@o..+@+O.. .##+O          ..=$+oX#.#X+X#XoX#=.........O&X#+X+X#+#oX++-=.X&XX.+&=+.XX.X      . .O. .               .OO ....+o+Xo",
"o**...OXX.O.&+o..          ...&X#X#O#oX#XoXo&XOXOO....XXXXXXX.XXO+o+=+==XXX..X.XXX.XX        . ...        .            &...OXXO.",
"+$&Xo#.....O..   .      . .   #+XOX+&#+o+oX. .##=#.X. ..XOX+XXX=XX++oo=X=..X ..... ..    ..                  .   .        . O=o+",
"XX=@X..  ........    ...O   . XX##X###XX$X...X=+oX......XO+=oX.X&XX==X.XX..      .        ..                     .OoO....#O .+*%",
". .$+O..  .XX&.. . .O.  ... .X#+##o#XX.OX..X.X+X.XX..OXOXXX......XX=XX+O....  .     ..  .  ..                    .o%oOX.Oo&...XX",
" . X... OX....O   ..    ...&.X##oX+o+O.OOXO+o&.O....X.........X&#=+=-o=XXX.   .      X.                          .##o+##.#+ .   ",
"  . ...XO...... .&.. OXO..OOO+o++o+#oX.++OX=+.  .. .OOOXXOXXOXXoo+o=o#&XX..                                     ..O$+X#++O.     ",
"..  .....oX.. . .   .X&...X++++$o+#X..Ooo...=X.X.XXO..OXO..OXXXXXXXXXXX... .                                   .  ...OXO+&  ....",
"XoX        .X....... ..o$*#+**$@oXoOOO.X#..++X&o$O#O.&X.  .  X.X..X....#=XX.XX.                              .O#.. .  .   . .#*X",
"*@++oo+X.. ... .&..Xo&+**o**o*@o+o+.O*+. OX=oo$*+=+O.     ..OXXX.OXXO#X#O&oOOXXOX.                         .   O.&. OO#&X..O#+%+",
"o+$**@+&XX  ..O=O..+++$++@%*%@o++oo.#$+O.Xo+$*@$++o&.X.  .X&&..OXX&XXX=X.X= X+XX#=O                       ...  O....X#$o+X.o+o%o",
"==o%*o@+X.Oo..=O .o*o+o$X$*@%+@oXOXOOX## +%*%@@@$@@o#+OX&o&X+OX=OXXXXXX.X$X XX=#X#XO.                    ..OO.   .O#XOo$o+O.+&+o",
"oX@%%*%+#O#+o.O. +$@oX+=+@%XOX==$X@++.OOO@@$+$oX@$+.X.Xoo+XO..X&XXXXXX.X++.O+o@=oX..               .            .oo#O#+$+o+.O#.X",
"%o+@o%%*OOO##.. X+@$++$XX@*&$X&+*%$X.O..X@$@X+*+oX.+X++&#+&X.XO+&O++$XXX=+XO=oX+=# ...          ..   .          #$#O+#o$$oX..O$+",
"**X=$*%@%@+O.....X$@+o+o@$+X++o@$@XO.X O*@*$+XXX.X+oOX++O+++#X..XXX+X.XX.=XX$+X-+OO&&.. .         ..   .X.      .+..#$$$%+&OO.XX",
"o*$@@$@+*%*o#.OXX.O#oX+$XXXo+o=+$@.....+$+$=.O&.++O XX#OXoX+&#X##&O=X.XX.XX.+-@@. #$+O..O.        .   . ..       ..O+$o$$+@+#..o",
"=o@=o@oXX#%+X++XOXX.+o...+=o=@oo+X.O.OO@=+XX#*@+X..XO...XO.+#+#XXX+X..XXXX&@**%o .O+o&.XX.O.     ..  ..        O#O..+$+$+X*$++.X",
"X$@XXXX#XX+o+++#+&OXX.XX@=@@oo@@X+O...+@oX+#$+X..O++#X.OXXOXX#$#X&oX.X&=o@$@$XX...O#+.X.  ..       .. .    .   +$+#O+#++oX+*$OO.",
"&+@#X&XoX&=+o+.XXXX#.X#..X@$=@@oo..#.O@@@++OX..&o#+X+#O=++oOXXoX=XX.X*+XXX$XX&X... . .X....XX       .         OO+$#.O#+O%+$%+.O&",
"Xo#=Xoo&#XOXOX+OOO.Oo+.OXOXo+@o=XX#X.Xo@$@+...o+++XO#Xo+o+XXX..XXO.Xo*o$$+&XX@...  .....X&O...X.       . O  .#..O#...O+++oX+$+##",
"XXX#%%+XO+..XXOXX..+oXoX$@o+$@%@oXO.O&+%=$+.&++oOXO#X#XXXXO...XOXXo+$XX.X..XX&X.  ..O++=oo&XX&&..OOXOOo*O&O&++.#+XOOO.OX.XXo*@o.",
"o+oo@%+XXOOOXXO+XX+*@o+X@$+@%%*@oX..@o@*%%o.+o&X#+XOooX+oXXXO++OO+=+X ... ...    . O=+o&+@$@*+oO.OO&+o*$o#+++o#$#+oo@..#o.O@%@@O",
".Xo%@%+oO.#++OXX#XX$+Xo@=@+$**%%@OO&*+$@@=+++OX.O%#o@@o+XOX++XX..X.X.......    .....O..#X$@*ooo+&&o+o#++o+#o###$+o*%++#XOOXX+X$X",
"+o@%%@@X.XX@*X+XX=&XoX+Xo+XX+@@@oO.+@+X$@oX+$OXO..+@$@+=$@oo+o+#.X&...OXXX..XX ....&XO&o$@*%*%*o+o+###o+$o+#..$oo$@$@$=oO.O#=+$o",
"%+%%%@o.+@@$@o+=++XoX+=XXX+$+Xo=o.+%%@@%=%@$*+++&Xo@=$$*%%@@$@=-X+. .+X.....  .......#ooX+@%*@$$&+.O&.Oo@o$#Xo#o@@$@@%@+###o+@@@",
"%%*=@XX#$@$@#-*oXXXX&X&XO.+@@oX.X@%*%*%@@%o-@%+o#@o$@@@%@@$@XXXXX. .X...  .  ..     Oo*@+%+@%**+o+XO+XO#$@$#$@++$@@$%*$#XOX#o*%@",
"**@XXoo@=@o@%*%@oXO=+XX+Xo@oX@$+@@%%%%@o%@XX-@o.X-@=@@@$@o*@......X&&. .         ...&+*%%*$@$*$@o+$@@##Xo@@#$+o+o+o+@+o+o+O.X+%o",
"XXXXX%*%%@X@%%@$o$@@o+$oo@%+$*@%*$*%@@%+*=@%%*=..o%$@%@@%#+XXXX.XX.X. .X.     .X.X&o+++$*$*@$+o++o+@$@$X#%*$@@oo+$+#XXXXo@o#OO .",
"XX.OXo+%@Xo*%@X@%*%%%*$@@oo**%X%*+@%@o=o@X@%$=X.&*%+@@$=XoX.OXX+X... ...........&*+X+$@+$*$@+Xo+oX+$*$*@@$**%o+o++XXoo#o@$+X=#@O",
"+oXX.+$X..@%*@@@@%**oo+o**%%%*%%@X@@%%o@Xo%=#O-%%*$@@o+oXXO...X.....X...X.....&&oooo*$XX++@oo+@oo+o+++$@o+$@@o+$@@o#++X@$@$++$*%",
"X.&@$X..OX&+@%%*oX.X+oX@$*%@%@@$XXoXo**=o%%@X&%%%%+=o@@oOX+&&&X..XO.XOX+O..XXo*oXXo+oX+.=@XoX@@%oo+o+%+o@$@@@$@+@@@o+$o@@@@%+oX#",
"..+%%@XOX*+X@%$++#XXX+@$@%@XXoX#@@@@@%%%@%+o@@+@@oX@@=%+=o+o#XO..O.XOX+O.O&.&*@o+oX+X$@oO+o+o@@@o@@+o+X.@@o@@%+@%@o+o@@%%*%%oXXX",
"X@o@%oXXX=XX+o*$+$+&.X+Xo@Xo%*@o%oo%%%%@@@o=o+@$@Xo@oX@@@o=+X#++#XX..XX.#o+o$%*%+Xoo#o@@+%+Xoo$o+$@oXX&X#$+oo@o@%oo*@@@%o@%@@o+X",
"*&o%%++o@@X..X+$@@o... ..X+@%%%+@+X@o++@%@@+=@%%@@@ooo@@%ooo+o=o.#. . .. XX+++o+&Xo+XX+$@$+#o@@+=++oXX+o@@o+o=Xo+o+$%@o@@%%@@=X$",
"%X+*$&X@@X+$+o+XX@...  ...=@o-+@X%@=%%o=@$@X+==o=+.XX=*$*@@o@@#X+=O#.  . .+XOX+Xo@XXo+X@%@XX@@XXXXXXo+$*$@+=@o+XX@+++%+oo@+X@%%%",
"%+X#Xo+%%oo%%$X.#..X..XOX... .==o$o@%%*+X@%@OX+X.. .o@$%%%@$@oXoo&#. .O..    X&X$+o@$@$XX@@o.XoX...O@@%%*%@o+Xooo+o+++ooXXX+X$%%",
"*$+o@*$@o%*%%%@. .o+$@X+@+X. . .o.X.@@$XXX..XX...&&.X+o++@*@oXo@$@$o+&X+$.     .O.XX+XoXO..XXOX.X@XX#o@%@@o=oo++Xo@+$+o@+%*%+@%%",
"*o++oXXo**%@%%o..o*+=$&@X O...  . .. .  Xo+$X.+.X$++XooXo@@@o+XoXX+oXO+X. ...     ...X .#=+O..X.@%%*.o@#X%+@++X#Xo@+$@+oo%**%o@%",
"+.XXo@%*@o@@@@...#X.&XX....XXX..X&X .. . .=%*oXX$*$@$+&XXo@=o=oX#O.O... . ......O.O.. .. XX+X#Oo$%@X&+XXo@oo%@@@@o@@@$XX&OX$@@oo",
"XXo&=@*%*-%+X......XXOX...+*X++@*X+X#=XOXO.+%@%@%%@%@+XXOX@o++oX.....O .X.oO=O.O&X.X#O#+O..Xoo+*@+o+oXO.OXo@@%@$@@$@#Xo&o..OXXX."
};
